<svg width="24" height="24" viewBox="0 0 24 24" fill="none" xmlns="http://www.w3.org/2000/svg">
<path d="M19.8994 12C19.8992 7.39778 16.1677 3.66699 11.5654 3.66699C6.96331 3.66716 3.23259 7.39788 3.23242 12C3.23242 16.6023 6.96321 20.3338 11.5654 20.334V21.834L11.0596 21.8213C5.864 21.5579 1.73242 17.261 1.73242 12C1.73259 6.56945 6.13488 2.16716 11.5654 2.16699C16.9961 2.16699 21.3992 6.56935 21.3994 12L21.3926 12.3564C21.3295 14.1297 20.7967 15.7837 19.915 17.1973L21.3994 21.834L16.7627 20.3496C15.2549 21.29 13.4733 21.834 11.5654 21.834V20.334C13.1846 20.334 14.6922 19.8733 15.9688 19.0771L16.5576 18.71L17.2197 18.9209L19.082 19.5166L18.4863 17.6543L18.2754 16.9922L18.6426 16.4033C19.4388 15.1268 19.8994 13.6192 19.8994 12Z" fill="#336AFF"/>
<path d="M13.9629 11.2828C13.9628 12.6957 12.8494 13.8777 11.4318 13.8777C11.0796 13.8775 10.7938 13.592 10.7938 13.2397C10.7938 12.8874 11.0796 12.6019 11.4318 12.6017C12.1048 12.6017 12.6868 12.0315 12.6869 11.2828C12.6869 10.534 12.1048 9.96385 11.4318 9.96385L7.75219 9.96385C7.07914 9.96385 6.49708 10.534 6.49708 11.2828C6.49716 11.8446 6.82914 12.3133 7.28065 12.506C7.60455 12.6443 7.75472 13.0184 7.61661 13.3424C7.47836 13.6663 7.1042 13.8173 6.7802 13.6793C5.85712 13.2854 5.22111 12.3542 5.22104 11.2828C5.22104 9.86977 6.33453 8.6878 7.75219 8.6878L11.4318 8.68781C12.8495 8.68781 13.9629 9.86977 13.9629 11.2828Z" fill="#336AFF"/>
<path d="M8.56829 13.2395C8.56839 11.8266 9.68184 10.6446 11.0994 10.6446C11.4517 10.6447 11.7375 10.9303 11.7375 11.2826C11.7375 11.6348 11.4517 11.9204 11.0994 11.9206C10.4264 11.9206 9.84443 12.4908 9.84433 13.2395C9.84433 13.9883 10.4264 14.5584 11.0994 14.5584H14.8708C15.5438 14.5584 16.1259 13.9883 16.1259 13.2395C16.1258 12.6777 15.7938 12.209 15.3423 12.0163C15.0184 11.8781 14.8675 11.5038 15.0053 11.1799C15.1436 10.8559 15.5187 10.7049 15.8427 10.8429C16.7658 11.2369 17.4018 12.1681 17.4019 13.2395C17.4019 14.6525 16.2884 15.8345 14.8708 15.8345H11.0994C9.68178 15.8345 8.56829 14.6525 8.56829 13.2395Z" fill="#336AFF"/>
</svg>
