<svg width="24" height="24" viewBox="0 0 24 24" fill="none" xmlns="http://www.w3.org/2000/svg">
<path fill-rule="evenodd" clip-rule="evenodd" d="M16.6947 7.9502C16.8697 7.95065 17.0372 8.02088 17.1602 8.14531L17.6157 8.60629C17.8694 8.86303 17.8683 9.27639 17.6133 9.53184L10.8881 16.4468C10.7648 16.5702 10.5976 16.6395 10.4232 16.6395C10.2488 16.6395 10.0816 16.5701 9.95842 16.4467L6.38909 12.8694C6.13356 12.6133 6.13329 12.1988 6.38849 11.9423L6.84401 11.4846C6.96709 11.3609 7.13434 11.2913 7.30883 11.2911C7.48332 11.2909 7.6507 11.3602 7.77404 11.4836L10.4231 14.1348L16.2283 8.1429C16.3519 8.0191 16.5198 7.94974 16.6947 7.9502Z" fill="#336AFF"/>
</svg>
