<svg width="24" height="24" viewBox="0 0 24 24" fill="none" xmlns="http://www.w3.org/2000/svg">
<path d="M20.9992 19.3455C21.372 19.3455 21.6742 19.6477 21.6742 20.0205C21.6742 20.3933 21.372 20.6955 20.9992 20.6955H2.99922C2.62643 20.6955 2.32422 20.3933 2.32422 20.0205C2.32422 19.6477 2.62643 19.3455 2.99922 19.3455H20.9992Z" fill="#336AFF"/>
<path d="M19.6639 19.908H18.3139V4.65371H10.7474V20.0188H9.39737V4.42871C9.39737 3.80739 9.90105 3.30371 10.5224 3.30371H18.5389C19.1601 3.30387 19.6639 3.80749 19.6639 4.42871V19.908Z" fill="#336AFF"/>
<path d="M4.33487 11.0231C4.33513 10.3305 5.08497 9.89808 5.68487 10.2444L10.075 12.7783L9.4 13.9481L5.68487 11.8027V20.0161H4.33487V11.0231Z" fill="#336AFF"/>
<path d="M16.2889 6.85361L16.2871 8.20361L12.8102 8.20098L12.8119 6.85098L16.2889 6.85361Z" fill="#336AFF"/>
<path d="M16.2889 10.4536L16.2871 11.8036L12.8102 11.801L12.8119 10.451L16.2889 10.4536Z" fill="#336AFF"/>
<path d="M16.2889 14.0536L16.2871 15.4036L12.8102 15.401L12.8119 14.051L16.2889 14.0536Z" fill="#336AFF"/>
</svg>
