<svg width="24" height="24" viewBox="0 0 24 24" fill="none" xmlns="http://www.w3.org/2000/svg">
<path d="M13.6364 10.375C13.6364 9.92626 13.2701 9.5625 12.8182 9.5625H12.4091C9.92381 9.5625 7.90909 11.5632 7.90909 14.0312C7.90909 16.4993 9.92381 18.5 12.4091 18.5H16.5C18.9853 18.5 21 16.4993 21 14.0312C21 12.0074 19.6452 10.2977 17.787 9.74794C17.3262 9.61159 16.9091 9.99221 16.9091 10.4697V10.5117C16.9091 10.916 17.2155 11.2472 17.5919 11.4015C18.6318 11.8278 19.3636 12.8446 19.3636 14.0312C19.3636 15.6018 18.0815 16.875 16.5 16.875H12.4091C10.8275 16.875 9.54545 15.6018 9.54545 14.0312C9.54545 12.4607 10.8275 11.1875 12.4091 11.1875H12.8182C13.2701 11.1875 13.6364 10.8237 13.6364 10.375Z" fill="#336AFF"/>
<path d="M11.5909 5.5C14.0762 5.5 16.0909 7.50072 16.0909 9.96875C16.0909 12.4368 14.0762 14.4375 11.5909 14.4375H11.1818C10.7299 14.4375 10.3636 14.0737 10.3636 13.625C10.3636 13.1763 10.7299 12.8125 11.1818 12.8125H11.5909C13.1725 12.8125 14.4545 11.5393 14.4545 9.96875C14.4545 8.39819 13.1725 7.125 11.5909 7.125H7.5C5.91845 7.125 4.63636 8.39819 4.63636 9.96875C4.63636 11.1554 5.36824 12.1723 6.40816 12.5985C6.78448 12.7527 7.09091 13.084 7.09091 13.4883V13.5303C7.09091 14.0078 6.67383 14.3884 6.21299 14.2521C4.35484 13.7023 3 11.9926 3 9.96875C3 7.50072 5.01472 5.5 7.5 5.5H11.5909Z" fill="#336AFF"/>
</svg>
