<svg width="24" height="24" viewBox="0 0 24 24" fill="none" xmlns="http://www.w3.org/2000/svg">
<path d="M15.375 12.9H12.75C12.2688 12.9 11.875 13.305 11.875 13.8V16.5C11.875 16.995 12.2688 17.4 12.75 17.4H15.375C15.8562 17.4 16.25 16.995 16.25 16.5V13.8C16.25 13.305 15.8562 12.9 15.375 12.9ZM15.375 3.9V4.8H8.375V3.9C8.375 3.405 7.98125 3 7.5 3C7.01875 3 6.625 3.405 6.625 3.9V4.8H5.75C4.77875 4.8 4.00875 5.61 4.00875 6.6L4 19.2C4 20.19 4.77875 21 5.75 21H18C18.9625 21 19.75 20.19 19.75 19.2V6.6C19.75 5.61 18.9625 4.8 18 4.8H17.125V3.9C17.125 3.405 16.7312 3 16.25 3C15.7688 3 15.375 3.405 15.375 3.9ZM17.125 19.2H6.625C6.14375 19.2 5.75 18.795 5.75 18.3V9.3H18V18.3C18 18.795 17.6062 19.2 17.125 19.2Z" fill="#797A7B"/>
</svg>
