<svg width="25" height="25" viewBox="0 0 25 25" fill="none" xmlns="http://www.w3.org/2000/svg">
<path d="M3.64584 9.89583C3.64584 9.46436 3.99562 9.11458 4.42709 9.11458H5.98959C6.42107 9.11458 6.77084 9.46436 6.77084 9.89583C6.77084 10.3273 6.42107 10.6771 5.98959 10.6771H4.42709C3.99562 10.6771 3.64584 10.3273 3.64584 9.89583Z" fill="#336AFF"/>
<path d="M3.64584 16.1458C3.64584 15.7144 3.99562 15.3646 4.42709 15.3646H5.98959C6.42107 15.3646 6.77084 15.7144 6.77084 16.1458C6.77084 16.5773 6.42107 16.9271 5.98959 16.9271H4.42709C3.99562 16.9271 3.64584 16.5773 3.64584 16.1458Z" fill="#336AFF"/>
<path d="M19.0104 3.125C20.161 3.125 21.0938 4.05774 21.0938 5.20833V19.7917C21.0938 20.9423 20.161 21.875 19.0104 21.875H6.51043C5.43162 21.875 4.54481 21.055 4.43828 20.0043L4.42709 19.7917V18.4375C4.42709 18.3224 4.52037 18.2292 4.63543 18.2292H5.78126C5.89632 18.2292 5.98959 18.3224 5.98959 18.4375V19.7917C5.98959 20.0793 6.22278 20.3125 6.51043 20.3125H19.0104C19.2981 20.3125 19.5313 20.0793 19.5313 19.7917V5.20833C19.5313 4.92068 19.2981 4.6875 19.0104 4.6875H6.51043C6.22278 4.6875 5.98959 4.92069 5.98959 5.20833V7.60417C5.98959 7.71923 5.89632 7.8125 5.78126 7.8125H4.63543C4.52037 7.8125 4.42709 7.71923 4.42709 7.60417V5.20833C4.42709 4.05774 5.35983 3.125 6.51043 3.125L19.0104 3.125Z" fill="#336AFF"/>
<path d="M5.98959 13.8542C5.98959 13.9692 5.89632 14.0625 5.78126 14.0625H4.63543C4.52037 14.0625 4.42709 13.9692 4.42709 13.8542V12.1875C4.42709 12.0724 4.52037 11.9792 4.63543 11.9792H5.78126C5.89632 11.9792 5.98959 12.0724 5.98959 12.1875V13.8542Z" fill="#336AFF"/>
<path fill-rule="evenodd" clip-rule="evenodd" d="M12.7167 8.07292C13.5125 8.07292 14.2107 8.19339 14.8107 8.43506C15.4106 8.67672 15.9107 9.00812 16.3106 9.42891C16.7106 9.84556 17.0085 10.3227 17.2043 10.8602C17.4043 11.3976 17.5 11.9643 17.4917 12.56C17.4792 13.3767 17.3188 14.0102 17.0105 14.4602C16.7022 14.9102 16.1939 15.1352 15.4856 15.1352C15.1481 15.1352 14.825 15.056 14.5167 14.8977C14.3305 14.8007 14.18 14.676 14.064 14.5243C13.921 14.6912 13.7535 14.818 13.5605 14.9038C13.2606 15.0329 12.9543 15.0975 12.6419 15.0976C12.2003 15.0976 11.8106 15.0018 11.4731 14.8102C11.1357 14.6144 10.8688 14.3436 10.673 13.9979C10.4814 13.6521 10.3857 13.2498 10.3857 12.7914C10.3857 12.3206 10.4852 11.912 10.6852 11.5662C10.8893 11.2205 11.1645 10.9541 11.5102 10.7666C11.8561 10.5791 12.2418 10.4853 12.6668 10.4853C12.9376 10.4853 13.221 10.5412 13.5168 10.6537C13.6813 10.7139 13.8248 10.7872 13.9481 10.8719V10.6603H14.8728L14.8544 13.0163C14.8544 13.3371 14.9103 13.5727 15.0228 13.7227C15.1353 13.8685 15.2937 13.9414 15.4979 13.9414C15.7144 13.9414 15.8729 13.8811 15.9729 13.7604C16.0729 13.6395 16.1375 13.4768 16.1667 13.2726C16.2 13.0684 16.219 12.8371 16.2232 12.5788C16.2315 11.9248 16.127 11.3854 15.9103 10.9604C15.6979 10.5313 15.4189 10.1916 15.0732 9.94161C14.7273 9.69161 14.3542 9.51426 13.9542 9.41009C13.5584 9.30594 13.1813 9.25395 12.823 9.25395C12.2606 9.25395 11.7586 9.34145 11.3169 9.5164C10.8795 9.68721 10.5107 9.93313 10.2107 10.2539C9.91068 10.5747 9.68523 10.9581 9.53523 11.4039C9.38524 11.8497 9.31867 12.3478 9.33534 12.8977C9.35201 13.431 9.44578 13.9063 9.61661 14.3229C9.7874 14.7394 10.0271 15.0933 10.3353 15.3849C10.6436 15.6724 11.0061 15.8916 11.4227 16.0416C11.8436 16.1916 12.3105 16.2664 12.823 16.2664C13.0812 16.2664 13.3374 16.2416 13.5915 16.1916C13.8499 16.1416 14.0899 16.0707 14.3107 15.979L14.7044 17.0914C14.4044 17.208 14.0896 17.2955 13.7604 17.3538C13.4354 17.4163 13.104 17.4479 12.7665 17.4479C12.075 17.4479 11.4417 17.3351 10.8668 17.1102C10.296 16.8894 9.79991 16.5745 9.37908 16.1662C8.96257 15.7621 8.63978 15.2852 8.41065 14.7354C8.18568 14.1855 8.07295 13.5853 8.07293 12.9354C8.07293 12.1271 8.19394 11.4186 8.43558 10.8103C8.68137 10.2021 9.01868 9.69572 9.44774 9.29158C9.88106 8.88327 10.3772 8.57911 10.9355 8.37911C11.498 8.17495 12.0917 8.07292 12.7167 8.07292ZM12.7731 11.6725C12.394 11.6725 12.1107 11.775 11.9232 11.9792C11.7399 12.1792 11.6481 12.4498 11.6481 12.7914C11.6481 13.1373 11.7418 13.4103 11.9293 13.6103C12.121 13.8061 12.3878 13.9038 12.7294 13.9038C13.0127 13.9038 13.2523 13.8226 13.4481 13.6602C13.648 13.4977 13.7482 13.208 13.7482 12.7914C13.7482 12.4248 13.6646 12.1478 13.4979 11.9603C13.3313 11.7687 13.0897 11.6725 12.7731 11.6725Z" fill="#336AFF"/>
</svg>
