<svg width="32" height="32" viewBox="0 0 32 32" fill="none" xmlns="http://www.w3.org/2000/svg">
<path d="M29.3399 16.005C29.3399 8.64412 23.3658 2.67004 16.0049 2.67004C8.644 2.67004 2.66992 8.64412 2.66992 16.005C2.66992 23.366 8.644 29.34 16.0049 29.34C23.3658 29.34 29.3399 23.366 29.3399 16.005Z" fill="#FF060A"/>
<path d="M21.541 13.6152C20.9785 13.0958 20.2004 12.3027 19.5666 11.7402L19.5291 11.7139C19.4667 11.6638 19.3964 11.6245 19.321 11.5977C17.7929 11.3127 10.681 9.98328 10.5423 10.0002C10.5034 10.0056 10.4662 10.0197 10.4335 10.0414L10.3979 10.0695C10.354 10.1141 10.3207 10.1679 10.3004 10.227L10.291 10.2514V10.3845V10.4052C11.0916 12.6345 14.2529 19.9377 14.8754 21.6514C14.9129 21.7677 14.9841 21.9889 15.1173 22.0002H15.1473C15.2185 22.0002 15.5223 21.5989 15.5223 21.5989C15.5223 21.5989 20.9523 15.0139 21.5016 14.3127C21.5728 14.2263 21.6355 14.1334 21.6891 14.0352C21.7028 13.9583 21.6964 13.8792 21.6704 13.8056C21.6445 13.732 21.5999 13.6664 21.541 13.6152ZM16.9154 14.382L19.2329 12.4602L20.5923 13.7127L16.9154 14.382ZM16.0154 14.2564L12.0254 10.9864L18.481 12.177L16.0154 14.2564ZM16.3754 15.1133L20.4591 14.4552L15.7904 20.0802L16.3754 15.1133ZM11.4835 11.3127L15.6816 14.8752L15.0741 20.0839L11.4835 11.3127Z" fill="white"/>
</svg>
