<svg width="24" height="24" viewBox="0 0 24 24" fill="none" xmlns="http://www.w3.org/2000/svg">
<path d="M20.25 12C20.25 7.44365 16.5563 3.75 12 3.75C7.44365 3.75 3.75 7.44365 3.75 12C3.75 16.5563 7.44365 20.25 12 20.25V21.75C6.61522 21.75 2.25 17.3848 2.25 12C2.25 6.61522 6.61522 2.25 12 2.25C17.3848 2.25 21.75 6.61522 21.75 12C21.75 17.3848 17.3848 21.75 12 21.75V20.25C16.5563 20.25 20.25 16.5563 20.25 12Z" fill="#A9C4FF"/>
<path d="M13.125 8.625C13.125 9.24632 12.6213 9.75 12 9.75C11.3787 9.75 10.875 9.24632 10.875 8.625C10.875 8.00368 11.3787 7.5 12 7.5C12.6213 7.5 13.125 8.00368 13.125 8.625Z" fill="#A9C4FF"/>
<path d="M12.75 11.25V16.125H11.25V11.25H12.75Z" fill="#A9C4FF"/>
</svg>
