<svg width="32" height="32" viewBox="0 0 32 32" fill="none" xmlns="http://www.w3.org/2000/svg">
<path d="M24.3314 14.9028C26.2 13.0338 26.1847 9.92122 24.2133 7.94977C22.2418 5.97832 19.1292 5.96303 17.2603 7.83169L15.3137 9.77831L13.8995 8.36409L15.8461 6.41748C18.5333 3.73048 22.9128 3.82087 25.6275 6.53556C28.3422 9.25024 28.4326 13.6297 25.7456 16.317L23.799 18.2636L22.3847 16.8494L24.3314 14.9028Z" fill="white"/>
<path d="M7.83175 17.2603C5.96309 19.1292 5.97838 22.2418 7.94983 24.2132C9.92128 26.1847 13.0339 26.2 14.9028 24.3313L16.8494 22.3847L18.2636 23.7989L16.317 25.7455C13.6298 28.4325 9.2503 28.3421 6.53562 25.6275C3.82094 22.9128 3.73054 18.5333 6.41754 15.846L8.36415 13.8994L9.77837 15.3136L7.83175 17.2603Z" fill="white"/>
<path d="M26.2071 24.793L24.7931 26.2071L5.29305 6.70705L6.70712 5.29299L26.2071 24.793Z" fill="white"/>
</svg>
