<svg width="24" height="24" viewBox="0 0 24 24" fill="none" xmlns="http://www.w3.org/2000/svg">
<path d="M12 4.125C18.7577 4.125 23.2496 11.9992 23.25 12L23.0435 12.3384C22.0911 13.846 17.9131 19.875 12 19.875V18.375C14.7894 18.375 17.2391 16.7375 19.0986 14.877C20.0093 13.9658 20.729 13.0494 21.2212 12.3596C21.3127 12.2314 21.3946 12.1101 21.4695 12C21.3946 11.8899 21.3127 11.7686 21.2212 11.6404C20.729 10.9506 20.0093 10.0342 19.0986 9.12305C17.2391 7.26255 14.7894 5.625 12 5.625C9.21059 5.625 6.76092 7.26255 4.90137 9.12305C3.99073 10.0342 3.27096 10.9506 2.77881 11.6404C2.68723 11.7688 2.60468 11.8898 2.52979 12C2.60468 12.1102 2.68723 12.2312 2.77881 12.3596C3.27096 13.0494 3.99073 13.9658 4.90137 14.877C6.76092 16.7375 9.21059 18.375 12 18.375V19.875L11.6851 19.8691C5.93878 19.6611 1.89191 13.819 0.956543 12.3384L0.75 12C0.75 12 5.24194 4.125 12 4.125Z" fill="#96A9E0"/>
<path d="M15 12C15 10.3431 13.6569 9 12 9C10.3431 9 9 10.3431 9 12C9 13.6569 10.3431 15 12 15V16.5C9.51472 16.5 7.5 14.4853 7.5 12C7.5 9.51472 9.51472 7.5 12 7.5C14.4853 7.5 16.5 9.51472 16.5 12C16.5 14.4853 14.4853 16.5 12 16.5V15C13.6569 15 15 13.6569 15 12Z" fill="#96A9E0"/>
</svg>
