<svg width="24" height="24" viewBox="0 0 24 24" fill="none" xmlns="http://www.w3.org/2000/svg">
<path d="M20.25 12C20.25 16.5563 16.5563 20.25 12 20.25C7.44365 20.25 3.75 16.5563 3.75 12C3.75 7.44365 7.44365 3.75 12 3.75V2.25C6.61522 2.25 2.25 6.61522 2.25 12C2.25 17.3848 6.61522 21.75 12 21.75C17.3848 21.75 21.75 17.3848 21.75 12C21.75 6.61522 17.3848 2.25 12 2.25V3.75C16.5563 3.75 20.25 7.44365 20.25 12Z" fill="#96A9E0"/>
<path d="M19.2803 5.78027L18.2197 4.71973L4.71973 18.2197L5.78027 19.2803L19.2803 5.78027Z" fill="#96A9E0"/>
</svg>
