<svg width="32" height="32" viewBox="0 0 32 32" fill="none" xmlns="http://www.w3.org/2000/svg">
<path d="M27 16C27 9.92487 22.0751 5 16 5C9.92487 5 5 9.92487 5 16C5 22.0751 9.92487 27 16 27V29C8.8203 29 3 23.1797 3 16C3 8.8203 8.8203 3 16 3C23.1797 3 29 8.8203 29 16C29 23.1797 23.1797 29 16 29V27C22.0751 27 27 22.0751 27 16Z" fill="white"/>
<path d="M20.1602 21.7518L10.2505 11.8421L11.8415 10.2511L21.7512 20.1608L20.1602 21.7518Z" fill="white"/>
<path d="M10.249 20.1577L20.1587 10.248L21.7497 11.839L11.84 21.7487L10.249 20.1577Z" fill="white"/>
</svg>
