<svg width="32" height="32" viewBox="0 0 32 32" fill="none" xmlns="http://www.w3.org/2000/svg">
<path d="M12.8392 15.5911C14.4664 15.5911 16.0238 16.2728 17.1545 17.4799L19.6845 20.181C20.0783 20.6015 20.3489 21.1291 20.4655 21.7014L20.4971 21.855C20.8965 23.8154 19.3505 25.619 17.4157 25.449C16.8096 25.3957 16.2343 25.146 15.7729 24.737L12.5477 21.8797L13.0739 21.2471L13.6 20.6157L16.8252 23.473C17.0295 23.654 17.285 23.7644 17.5533 23.788C18.4094 23.8629 19.094 23.0649 18.9173 22.1973L18.8857 22.0437C18.8317 21.7786 18.706 21.5344 18.5236 21.3395L15.9937 18.6384C15.1672 17.756 14.0286 17.2573 12.8392 17.2573H8.01279V15.5911H12.8392Z" fill="#336AFF"/>
<path d="M23.3777 20.4036C24.057 19.9895 24.8643 19.8592 25.6338 20.0392L25.7196 20.0587C26.6727 20.2817 27.4553 20.9814 27.8053 21.9228C28.3015 23.2576 27.8221 24.7686 26.6571 25.5429L22.3998 28.3728C19.731 30.1463 16.3619 30.3672 13.4965 28.9573L7.66448 26.0883L8.36099 24.5835L14.1918 27.4538C16.5519 28.6151 19.3272 28.4329 21.5254 26.9721L25.7827 24.1422C26.3049 23.7951 26.52 23.1173 26.2975 22.5189C26.1406 22.0971 25.7895 21.7846 25.3625 21.6845L25.2767 21.6637C24.9093 21.5778 24.5235 21.6404 24.1991 21.8381L19.673 24.5978L19.263 23.8805L18.8516 23.1633L23.3777 20.4036Z" fill="#336AFF"/>
<path d="M3.85925 26.5056H7.01501L7.01501 15.8679H3.85925L3.85925 26.5056ZM8.63012 26.6722C8.63012 27.5004 7.97928 28.1717 7.17652 28.1718H3.69774C2.89494 28.1718 2.24414 27.5004 2.24414 26.6722L2.24414 15.7012C2.24414 14.873 2.89494 14.2016 3.69774 14.2016H7.17652C7.97928 14.2017 8.63012 14.8731 8.63012 15.7012V26.6722Z" fill="#336AFF"/>
<path d="M25.5679 7.74469C24.3102 4.00649 20.3532 2.02788 16.7297 3.32534C13.1061 4.62279 11.1882 8.70499 12.4459 12.4432L10.9201 12.9895C9.36993 8.38198 11.7339 3.35043 16.2001 1.75124C20.6663 0.152053 25.5436 2.59081 27.0937 7.19835C28.6438 11.8059 26.2799 16.8374 21.8137 18.4366L21.2841 16.8625C24.9076 15.5651 26.8256 11.4829 25.5679 7.74469Z" fill="#336AFF"/>
<path d="M19.357 5.24772C19.5354 5.24797 19.6803 5.40613 19.6805 5.60088V5.95165C19.6808 6.11711 19.7877 6.25753 19.9324 6.30719C20.0298 6.3406 20.1241 6.38034 20.2148 6.42491C20.5737 6.59794 20.8733 6.85065 21.1126 7.18235C21.2906 7.42337 21.4327 7.70496 21.5394 8.02421C21.6034 8.21682 21.4841 8.41756 21.2992 8.45347L20.5899 8.5914C20.4188 8.62463 20.2569 8.5004 20.1832 8.32862C20.1413 8.23128 20.091 8.13988 20.0304 8.05632C19.9075 7.88349 19.753 7.74973 19.5688 7.65441C19.3877 7.55558 19.185 7.50338 18.9618 7.49626C18.7483 7.48921 18.5528 7.52199 18.378 7.59615C18.2071 7.67021 18.0693 7.77394 17.966 7.90769C17.8658 8.03821 17.8154 8.18785 17.8153 8.35359C17.8154 8.5371 17.887 8.69745 18.0292 8.8316C18.1716 8.96207 18.3988 9.07404 18.7089 9.1693L19.9429 9.55218C20.5603 9.74632 21.0052 10.009 21.277 10.3405C21.552 10.6725 21.691 11.1131 21.6912 11.6604C21.6912 12.1405 21.579 12.5631 21.3561 12.9268C21.1329 13.2904 20.8201 13.5756 20.4192 13.7805C20.2716 13.8565 20.114 13.9171 19.9482 13.9637C19.7958 14.0064 19.6807 14.1523 19.6805 14.3239V14.6355C19.6803 14.8302 19.5354 14.9884 19.357 14.9886L18.6836 14.9886C18.505 14.9886 18.3593 14.8304 18.359 14.6355V14.3109C18.3587 14.1418 18.2479 13.9986 18.0988 13.953C17.9548 13.909 17.8165 13.8537 17.6846 13.7865C17.2898 13.5816 16.9675 13.2929 16.7183 12.922C16.527 12.6345 16.3886 12.3066 16.3041 11.9398C16.2613 11.7523 16.3842 11.5728 16.5592 11.5427L17.2547 11.4262C17.4223 11.3979 17.5797 11.5161 17.6435 11.6878C17.7449 11.9612 17.8975 12.1898 18.1019 12.3715C18.3834 12.6186 18.7191 12.7424 19.1072 12.7425C19.4729 12.7424 19.7762 12.6479 20.0156 12.4607C20.2578 12.2736 20.379 12.0425 20.3792 11.7674C20.3791 11.5804 20.3267 11.4249 20.2201 11.3049C20.1165 11.1813 19.9511 11.0805 19.7279 11.0029L18.0008 10.4202C17.0038 10.0845 16.5054 9.42016 16.5054 8.42731C16.5055 7.96144 16.6053 7.5569 16.8057 7.21445C17.0097 6.87194 17.2968 6.60856 17.6656 6.42491C17.7985 6.35813 17.9405 6.30355 18.0903 6.262C18.2437 6.21908 18.359 6.07454 18.359 5.90171V5.60088C18.3593 5.40597 18.505 5.24772 18.6836 5.24772H19.357Z" fill="#336AFF"/>
</svg>
