<svg width="32" height="32" viewBox="0 0 32 32" fill="none" xmlns="http://www.w3.org/2000/svg">
<path d="M29.3399 16.005C29.3399 8.64412 23.3658 2.67004 16.0049 2.67004C8.644 2.67004 2.66992 8.64412 2.66992 16.005C2.66992 23.366 8.644 29.34 16.0049 29.34C23.3658 29.34 29.3399 23.366 29.3399 16.005Z" fill="#FF060A"/>
<path fill-rule="evenodd" clip-rule="evenodd" d="M16.0045 2.66443C8.63984 2.66443 2.66919 8.63508 2.66919 15.9997C2.66919 23.3643 8.63984 29.335 16.0045 29.335C23.3691 29.335 29.3398 23.3643 29.3398 15.9997C29.3398 8.63508 23.3691 2.66443 16.0045 2.66443Z" fill="#009393"/>
<path fill-rule="evenodd" clip-rule="evenodd" d="M17.5855 17.6121C17.4971 17.6183 17.0404 17.6437 16.0216 17.6437C15.2112 17.6437 14.6359 17.621 14.434 17.6121C11.3024 17.4839 8.96497 16.9767 8.96497 16.3693C8.96497 15.7619 11.3024 15.2553 14.434 15.1251V17.1069C14.6388 17.1206 15.2252 17.1528 16.0356 17.1528C17.008 17.1528 17.4949 17.1151 17.5826 17.1076V15.1265C20.7076 15.256 23.0399 15.7633 23.0399 16.3693C23.0399 16.9753 20.7083 17.4826 17.5826 17.6115L17.5855 17.6121ZM17.5855 14.9215V13.1481H21.9467V10.4437H10.0729V13.1481H14.4333V14.9208C10.8892 15.0723 8.22388 15.7256 8.22388 16.5085C8.22388 17.2913 10.8892 17.9439 14.4333 18.0961V23.779H17.5848V18.0941C21.1208 17.9426 23.7817 17.2899 23.7817 16.5078C23.7817 15.7256 21.1231 15.073 17.5848 14.9208L17.5855 14.9215Z" fill="white"/>
</svg>
