<svg width="24" height="24" viewBox="0 0 24 24" fill="none" xmlns="http://www.w3.org/2000/svg">
<path d="M12 7.11428C13.1 7.11428 14 6.18857 14 5.05714C14 3.92571 13.1 3 12 3C10.9 3 10 3.92571 10 5.05714C10 6.18857 10.9 7.11428 12 7.11428ZM12 9.94287C10.9 9.94287 10 10.8686 10 12C10 13.1314 10.9 14.0571 12 14.0571C13.1 14.0571 14 13.1314 14 12C14 10.8686 13.1 9.94287 12 9.94287ZM12 16.8857C10.9 16.8857 10 17.8114 10 18.9429C10 20.0743 10.9 21 12 21C13.1 21 14 20.0743 14 18.9429C14 17.8114 13.1 16.8857 12 16.8857Z" fill="#797A7B"/>
</svg>
