<svg width="32" height="32" viewBox="0 0 32 32" fill="none" xmlns="http://www.w3.org/2000/svg">
<path d="M18.3918 28.9989H13.6136C13.3341 28.9989 13.066 28.8879 12.8683 28.6902C12.6707 28.4925 12.5596 28.2244 12.5596 27.9449C12.5596 27.3385 12.3999 26.7428 12.0966 26.2176C11.7933 25.6925 11.3571 25.2565 10.8319 24.9535C10.3066 24.6504 9.71084 24.491 9.10444 24.4913C8.49803 24.4916 7.90238 24.6515 7.3774 24.955C7.25746 25.0243 7.12504 25.0693 6.98771 25.0873C6.85038 25.1054 6.71083 25.0962 6.57705 25.0603C6.44327 25.0245 6.31788 24.9625 6.20804 24.8782C6.0982 24.7938 6.00607 24.6886 5.93692 24.5685L3.54783 20.4298C3.47854 20.3099 3.43358 20.1774 3.41551 20.0401C3.39743 19.9028 3.4066 19.7632 3.4425 19.6295C3.47839 19.4957 3.5403 19.3703 3.62469 19.2604C3.70907 19.1506 3.81428 19.0585 3.9343 18.9893C4.45717 18.6856 4.89114 18.2499 5.19279 17.7258C5.49445 17.2017 5.65321 16.6077 5.65321 16.003C5.65321 15.3983 5.49445 14.8042 5.19279 14.2801C4.89114 13.756 4.45717 13.3203 3.9343 13.0166C3.81428 12.9475 3.70907 12.8553 3.62469 12.7455C3.5403 12.6356 3.47839 12.5102 3.4425 12.3765C3.4066 12.2427 3.39743 12.1031 3.41551 11.9658C3.43358 11.8285 3.47854 11.6961 3.54783 11.5761L5.93692 7.43738C6.00607 7.31736 6.0982 7.21215 6.20804 7.12777C6.31788 7.04338 6.44327 6.98147 6.57705 6.94558C6.71083 6.90968 6.85038 6.90051 6.98771 6.91859C7.12504 6.93666 7.25746 6.98162 7.3774 7.05091C7.9029 7.35472 8.49919 7.51467 9.10619 7.51463C9.7132 7.51459 10.3095 7.35457 10.8349 7.05069C11.3604 6.74681 11.7965 6.30981 12.0993 5.78371C12.4021 5.25762 12.5608 4.66101 12.5596 4.05401C12.5596 3.77447 12.6707 3.50638 12.8683 3.30871C13.066 3.11105 13.3341 3 13.6136 3H18.3918C18.6713 3 18.9394 3.11105 19.1371 3.30871C19.3348 3.50638 19.4458 3.77447 19.4458 4.05401C19.4458 4.66042 19.6055 5.25613 19.9088 5.78125C20.2121 6.30637 20.6483 6.74237 21.1735 7.04542C21.6988 7.34846 22.2946 7.50787 22.901 7.5076C23.5074 7.50733 24.103 7.34739 24.628 7.04388C24.748 6.9746 24.8804 6.92963 25.0177 6.91156C25.155 6.89349 25.2946 6.90266 25.4284 6.93855C25.5621 6.97444 25.6875 7.03635 25.7974 7.12074C25.9072 7.20513 25.9993 7.31034 26.0685 7.43035L28.4576 11.5691C28.5269 11.689 28.5718 11.8215 28.5899 11.9588C28.608 12.0961 28.5988 12.2357 28.5629 12.3694C28.527 12.5032 28.4651 12.6286 28.3807 12.7385C28.2963 12.8483 28.1911 12.9404 28.0711 13.0096C27.5482 13.3133 27.1143 13.749 26.8126 14.2731C26.511 14.7972 26.3522 15.3912 26.3522 15.9959C26.3522 16.6006 26.511 17.1947 26.8126 17.7188C27.1143 18.2429 27.5482 18.6786 28.0711 18.9823C28.1911 19.0514 28.2963 19.1436 28.3807 19.2534C28.4651 19.3633 28.527 19.4886 28.5629 19.6224C28.5988 19.7562 28.608 19.8958 28.5899 20.0331C28.5718 20.1704 28.5269 20.3028 28.4576 20.4228L26.0685 24.5615C25.9993 24.6815 25.9072 24.7867 25.7974 24.8711C25.6875 24.9555 25.5621 25.0174 25.4284 25.0533C25.2946 25.0892 25.155 25.0984 25.0177 25.0803C24.8804 25.0622 24.748 25.0173 24.628 24.948C24.1025 24.6442 23.5062 24.4842 22.8992 24.4843C22.2922 24.4843 21.6959 24.6443 21.1705 24.9482C20.645 25.2521 20.2089 25.6891 19.9061 26.2152C19.6034 26.7413 19.4446 27.3379 19.4458 27.9449C19.4458 28.2244 19.3348 28.4925 19.1371 28.6902C18.9394 28.8879 18.6713 28.9989 18.3918 28.9989ZM14.5613 26.8504C14.566 26.8739 14.5866 26.8909 14.6105 26.8909H17.3949C17.4188 26.8909 17.4394 26.8739 17.4441 26.8504C17.598 26.0818 17.9123 25.3542 18.3667 24.7152C18.8291 24.065 19.4257 23.5216 20.1163 23.1219C20.8068 22.7222 21.5751 22.4754 22.3692 22.3983C23.1498 22.3225 23.9373 22.4123 24.6805 22.6616C24.7031 22.6692 24.728 22.66 24.74 22.6394L26.132 20.2512C26.1441 20.2305 26.1397 20.2041 26.1217 20.1882C25.5344 19.67 25.0629 19.0338 24.7379 18.3208C24.4073 17.5953 24.2362 16.8073 24.2362 16.01C24.2362 15.2127 24.4073 14.4247 24.7379 13.6992C25.0629 12.9862 25.5345 12.3499 26.1218 11.8317C26.1397 11.8158 26.1442 11.7895 26.1322 11.7688L24.74 9.35971C24.728 9.339 24.703 9.32969 24.6804 9.3373C23.9372 9.58664 23.1497 9.67644 22.3692 9.60064C21.5751 9.52352 20.8068 9.27675 20.1163 8.87702C19.4257 8.4773 18.8291 7.93394 18.3667 7.2837C17.9123 6.64468 17.598 5.91709 17.4441 5.14854C17.4394 5.12504 17.4188 5.10802 17.3949 5.10802H14.6105C14.5866 5.10802 14.566 5.12504 14.5613 5.14854C14.4074 5.91709 14.0931 6.64468 13.6387 7.2837C13.1763 7.93394 12.5797 8.4773 11.8891 8.87702C11.1986 9.27675 10.4303 9.52352 9.63616 9.60064C8.85564 9.67644 8.06806 9.58663 7.3249 9.33725C7.30229 9.32967 7.2774 9.33889 7.26539 9.3595L5.87344 11.7477C5.86135 11.7684 5.86573 11.7948 5.88374 11.8107C6.471 12.3289 6.94256 12.9651 7.26748 13.6781C7.59812 14.4036 7.76923 15.1916 7.76923 15.9889C7.76923 16.7862 7.59812 17.5742 7.26748 18.2997C6.94253 19.0127 6.47094 19.649 5.88362 20.1672C5.86567 20.1831 5.86125 20.2094 5.87323 20.2301L7.26544 22.6392C7.27741 22.6599 7.30237 22.6692 7.32505 22.6616C8.06817 22.4123 8.85569 22.3225 9.63616 22.3983C10.4303 22.4754 11.1986 22.7222 11.8891 23.1219C12.5797 23.5216 13.1763 24.065 13.6387 24.7152C14.0931 25.3542 14.4074 26.0818 14.5613 26.8504Z" fill="#4779FF"/>
<path fill-rule="evenodd" clip-rule="evenodd" d="M14.5613 26.8504C14.566 26.8739 14.5866 26.8909 14.6105 26.8909H17.3949C17.4188 26.8909 17.4394 26.8739 17.4441 26.8504C17.598 26.0818 17.9123 25.3542 18.3667 24.7152C18.8291 24.065 19.4257 23.5216 20.1163 23.1219C20.8068 22.7222 21.5751 22.4754 22.3692 22.3983C23.1498 22.3225 23.9373 22.4123 24.6805 22.6616C24.7031 22.6692 24.728 22.66 24.74 22.6394L26.132 20.2512C26.1441 20.2305 26.1397 20.2041 26.1217 20.1882C25.5344 19.67 25.0629 19.0338 24.7379 18.3208C24.4073 17.5953 24.2362 16.8073 24.2362 16.01C24.2362 15.2127 24.4073 14.4247 24.7379 13.6992C25.0629 12.9862 25.5345 12.3499 26.1218 11.8317C26.1397 11.8158 26.1442 11.7895 26.1322 11.7688L24.74 9.35971C24.728 9.339 24.703 9.32969 24.6804 9.3373C23.9372 9.58664 23.1497 9.67644 22.3692 9.60064C21.5751 9.52352 20.8068 9.27675 20.1163 8.87702C19.4257 8.4773 18.8291 7.93394 18.3667 7.2837C17.9123 6.64468 17.598 5.91709 17.4441 5.14854C17.4394 5.12504 17.4188 5.10802 17.3949 5.10802H14.6105C14.5866 5.10802 14.566 5.12504 14.5613 5.14854C14.4074 5.91709 14.0931 6.64468 13.6387 7.2837C13.1763 7.93394 12.5797 8.4773 11.8891 8.87702C11.1986 9.27675 10.4303 9.52352 9.63616 9.60064C8.85564 9.67644 8.06806 9.58663 7.3249 9.33725C7.30229 9.32967 7.2774 9.33889 7.26539 9.3595L5.87344 11.7477C5.86135 11.7684 5.86573 11.7948 5.88374 11.8107C6.471 12.3289 6.94256 12.9651 7.26748 13.6781C7.59812 14.4036 7.76923 15.1916 7.76923 15.9889C7.76923 16.7862 7.59812 17.5742 7.26748 18.2997C6.94253 19.0127 6.47094 19.649 5.88362 20.1672C5.86567 20.1831 5.86125 20.2094 5.87323 20.2301L7.26544 22.6392C7.27741 22.6599 7.30237 22.6692 7.32505 22.6616C8.06817 22.4123 8.85569 22.3225 9.63616 22.3983C10.4303 22.4754 11.1986 22.7222 11.8891 23.1219C12.5797 23.5216 13.1763 24.065 13.6387 24.7152C14.0931 25.3542 14.4074 26.0818 14.5613 26.8504ZM12.8872 20.6695C13.8116 21.2872 14.8985 21.6169 16.0103 21.6169C17.5012 21.6169 18.931 21.0247 19.9852 19.9704C21.0394 18.9162 21.6317 17.4864 21.6317 15.9955C21.6317 14.8837 21.302 13.7969 20.6843 12.8725C20.0666 11.948 19.1887 11.2275 18.1615 10.802C17.1343 10.3766 16.004 10.2653 14.9136 10.4822C13.8232 10.6991 12.8215 11.2344 12.0354 12.0206C11.2492 12.8068 10.7138 13.8084 10.4969 14.8988C10.28 15.9893 10.3913 17.1196 10.8168 18.1467C11.2423 19.1739 11.9628 20.0518 12.8872 20.6695Z" fill="#4779FF"/>
</svg>
