<svg width="28" height="28" viewBox="0 0 28 28" fill="none" xmlns="http://www.w3.org/2000/svg">
<path d="M5.25873 11.8527C3.72105 13.3904 3.72105 15.8834 5.25874 17.4211C6.79642 18.9588 9.28951 18.9588 10.8272 17.4211C12.3649 15.8834 12.3649 13.3904 10.8272 11.8527L12.0646 10.6152C14.2857 12.8363 14.2857 16.4375 12.0646 18.6586C9.84353 20.8797 6.24241 20.8797 4.0213 18.6586C1.80019 16.4375 1.80019 12.8363 4.0213 10.6152C6.2424 8.39412 9.84353 8.39412 12.0646 10.6152L10.8272 11.8527C9.28951 10.315 6.79642 10.315 5.25873 11.8527Z" fill="#96A9E0"/>
<path d="M10.827 10.6152L19.0335 2.40868L20.2709 3.64612L12.0645 11.8526L10.827 10.6152Z" fill="#96A9E0"/>
<path d="M16.7056 5.97481L17.943 4.73737L20.1085 6.90288L18.8711 8.14032L16.7056 5.97481Z" fill="#96A9E0"/>
<path d="M14.231 8.44972L15.4684 7.21228L17.6339 9.3778L16.3965 10.6152L14.231 8.44972Z" fill="#96A9E0"/>
<path d="M21.4785 24.4999L21.4785 13.543L19.6465 13.543L19.6465 24.4999L21.4785 24.4999Z" fill="#96A9E0"/>
<path d="M25.375 17.053L20.5634 12.2499L19.2681 13.543L24.0796 18.3461L25.375 17.053Z" fill="#96A9E0"/>
<path d="M15.75 17.053L20.5616 12.2499L21.8569 13.543L17.0454 18.3461L15.75 17.053Z" fill="#96A9E0"/>
</svg>
