<svg width="24" height="24" viewBox="0 0 24 24" fill="none" xmlns="http://www.w3.org/2000/svg">
<path d="M14.1213 9.87867C12.9498 8.7071 11.0503 8.7071 9.87869 9.87867C8.70712 11.0502 8.70712 12.9497 9.87869 14.1213L8.81803 15.182C7.06067 13.4246 7.06067 10.5754 8.81803 8.81801C10.5754 7.06065 13.4246 7.06065 15.182 8.81801L14.1213 9.87867Z" fill="#96A9E0"/>
<path d="M21.9053 3.53027L3.53027 21.9053L2.46973 20.8447L20.8447 2.46973L21.9053 3.53027Z" fill="#96A9E0"/>
<path fill-rule="evenodd" clip-rule="evenodd" d="M15.9658 5.03417C14.7595 4.47785 13.4305 4.125 12 4.125C5.24194 4.125 0.75 12 0.75 12C0.75 12 2.11239 14.3885 4.46538 16.5346L5.52715 15.4728C5.31182 15.278 5.10312 15.0788 4.90137 14.877C3.99073 13.9658 3.27096 13.0494 2.77881 12.3596C2.68723 12.2312 2.60468 12.1102 2.52979 12C2.60468 11.8898 2.68723 11.7688 2.77881 11.6404C3.27096 10.9506 3.99073 10.0342 4.90137 9.12305C6.76092 7.26255 9.21059 5.625 12 5.625C12.9871 5.625 13.9316 5.83006 14.8225 6.17748L15.9658 5.03417ZM8.46685 19.1542C9.55595 19.6006 10.7385 19.875 12 19.875C18.7581 19.875 23.25 12 23.25 12C23.25 12 22.0111 9.82803 19.8557 7.7654L18.7948 8.82627C18.8978 8.92441 18.999 9.02341 19.0986 9.12305C20.0093 10.0342 20.729 10.9506 21.2212 11.6404C21.3038 11.7562 21.3787 11.8664 21.4476 11.9678L21.4695 12L21.4476 12.0322C21.3787 12.1336 21.3038 12.2438 21.2212 12.3596C20.729 13.0494 20.0093 13.9658 19.0986 14.877C17.2391 16.7375 14.7894 18.375 12 18.375C11.1801 18.375 10.3895 18.2335 9.63463 17.9865L8.46685 19.1542Z" fill="#96A9E0"/>
</svg>
