<svg width="32" height="32" viewBox="0 0 32 32" fill="none" xmlns="http://www.w3.org/2000/svg">
<path d="M17.4113 1.62305C18.5254 1.62327 19.4769 2.31653 19.8586 3.29785L19.9269 3.49707L19.9328 3.51562L19.9367 3.53418L19.9738 3.68164L19.9758 3.68848L19.9777 3.69629L20.0207 3.88379C20.1209 4.267 20.2905 4.62945 20.5207 4.95312C20.7924 5.33514 21.1433 5.65478 21.549 5.88965C21.9545 6.12429 22.4057 6.27009 22.8722 6.31543C23.3239 6.35927 23.7799 6.30778 24.2111 6.16602C25.2983 5.8085 26.5101 6.19588 27.1799 7.14941L27.1916 7.16602L27.2023 7.18262L27.2863 7.31445L27.2961 7.33008L27.3058 7.34668L28.7209 9.79492C29.3544 10.8912 29.1074 12.2534 28.1965 13.0674C27.8581 13.3696 27.5857 13.7396 27.3976 14.1523C27.2036 14.5782 27.1027 15.0419 27.1027 15.5107C27.1028 15.9795 27.2037 16.4426 27.3976 16.8682C27.5855 17.2802 27.8577 17.6496 28.1965 17.9521L28.3595 18.1113C29.1372 18.9382 29.3152 20.204 28.716 21.2324L27.301 23.6602C26.6656 24.7496 25.367 25.2112 24.2111 24.8311C23.7808 24.6896 23.3247 24.6397 22.8722 24.6836C22.4057 24.7289 21.9544 24.8738 21.549 25.1084C21.1429 25.3435 20.7919 25.6626 20.5207 26.0439C20.2578 26.4137 20.0745 26.8354 19.9826 27.2803C19.7351 28.4777 18.6787 29.3747 17.4113 29.375H14.5812C13.3135 29.375 12.2575 28.4777 12.0099 27.2803C11.9182 26.8364 11.7342 26.4143 11.4709 26.0439C11.1992 25.6621 10.8481 25.3432 10.4426 25.1084C10.0372 24.8738 9.58604 24.729 9.11931 24.6836C8.66651 24.6396 8.20985 24.6895 7.77947 24.8311C6.62037 25.2121 5.31888 24.7472 4.68572 23.6523L3.27068 21.2021C2.63733 20.106 2.88374 18.7438 3.79509 17.9297C4.13325 17.6276 4.40578 17.2585 4.59392 16.8457C4.78784 16.42 4.88783 15.957 4.88787 15.4883C4.88787 15.0193 4.78802 14.5558 4.59392 14.1299C4.40583 13.7172 4.13327 13.348 3.79509 13.0459C2.88177 12.2297 2.63665 10.8627 3.27556 9.76562L4.6906 7.33789L4.69939 7.32227L4.70916 7.30664L4.79314 7.17578L4.80388 7.15918L4.8156 7.14258C5.48652 6.19379 6.69499 5.80942 7.77947 6.16602L7.94255 6.21484C8.32502 6.31897 8.72387 6.35383 9.11931 6.31543C9.58605 6.27007 10.0372 6.12427 10.4426 5.88965C10.8478 5.65509 11.1988 5.33571 11.4709 4.95312C11.7342 4.58271 11.9183 4.16171 12.0099 3.71777L12.0129 3.69922L12.0177 3.68164L12.0549 3.53418L12.0646 3.49707C12.389 2.41178 13.3928 1.62305 14.5812 1.62305H17.4113ZM6.63787 15.4883C6.63783 16.2066 6.48402 16.9177 6.18572 17.5723C5.89697 18.2056 5.47976 18.7721 4.96111 19.2354C4.65552 19.5084 4.57638 19.9627 4.7863 20.3262L6.20134 22.7764C6.41114 23.1387 6.84343 23.2967 7.23259 23.1689C7.89486 22.9512 8.59543 22.8742 9.28826 22.9414C10.0038 23.011 10.6968 23.2333 11.3195 23.5938C11.9419 23.9541 12.4798 24.4442 12.8967 25.0303C13.3002 25.5978 13.5819 26.2434 13.7228 26.9258C13.8059 27.3282 14.1613 27.625 14.5812 27.625H17.4113C17.8312 27.6247 18.1857 27.3279 18.2687 26.9258L18.3273 26.6719C18.4808 26.084 18.7404 25.5275 19.0939 25.0303L19.256 24.8145C19.6472 24.3228 20.1278 23.9088 20.672 23.5938C21.2947 23.2334 21.9875 23.0109 22.7033 22.9414C23.3962 22.8741 24.0959 22.9513 24.758 23.1689C25.1462 23.2966 25.5787 23.1393 25.7892 22.7783L27.2033 20.3516L27.2697 20.2109C27.3748 19.9241 27.3212 19.6045 27.1349 19.3682L27.0304 19.2568C26.5123 18.794 26.0939 18.2279 25.8049 17.5938C25.5067 16.9394 25.3528 16.2288 25.3527 15.5107C25.3527 14.7924 25.5067 14.0812 25.8049 13.4268C26.0937 12.7929 26.5117 12.2261 27.0304 11.7627L27.134 11.6523C27.3515 11.3772 27.39 10.989 27.2062 10.6709L25.8039 8.24512L25.7424 8.14844C25.5203 7.83903 25.1199 7.71009 24.758 7.8291C24.0968 8.04646 23.397 8.12398 22.7033 8.05664C21.9876 7.98713 21.2946 7.76457 20.672 7.4043C20.0496 7.04393 19.5108 6.55396 19.0939 5.96777C18.7407 5.47098 18.482 4.91406 18.3283 4.32617L18.3244 4.31543L18.3224 4.30371L18.2765 4.10742L18.2453 3.9873C18.1329 3.62912 17.8012 3.37328 17.4113 3.37305H14.5812C14.1908 3.37305 13.8564 3.629 13.7443 3.98828L13.715 4.1084L13.714 4.10742C13.5707 4.77651 13.2931 5.41022 12.8967 5.96777C12.4801 6.5534 11.9426 7.04363 11.3195 7.4043C10.6968 7.76475 10.0039 7.98709 9.28826 8.05664C8.59444 8.124 7.89407 8.04665 7.23259 7.8291C6.87128 7.7103 6.47151 7.8384 6.2492 8.14746L6.19646 8.22852L4.78728 10.6475C4.57589 11.011 4.65451 11.4673 4.96111 11.7412C5.47976 12.2045 5.89695 12.7708 6.18572 13.4043C6.48405 14.0589 6.63787 14.7698 6.63787 15.4883Z" fill="white"/>
<path d="M20.0022 15.4961C20.0022 14.5031 19.6323 13.548 18.969 12.8154L18.8323 12.6719C18.13 11.9697 17.1935 11.5557 16.2063 11.5068L16.009 11.502C15.2193 11.502 14.447 11.7362 13.7903 12.1748L13.55 12.3477C13.008 12.771 12.5831 13.3293 12.3186 13.9678L12.2161 14.2441C12.0005 14.8972 11.9573 15.5966 12.092 16.2744C12.2461 17.0491 12.6263 17.7608 13.1848 18.3193C13.7433 18.8779 14.455 19.259 15.2297 19.4131C15.9075 19.5478 16.6069 19.5036 17.26 19.2881L17.5374 19.1855C18.1758 18.9211 18.7332 18.4961 19.1565 17.9541L19.3293 17.7148C19.7133 17.1402 19.9406 16.4769 19.9915 15.791L20.0022 15.4961ZM21.7522 15.4961C21.7521 16.6319 21.4154 17.7421 20.7844 18.6865C20.1533 19.6311 19.2558 20.367 18.2063 20.8018C17.1568 21.2364 16.0021 21.3505 14.8879 21.1289C13.7738 20.9073 12.7507 20.3599 11.9475 19.5566C11.1443 18.7534 10.5969 17.7304 10.3752 16.6162C10.1536 15.5021 10.2677 14.3474 10.7024 13.2979C11.1371 12.2483 11.8731 11.3509 12.8176 10.7197C13.7621 10.0887 14.8731 9.75195 16.009 9.75195C17.5322 9.75207 18.9925 10.3576 20.0696 11.4346C21.1467 12.5117 21.7522 13.9728 21.7522 15.4961Z" fill="white"/>
</svg>
