<svg width="24" height="24" viewBox="0 0 24 24" fill="none" xmlns="http://www.w3.org/2000/svg">
<path d="M6.98851 12.5948C5.6705 13.9128 5.6705 16.0498 6.98851 17.3678C8.30653 18.6858 10.4435 18.6858 11.7615 17.3678C13.0795 16.0498 13.0795 13.9128 11.7615 12.5948L12.8221 11.5341C14.726 13.4379 14.726 16.5246 12.8221 18.4284C10.9183 20.3322 7.83166 20.3322 5.92785 18.4284C4.02405 16.5246 4.02405 13.4379 5.92785 11.5341C7.83166 9.63034 10.9183 9.63034 12.8221 11.5341L11.7615 12.5948C10.4435 11.2768 8.30653 11.2768 6.98851 12.5948Z" fill="#E6B97A"/>
<path d="M11.7615 11.5341L18.7956 4.5L19.8563 5.56066L12.8221 12.5948L11.7615 11.5341Z" fill="#E6B97A"/>
<path d="M16.7997 7.55667L17.8604 6.49601L19.7165 8.35216L18.6559 9.41282L16.7997 7.55667Z" fill="#E6B97A"/>
<path d="M14.6785 9.67799L15.7391 8.61733L17.5953 10.4735L16.5346 11.5341L14.6785 9.67799Z" fill="#E6B97A"/>
</svg>
