<svg width="32" height="32" viewBox="0 0 32 32" fill="none" xmlns="http://www.w3.org/2000/svg">
<path d="M6.0104 13.5459C4.25304 15.3032 4.25304 18.1525 6.0104 19.9098C7.76776 21.6672 10.617 21.6672 12.3744 19.9098C14.1317 18.1525 14.1317 15.3032 12.3744 13.5459L13.7886 12.1316C16.327 14.6701 16.327 18.7856 13.7886 21.324C11.2502 23.8624 7.1346 23.8624 4.59619 21.324C2.05778 18.7856 2.05778 14.6701 4.59619 12.1316C7.1346 9.59324 11.2502 9.59324 13.7886 12.1316L12.3744 13.5459C10.617 11.7885 7.76776 11.7885 6.0104 13.5459Z" fill="white"/>
<path d="M12.3744 12.1316L21.7532 2.75279L23.1674 4.167L13.7886 13.5458L12.3744 12.1316Z" fill="white"/>
<path d="M19.092 6.82835L20.5062 5.41414L22.9811 7.88901L21.5669 9.30322L19.092 6.82835Z" fill="white"/>
<path d="M16.2637 9.65678L17.6779 8.24257L20.1527 10.7174L18.7385 12.1317L16.2637 9.65678Z" fill="white"/>
<path d="M24.5468 27.9999L24.5468 15.4777L22.4532 15.4777L22.4532 27.9999L24.5468 27.9999Z" fill="white"/>
<path d="M29 19.4892L23.5011 13.9999L22.0207 15.4777L27.5196 20.967L29 19.4892Z" fill="white"/>
<path d="M18 19.4892L23.4989 13.9999L24.9793 15.4777L19.4804 20.967L18 19.4892Z" fill="white"/>
</svg>
