<svg width="46" height="46" viewBox="0 0 46 46" fill="none" xmlns="http://www.w3.org/2000/svg">
<path d="M40.2508 37.0797C40.9653 37.0797 41.5445 37.6589 41.5445 38.3734C41.5445 39.0879 40.9653 39.6672 40.2508 39.6672H5.75078C5.03626 39.6672 4.45703 39.0879 4.45703 38.3734C4.45703 37.6589 5.03626 37.0797 5.75078 37.0797H40.2508Z" fill="#336AFF"/>
<path d="M37.6914 38.1578H35.1039V8.92039H20.6014V38.37H18.0139V8.48914C18.0139 7.29827 18.9793 6.33289 20.1702 6.33289H35.5351C36.7257 6.3332 37.6914 7.29846 37.6914 8.48914V38.1578Z" fill="#336AFF"/>
<path d="M8.31077 21.1285C8.31127 19.801 9.74847 18.9721 10.8983 19.6359L19.3127 24.4926L18.019 26.7347L10.8983 22.6227V38.365H8.31077V21.1285Z" fill="#336AFF"/>
<path d="M31.2226 13.1369L31.2192 15.7244L24.5551 15.7193L24.5585 13.1318L31.2226 13.1369Z" fill="#336AFF"/>
<path d="M31.2226 20.0369L31.2192 22.6244L24.5551 22.6193L24.5585 20.0318L31.2226 20.0369Z" fill="#336AFF"/>
<path d="M31.2226 26.9369L31.2192 29.5244L24.5551 29.5193L24.5585 26.9318L31.2226 26.9369Z" fill="#336AFF"/>
</svg>
