<svg width="28" height="28" viewBox="0 0 28 28" fill="none" xmlns="http://www.w3.org/2000/svg">
<path d="M23.625 14C23.625 8.68426 19.3157 4.375 14 4.375C8.68426 4.375 4.375 8.68426 4.375 14C4.375 19.3157 8.68426 23.625 14 23.625V25.375C7.71776 25.375 2.625 20.2822 2.625 14C2.625 7.71776 7.71776 2.625 14 2.625C20.2822 2.625 25.375 7.71776 25.375 14C25.375 20.2822 20.2822 25.375 14 25.375V23.625C19.3157 23.625 23.625 19.3157 23.625 14Z" fill="#96A9E0"/>
<path d="M17.6401 19.0328L8.96909 10.3618L10.3612 8.96972L19.0322 17.6407L17.6401 19.0328Z" fill="#96A9E0"/>
<path d="M8.9678 17.638L17.6388 8.96705L19.0309 10.3592L10.3599 19.0301L8.9678 17.638Z" fill="#96A9E0"/>
</svg>
