<svg width="25" height="25" viewBox="0 0 25 25" fill="none" xmlns="http://www.w3.org/2000/svg">
<path d="M12.7271 7.50018C12.9043 7.50042 13.0481 7.65263 13.0484 7.84006V8.17767C13.0487 8.33691 13.1548 8.47205 13.2984 8.51984C13.3952 8.55201 13.4888 8.59024 13.5788 8.63314C13.9352 8.79967 14.2326 9.04289 14.4703 9.36213C14.647 9.59409 14.7881 9.86511 14.894 10.1724C14.9576 10.3577 14.8391 10.5509 14.6555 10.5855L13.9513 10.7183C13.7814 10.7502 13.6207 10.6307 13.5474 10.4653C13.5059 10.3717 13.4559 10.2837 13.3957 10.2033C13.2737 10.0369 13.1204 9.9082 12.9375 9.81646C12.7576 9.72134 12.5563 9.6711 12.3348 9.66425C12.1227 9.65747 11.9286 9.68901 11.7551 9.76038C11.5854 9.83166 11.4487 9.9315 11.346 10.0602C11.2466 10.1858 11.1965 10.3299 11.1964 10.4894C11.1965 10.666 11.2676 10.8203 11.4088 10.9494C11.5501 11.075 11.7758 11.1828 12.0837 11.2744L13.3089 11.6429C13.9218 11.8298 14.3636 12.0826 14.6335 12.4017C14.9066 12.7212 15.0446 13.1452 15.0447 13.672C15.0447 14.134 14.9333 14.5408 14.712 14.8908C14.4904 15.2407 14.1799 15.5153 13.7818 15.7125C13.6352 15.7856 13.4787 15.8439 13.3141 15.8887C13.1628 15.9298 13.0486 16.0702 13.0484 16.2355V16.5353C13.0481 16.7227 12.9043 16.8749 12.7271 16.8752H12.0586C11.8812 16.8752 11.7365 16.7229 11.7363 16.5353V16.2229C11.7359 16.0602 11.626 15.9223 11.4779 15.8784C11.3349 15.8361 11.1976 15.7829 11.0667 15.7182C10.6747 15.521 10.3546 15.2431 10.1072 14.8862C9.91725 14.6094 9.77987 14.2939 9.69599 13.9409C9.65344 13.7604 9.77552 13.5877 9.9492 13.5587L10.6398 13.4465C10.8062 13.4193 10.9625 13.5331 11.0258 13.6983C11.1265 13.9615 11.278 14.1815 11.481 14.3563C11.7605 14.5941 12.0938 14.7133 12.4792 14.7134C12.8422 14.7133 13.1433 14.6223 13.3811 14.4422C13.6215 14.2622 13.7419 14.0397 13.7421 13.775C13.742 13.595 13.69 13.4453 13.5841 13.3298C13.4812 13.2109 13.3171 13.1139 13.0954 13.0391L11.3805 12.4784C10.3906 12.1553 9.89584 11.5159 9.89584 10.5603C9.89596 10.112 9.99502 9.72261 10.194 9.39303C10.3965 9.06338 10.6816 8.80989 11.0478 8.63314C11.1797 8.56887 11.3207 8.51634 11.4695 8.47636C11.6217 8.43505 11.7362 8.29594 11.7363 8.1296V7.84006C11.7365 7.65248 11.8812 7.50018 12.0586 7.50018H12.7271Z" fill="#336AFF"/>
<path d="M21.0073 12.3262C21.0071 7.53223 17.1201 3.646 12.326 3.646C7.53217 3.64617 3.646 7.53234 3.64583 12.3262C3.64583 17.1202 7.53206 21.0073 12.326 21.0074V22.5699L11.7991 22.5567C6.38706 22.2823 2.08333 17.8065 2.08333 12.3262C2.0835 6.66939 6.66922 2.08367 12.326 2.0835C17.983 2.0835 22.5696 6.66929 22.5698 12.3262L22.5627 12.6975C22.4969 14.5446 21.9419 16.2676 21.0236 17.74L22.5698 22.5699L17.7399 21.0237C16.1693 22.0033 14.3134 22.5699 12.326 22.5699V21.0074C14.0127 21.0074 15.5831 20.5276 16.9128 19.6982L17.5262 19.3158L18.2159 19.5355L20.1558 20.156L19.5353 18.2161L19.3156 17.5264L19.6981 16.913C20.5274 15.5832 21.0073 14.0128 21.0073 12.3262Z" fill="#336AFF"/>
</svg>
