<svg width="32" height="32" viewBox="0 0 32 32" fill="none" xmlns="http://www.w3.org/2000/svg">
<path d="M14.0157 5.45793C13.4833 5.95409 12.9601 6.44106 12.4369 6.92573C10.0068 9.18141 7.57664 11.4394 5.1442 13.6905C4.58658 14.2073 4.0083 14.7035 3.3084 15.0067C2.47541 15.3673 1.9981 15.1422 1.72962 14.2441C1.35557 12.9876 1.55522 11.8161 2.27806 10.7365C2.89306 9.81768 3.66867 9.05279 4.46496 8.30855C5.73394 7.12328 7.01212 5.94949 8.30635 4.79638C8.87316 4.29103 9.49275 3.82934 10.25 3.67543C12.5172 3.21833 13.963 5.39131 14.018 5.45562L14.0157 5.45793Z" fill="#4779FF"/>
<path d="M3.10742 16.9364C4.48656 16.5389 5.5215 15.6638 6.52889 14.7427C9.74153 11.8117 12.9496 8.87837 16.176 5.96344C16.8874 5.32028 17.6355 4.70466 18.4271 4.16716C19.4346 3.48264 20.5292 3.38387 21.6077 4.03623C21.9978 4.27053 22.381 4.54387 22.6976 4.87005C23.7968 6.00709 24.8823 7.16249 25.9401 8.33857C27.0646 9.58815 28.1706 10.8561 29.2469 12.147C29.6162 12.5904 29.9192 13.1072 30.1694 13.6309C30.6352 14.6049 30.5159 15.5673 29.949 16.4747C29.4418 17.2878 28.7627 17.954 28.0629 18.5856C25.3228 21.0619 22.5829 23.5381 19.8109 25.9797C19.0674 26.6366 18.2482 27.2248 17.4036 27.7438C15.8134 28.7248 14.2186 28.603 12.7683 27.4408C11.9238 26.7653 11.1299 26.0096 10.4047 25.2057C8.06867 22.6169 5.7762 19.9914 3.46769 17.3774C3.35066 17.2465 3.2451 17.1041 3.10742 16.934V16.9364Z" fill="#4779FF"/>
</svg>
