<svg width="28" height="28" viewBox="0 0 28 28" fill="none" xmlns="http://www.w3.org/2000/svg">
<path d="M22.75 11.4391C22.75 6.56137 18.8225 2.625 14 2.625C9.17748 2.625 5.25 6.56137 5.25 11.4391C5.25003 12.9172 5.45245 14.335 6.9624 16.302L14.0615 24.4445L21.0906 16.1918C22.5371 14.3465 22.75 12.8955 22.75 11.4391ZM24.4966 11.7681C24.4586 13.4229 24.1024 15.1959 22.4543 17.2906L14.0778 27.125L5.60291 17.4052C3.90148 15.2032 3.5417 13.4622 3.50342 11.7758L3.5 11.4391C3.5 5.60488 8.20101 0.875 14 0.875C19.799 0.875 24.5 5.60488 24.5 11.4391L24.4966 11.7681Z" fill="#96A9E0"/>
<path d="M13.6234 11.8092L8.80237 9.30298L9.60901 7.75037L14.0276 10.0464L18.4453 7.75037L19.252 9.30298L14.0276 12.0186L13.6234 11.8092Z" fill="#96A9E0"/>
<path d="M19.25 7.99463V14.5392L14 17.5L8.75 14.5392V7.99463L14 5.25L19.25 7.99463ZM10.5 9.0542V13.5164L14 15.4902L17.5 13.5164V9.0542L14 7.22473L10.5 9.0542Z" fill="#96A9E0"/>
</svg>
