<svg width="28" height="28" viewBox="0 0 28 28" fill="none" xmlns="http://www.w3.org/2000/svg">
<path d="M9.22852 2.93878C11.8507 2.4101 13.3852 4.16539 13.5129 4.31451C13.5828 4.39614 13.6427 4.48312 13.6925 4.57392C14.0177 5.16578 13.9193 5.91961 13.4172 6.40802L13.4147 6.41058C13.4071 6.41794 13.3993 6.42559 13.3916 6.4328C12.9777 6.81856 12.5701 7.19809 12.162 7.57611C10.2752 9.32744 8.38631 11.0826 6.49585 12.8321C6.05483 13.2408 5.44138 13.7881 4.63818 14.136C4.53209 14.182 4.45611 14.2226 4.30322 14.3001C4.23908 14.3326 4.0661 14.4236 3.84692 14.4949C3.90169 14.5753 3.95729 14.6545 4.01347 14.7326C4.55461 15.4844 5.14873 16.1222 5.55591 16.4979L5.53444 16.5212L4.5177 17.6241C4.4036 17.5188 4.27842 17.3976 4.14561 17.2623C3.6375 16.7449 3.01784 16.0229 2.48059 15.2093C1.8168 14.2041 1.20322 12.946 1.20312 11.7084H1.23816C1.23725 10.7755 1.52292 9.88419 2.06531 9.07403C2.64859 8.20259 3.36469 7.5064 3.99133 6.92071C4.98328 5.9942 5.98584 5.07341 7.00256 4.16754C7.48204 3.74005 8.21944 3.14436 9.22681 2.93963L9.22852 2.93878ZM12.3491 5.31085C12.3063 5.26088 11.2931 4.08521 9.53186 4.44012C8.94355 4.55969 8.46147 4.91824 8.02112 5.31085C7.01567 6.20667 6.02307 7.11929 5.03723 8.0401L4.57751 8.4776C4.12471 8.92207 3.69682 9.39065 3.3385 9.92596L3.23767 10.084C2.75895 10.8787 2.63968 11.7358 2.91211 12.6509L2.95227 12.7697C3.15522 13.3065 3.42231 12.9931 4.02893 12.7304C4.57253 12.4949 5.02198 12.1098 5.45508 11.7084C7.34484 9.95955 9.23324 8.20489 11.1212 6.45245L12.3474 5.31256L12.3491 5.31085Z" fill="#96A9E0"/>
<path d="M13.4172 6.40802L13.4147 6.41058C13.4071 6.41794 13.3993 6.42559 13.3916 6.4328C12.9777 6.81856 12.5701 7.19809 12.162 7.57611C10.2752 9.32744 8.38631 11.0826 6.49585 12.8321C6.05483 13.2408 5.44138 13.7881 4.63818 14.136C4.53209 14.182 4.45611 14.2226 4.30322 14.3001C4.23908 14.3326 4.0661 14.4236 3.84692 14.4949C3.90169 14.5753 3.95729 14.6545 4.01347 14.7326C5.07161 14.4203 5.8692 13.7467 6.64533 13.037C7.89337 11.8984 9.14037 10.7592 10.3889 9.62164L14.1401 6.21649C14.5546 5.84178 14.985 5.47903 15.4338 5.14496L15.8892 4.82111C16.6719 4.28939 17.5218 4.21268 18.3596 4.71942L18.5851 4.86127C18.8084 5.00971 19.0218 5.17699 19.2064 5.36713C20.0602 6.2504 20.9037 7.14774 21.7254 8.06134C22.5991 9.03214 23.4587 10.0175 24.2949 11.0204L24.4 11.152L25.4706 10.0395C24.6201 9.01934 23.7485 8.02001 22.8644 7.03766C22.028 6.10762 21.1717 5.1961 20.3078 4.30243L20.3052 4.30072C20.0262 4.01325 19.7209 3.77722 19.4311 3.58466L19.1483 3.40607C18.4949 3.01188 17.7724 2.81115 17.0214 2.8515C16.2779 2.89147 15.6053 3.16223 15.0288 3.55389C14.5588 3.87299 14.1136 4.21875 13.6925 4.57392C14.0177 5.16578 13.9193 5.91961 13.4172 6.40802Z" fill="#96A9E0"/>
<path d="M10.5358 24.0976C11.2954 24.706 12.1761 25.1054 13.148 25.1717V23.6347C12.5795 23.5734 12.0237 23.3275 11.4929 22.9022C10.8369 22.3775 10.2199 21.7903 9.65656 21.1658C8.31314 19.6771 6.98831 18.1724 5.66323 16.6674L5.53444 16.5212L4.5177 17.6241C4.4036 17.5188 4.27842 17.3976 4.14561 17.2623C5.59218 18.9046 7.04604 20.5587 8.51923 22.1912C9.1345 22.8733 9.81123 23.518 10.5358 24.0976Z" fill="#96A9E0"/>
<path d="M20.5632 25.0101C23.9862 25.0101 26.7611 22.2352 26.7611 18.8122C26.7611 15.3892 23.9862 12.6143 20.5632 12.6143C17.1401 12.6143 14.3652 15.3892 14.3652 18.8122C14.3652 22.2352 17.1401 25.0101 20.5632 25.0101Z" fill="#4779FF"/>
<path d="M20.5625 14.1641V17.6007L23.6602 18.8987L20.5625 14.1641Z" fill="white" fill-opacity="0.602"/>
<path d="M20.561 14.1641L17.4629 18.8987L20.561 17.6007V14.1641Z" fill="white"/>
<path d="M20.5625 21.1256V23.4608L23.6623 19.4395L20.5625 21.1256Z" fill="white" fill-opacity="0.602"/>
<path d="M20.561 23.4608V21.1253L17.4629 19.4395L20.561 23.4608Z" fill="white"/>
<path d="M20.5625 20.5853L23.6602 18.8987L20.5625 17.6016V20.5853Z" fill="white" fill-opacity="0.2"/>
<path d="M17.4629 18.8987L20.561 20.5853V17.6016L17.4629 18.8987Z" fill="white" fill-opacity="0.602"/>
</svg>
