<svg width="32" height="32" viewBox="0 0 32 32" fill="none" xmlns="http://www.w3.org/2000/svg">
<path d="M27 16C27 9.92487 22.0751 5 16 5C9.92487 5 5 9.92487 5 16C5 22.0751 9.92487 27 16 27V29C8.8203 29 3 23.1797 3 16C3 8.8203 8.8203 3 16 3C23.1797 3 29 8.8203 29 16C29 23.1797 23.1797 29 16 29V27C22.0751 27 27 22.0751 27 16Z" fill="white"/>
<path d="M17.5 11.5C17.5 12.3284 16.8284 13 16 13C15.1716 13 14.5 12.3284 14.5 11.5C14.5 10.6716 15.1716 10 16 10C16.8284 10 17.5 10.6716 17.5 11.5Z" fill="white"/>
<path d="M17 15V21.5H15V15H17Z" fill="white"/>
</svg>
