<svg width="32" height="32" viewBox="0 0 32 32" fill="none" xmlns="http://www.w3.org/2000/svg">
<path d="M18.8284 13.1716C17.2663 11.6095 14.7337 11.6095 13.1716 13.1716C11.6095 14.7337 11.6095 17.2663 13.1716 18.8284L11.7574 20.2426C9.41423 17.8995 9.41423 14.1005 11.7574 11.7573C14.1005 9.4142 17.8995 9.4142 20.2427 11.7573L18.8284 13.1716Z" fill="white"/>
<path d="M29.207 4.70703L4.70703 29.207L3.29297 27.793L27.793 3.29297L29.207 4.70703Z" fill="white"/>
<path fill-rule="evenodd" clip-rule="evenodd" d="M21.2878 6.71223C19.6793 5.97047 17.9074 5.5 16 5.5C6.98926 5.5 1 16 1 16C1 16 2.81652 19.1846 5.95385 22.0462L7.36954 20.6305C7.08243 20.3707 6.80416 20.1051 6.53516 19.8359C5.32098 18.6211 4.36128 17.3992 3.70508 16.4795C3.58297 16.3083 3.47291 16.1469 3.37305 16C3.47291 15.8531 3.58297 15.6917 3.70508 15.5205C4.36128 14.6008 5.32098 13.3789 6.53516 12.1641C9.01455 9.6834 12.2808 7.5 16 7.5C17.3161 7.5 18.5755 7.77341 19.7634 8.23665L21.2878 6.71223ZM11.2891 25.539C12.7413 26.1341 14.318 26.5 16 26.5C25.0107 26.5 31 16 31 16C31 16 29.3481 13.104 26.4743 10.3539L25.0598 11.7684C25.197 11.8992 25.3321 12.0312 25.4648 12.1641C26.679 13.3789 27.6387 14.6008 28.2949 15.5205C28.4051 15.675 28.505 15.8219 28.5968 15.957L28.626 16L28.5968 16.043C28.505 16.1781 28.4051 16.325 28.2949 16.4795C27.6387 17.3992 26.679 18.6211 25.4648 19.8359C22.9854 22.3166 19.7192 24.5 16 24.5C14.9068 24.5 13.8527 24.3113 12.8462 23.9819L11.2891 25.539Z" fill="white"/>
</svg>
