<svg width="32" height="32" viewBox="0 0 32 32" fill="none" xmlns="http://www.w3.org/2000/svg">
<path d="M9.31802 16.7931C7.56066 18.5504 7.56066 21.3997 9.31802 23.157C11.0754 24.9144 13.9246 24.9144 15.682 23.157C17.4393 21.3997 17.4393 18.5504 15.682 16.7931L17.0962 15.3789C19.6346 17.9173 19.6346 22.0328 17.0962 24.5712C14.5578 27.1097 10.4422 27.1097 7.90381 24.5712C5.3654 22.0328 5.3654 17.9173 7.90381 15.3789C10.4422 12.8404 14.5578 12.8404 17.0962 15.3789L15.682 16.7931C13.9246 15.0357 11.0754 15.0357 9.31802 16.7931Z" fill="white"/>
<path d="M15.682 15.3788L25.0608 6L26.475 7.41421L17.0962 16.793L15.682 15.3788Z" fill="white"/>
<path d="M22.3996 10.0756L23.8139 8.66135L26.2887 11.1362L24.8745 12.5504L22.3996 10.0756Z" fill="white"/>
<path d="M19.5713 12.904L20.9855 11.4898L23.4604 13.9646L22.0461 15.3789L19.5713 12.904Z" fill="white"/>
</svg>
