<svg width="29" height="29" viewBox="0 0 29 29" fill="none" xmlns="http://www.w3.org/2000/svg">
<path d="M7.18662 10.1823H22.7595C23.0903 10.1823 23.3585 10.4504 23.3585 10.7812V21.5625C23.3585 21.8933 23.0903 22.1614 22.7595 22.1614H20.6124C20.0535 22.1614 19.5008 22.2786 18.9899 22.5053L15.7157 23.9583H22.7595C24.0827 23.9583 25.1554 22.8856 25.1554 21.5625V10.7812C25.1554 9.45803 24.0827 8.38538 22.7595 8.38538H7.18662C5.86344 8.38538 4.79079 9.45803 4.79079 10.7812V12.2109L6.58766 11.2032V10.7812C6.58766 10.4504 6.85583 10.1823 7.18662 10.1823Z" fill="#336AFF"/>
<path d="M7.18662 6.5885H19.1658C19.4966 6.5885 19.7647 6.85666 19.7647 7.18746H21.5616C21.5616 5.86428 20.489 4.79163 19.1658 4.79163H7.18662C5.86344 4.79163 4.79079 5.86428 4.79079 7.18746V10.7812L6.58766 10.4545V7.18746C6.58766 6.85666 6.85583 6.5885 7.18662 6.5885Z" fill="#336AFF"/>
<path d="M21.5616 16.1718C21.5616 16.8334 21.0253 17.3698 20.3637 17.3698C19.7021 17.3698 19.1658 16.8334 19.1658 16.1718C19.1658 15.5102 19.7021 14.9739 20.3637 14.9739C21.0253 14.9739 21.5616 15.5102 21.5616 16.1718Z" fill="#336AFF"/>
<path d="M16.3133 22.2755L10.7456 25.0069C10.1809 25.2839 9.51878 25.2791 8.95813 24.994L3.23047 22.0814V16.138L9.29926 19.1548C9.6382 19.3233 10.0368 19.3216 10.3744 19.1504L16.3133 16.138V22.2755ZM10.5682 20.7747L10.4002 20.8497C10.0582 20.979 9.68062 20.9832 9.33638 20.8628L9.16841 20.7925L4.75532 18.5814V21.1402L8.96043 23.2864C9.51973 23.5719 10.1806 23.5781 10.7452 23.3032L14.7884 21.3344V18.6552L10.5682 20.7747ZM15.7157 14.7788L10.3564 17.5908C10.0165 17.7692 9.61168 17.7738 9.26775 17.6033L3.7671 14.8764L9.38935 12.0543C9.67161 11.9126 10.0042 11.9126 10.2865 12.0542L15.7157 14.7788ZM7.20158 14.8586L9.81527 16.138L12.3694 14.805L9.83791 13.5351L7.20158 14.8586Z" fill="#336AFF"/>
</svg>
