<svg width="16" height="16" viewBox="0 0 16 16" fill="none" xmlns="http://www.w3.org/2000/svg">
<path d="M4.53818 1.80878C6.06747 1.70922 7.47241 2.36387 8.38715 3.4476L9.03124 4.21141L7.62274 4.09238C6.90388 3.24077 5.80225 2.7286 4.60315 2.80667C3.66733 2.86764 2.83621 3.27797 2.23045 3.90128L2.86142 4.51393C3.3213 4.04079 3.95022 3.73065 4.66029 3.68437L4.83019 3.67853C5.67265 3.67481 6.43816 4.05299 6.95052 4.66003L6.83088 6.06922L6.18611 5.30481C5.83545 4.88951 5.30395 4.64458 4.72526 4.68225C4.2716 4.71184 3.87203 4.90866 3.57815 5.21102L2.8817 5.9277L0.816059 3.92225L1.51311 3.20488C2.28463 2.41095 3.34548 1.88648 4.53818 1.80878Z" fill="#E6B97A"/>
<path d="M14.1092 7.80224L10.1018 3.79484C9.45091 3.14396 8.39563 3.14396 7.74476 3.79484L6.53632 5.00327C6.22378 5.31582 6.04836 5.73978 6.04835 6.18178V9.70535C6.04837 10.1473 6.22379 10.5713 6.53632 10.8839L8.78194 13.1295C9.43281 13.7803 10.4881 13.7803 11.139 13.1295L14.1092 10.1593C14.76 9.5084 14.76 8.45311 14.1092 7.80224ZM13.4021 8.50934C13.6624 8.7697 13.6624 9.19181 13.4021 9.45215L10.4319 12.4224C10.1715 12.6827 9.74939 12.6827 9.48905 12.4224L7.24343 10.1768C7.11843 10.0518 7.04826 9.88213 7.04824 9.70535V6.18178C7.04826 6.00499 7.11842 5.83539 7.24343 5.71038L8.45187 4.50195C8.71221 4.2416 9.13432 4.2416 9.39467 4.50195L13.4021 8.50934Z" fill="#E6B97A"/>
<path d="M7.95082 9.19045C7.95083 9.41224 8.03985 9.62469 8.19711 9.78109L9.76508 11.3408L10.1173 10.9858L10.4699 10.6314L8.95163 9.12048L8.95117 7.73987H7.95128L7.95082 9.19045Z" fill="#E6B97A"/>
<path d="M13.6554 9.29287L16 11.6375L15.2929 12.3446L13.6554 10.7071L13.1264 11.236L14.7639 12.8735L14.0568 13.5806L11.7122 11.236L13.6554 9.29287Z" fill="#E6B97A"/>
<path d="M3.02279 10.1861C3.02279 9.81628 2.76959 9.33848 2.42643 8.89115C2.32236 8.75549 2.21636 8.63367 2.1224 8.52917C2.02858 8.63352 1.92354 8.75576 1.81966 8.89115C1.4765 9.33848 1.22266 9.81628 1.22266 10.1861C1.22274 10.6832 1.62595 11.0858 2.12305 11.0858C2.62004 11.0857 3.0227 10.6831 3.02279 10.1861ZM4.02279 10.1861C4.0227 11.2354 3.17233 12.0857 2.12305 12.0858C1.07366 12.0858 0.222739 11.2354 0.222656 10.1861C0.222656 9.45801 0.66914 8.74836 1.02604 8.28308C1.21506 8.03668 1.40273 7.82833 1.54297 7.68217C1.61326 7.60892 1.67265 7.55047 1.71484 7.50964C1.73596 7.48922 1.75292 7.47277 1.76497 7.46147C1.77089 7.45592 1.7758 7.45167 1.7793 7.44845C1.78101 7.44686 1.78277 7.44553 1.78385 7.44454L1.78581 7.44259L2.12305 7.13529L2.45964 7.44193L2.46029 7.44259L2.46159 7.44454C2.46268 7.44554 2.46439 7.44682 2.46615 7.44845C2.46963 7.45167 2.47454 7.45591 2.48047 7.46147C2.49252 7.47277 2.50948 7.48921 2.5306 7.50964C2.57279 7.55047 2.63213 7.60886 2.70247 7.68217C2.84272 7.82834 3.03034 8.03663 3.2194 8.28308C3.57631 8.74836 4.02279 9.45796 4.02279 10.1861Z" fill="#E6B97A"/>
</svg>
