<svg width="32" height="32" viewBox="0 0 32 32" fill="none" xmlns="http://www.w3.org/2000/svg">
<path d="M23.75 15.88L27.7489 19.8671L27.75 19.866L27.7511 19.8671L31.75 15.88L30.27 14.4L28.7497 15.9155C28.7043 8.91277 23.0134 3.25 16 3.25C8.95837 3.25 3.25 8.95837 3.25 16C3.25 23.0416 8.95837 28.75 16 28.75C19.7022 28.75 23.0373 27.1709 25.3652 24.6523L23.8965 23.2949C21.9312 25.4211 19.1215 26.75 16 26.75C10.0629 26.75 5.25 21.9371 5.25 16C5.25 10.0629 10.0629 5.25 16 5.25C21.9087 5.25 26.704 10.017 26.7497 15.9149L25.23 14.4L23.75 15.88Z" fill="white"/>
<path d="M17.3231 9.54498L15.2314 9.54683L15.2254 16.2867L12 19.5196L13.4778 21L17.315 17.1543L17.3231 9.54498Z" fill="white"/>
</svg>
