<svg width="32" height="32" viewBox="0 0 32 32" fill="none" xmlns="http://www.w3.org/2000/svg">
<path d="M26 13.0732C26 7.49871 21.5114 3 16 3C10.4886 3 6 7.49871 6 13.0732C6.00003 14.7625 6.23138 16.3829 7.95703 18.6309L16.0703 27.9365L24.1035 18.5049C25.7566 16.396 26 14.7377 26 13.0732ZM27.9961 13.4492C27.9526 15.3404 27.5457 17.3668 25.6621 19.7607L16.0889 31L6.40332 19.8916C4.45884 17.375 4.04766 15.3854 4.00391 13.458L4 13.0732C4 6.40557 9.37258 1 16 1C22.6274 1 28 6.40557 28 13.0732L27.9961 13.4492Z" fill="white"/>
<path d="M15.5691 13.4962L10.0593 10.632L10.9812 8.85754L16.031 11.4816L21.0798 8.85754L22.0017 10.632L16.031 13.7355L15.5691 13.4962Z" fill="white"/>
<path d="M22 9.13672V16.6162L16 20L10 16.6162V9.13672L16 6L22 9.13672ZM12 10.3477V15.4473L16 17.7031L20 15.4473V10.3477L16 8.25684L12 10.3477Z" fill="white"/>
</svg>
