<svg width="32" height="32" viewBox="0 0 32 32" fill="none" xmlns="http://www.w3.org/2000/svg">
<path d="M10.5469 3.35916C13.5437 2.75496 15.2974 4.76101 15.4434 4.93143C16.0438 5.63283 15.9958 6.6802 15.334 7.324L15.3311 7.32693C15.3224 7.33535 15.3135 7.34409 15.3047 7.35232C14.8317 7.7932 14.3658 8.22694 13.8994 8.65897C11.7431 10.6605 9.58435 12.6664 7.42383 14.6658C6.9198 15.1329 6.21872 15.7583 5.30078 16.156C5.17953 16.2085 5.0927 16.255 4.91797 16.3435C4.84466 16.3807 4.64697 16.4846 4.39648 16.5662C5.06199 17.5424 5.83596 18.3813 6.34961 18.8553L5.16309 20.1424C4.53377 19.5618 3.60944 18.5554 2.83496 17.3826C2.07635 16.2338 1.37511 14.796 1.375 13.3816H1.41504C1.414 12.3154 1.74048 11.2968 2.36035 10.3709C3.02696 9.37495 3.84536 8.5793 4.56152 7.90994C5.69518 6.85107 6.84095 5.79874 8.00293 4.76346C8.5509 4.2749 9.39364 3.59412 10.5449 3.36014L10.5469 3.35916ZM14.1133 6.0701C14.0644 6.013 12.9064 4.66937 10.8936 5.07498C10.2212 5.21163 9.67025 5.62141 9.16699 6.0701C8.01791 7.0939 6.88351 8.13689 5.75684 9.18924L5.23145 9.68924C4.71395 10.1972 4.22494 10.7327 3.81543 11.3445L3.7002 11.5252C3.15309 12.4334 3.01678 13.4129 3.32812 14.4588L3.37402 14.5945C3.60596 15.208 3.91121 14.8498 4.60449 14.5496C5.22575 14.2804 5.7394 13.8404 6.23438 13.3816C8.39411 11.3829 10.5523 9.37757 12.71 7.37479L14.1113 6.07205L14.1133 6.0701Z" fill="white"/>
<path d="M19.4531 3.25942C20.3113 3.2133 21.137 3.44271 21.8837 3.89321L22.207 4.09731C22.5382 4.31738 22.8871 4.58713 23.206 4.91567L23.2089 4.91762C24.1963 5.93896 25.1748 6.98069 26.1308 8.0436C27.1412 9.16628 28.1373 10.3084 29.1093 11.4743L29.1103 11.4752C29.5597 12.0146 29.9018 12.61 30.164 13.1588C30.8717 14.6393 30.6448 16.1265 29.873 17.3629L29.874 17.3639C29.2873 18.3044 28.5293 19.031 27.8867 19.611C25.4559 21.8077 23.015 24.0123 20.5449 26.1881L20.5458 26.1891C19.7986 26.8493 18.9873 27.4285 18.1679 27.9323C17.2053 28.526 16.1404 28.8442 15.0263 28.7682C13.9155 28.6924 12.909 28.236 12.0409 27.5407C11.2128 26.8782 10.4394 26.1415 9.73626 25.362C7.65386 23.0543 5.60524 20.709 3.56439 18.3981L3.56536 18.3971C3.44346 18.2598 3.29584 18.0705 3.22259 17.9782C2.95736 17.6652 2.80657 17.2658 2.80657 16.8473V16.8454C2.80667 16.1041 3.2738 15.4433 3.97259 15.1959C4.01594 15.1806 4.05957 15.1667 4.10345 15.1549C4.88403 14.9214 5.53499 14.4118 6.414 13.608L6.41497 13.6071C9.26537 11.0066 12.1185 8.39807 14.9872 5.80629C15.657 5.20083 16.3857 4.59853 17.1757 4.06215C17.8347 3.61454 18.6033 3.3051 19.4531 3.25942ZM20.9824 5.39418C20.0249 4.81505 19.0536 4.90272 18.1591 5.51039L17.6386 5.88051C17.1257 6.26231 16.6338 6.67687 16.1601 7.10512L11.873 10.9967C10.4461 12.2967 9.02099 13.5987 7.59466 14.9C6.70052 15.7176 5.78144 16.4933 4.55755 16.8463L4.55657 16.8454V16.8473L4.55755 16.8463C4.67942 16.997 4.77319 17.1229 4.87689 17.2389C6.92657 19.5598 8.96193 21.8916 11.0361 24.1901C11.6798 24.9037 12.385 25.5748 13.1347 26.1745C14.4223 27.2062 15.8381 27.3139 17.2499 26.443C17.9997 25.9822 18.7276 25.4607 19.3876 24.8776C21.8487 22.7097 24.281 20.5107 26.7138 18.3122C27.3351 17.7515 27.9383 17.1599 28.3886 16.4381C28.8604 15.6828 28.9834 14.8842 28.6562 14.0748L28.5849 13.9127C28.3905 13.5058 28.1599 13.1036 27.8857 12.7457L27.7656 12.5954C26.81 11.4492 25.8275 10.323 24.829 9.21352C23.89 8.1694 22.926 7.14387 21.9501 6.13442C21.7392 5.91712 21.4953 5.72594 21.2402 5.55629L20.9824 5.39418Z" fill="white"/>
</svg>
