<svg width="32" height="32" viewBox="0 0 32 32" fill="none" xmlns="http://www.w3.org/2000/svg">
<path d="M15.9993 29.3337C23.3631 29.3337 29.3327 23.3641 29.3327 16.0003C29.3327 8.63653 23.3631 2.66699 15.9993 2.66699C8.63555 2.66699 2.66602 8.63653 2.66602 16.0003C2.66602 23.3641 8.63555 29.3337 15.9993 29.3337Z" fill="#4779FF"/>
<path d="M16 6V13.3932L22.664 16.1855L16 6Z" fill="white" fill-opacity="0.602"/>
<path d="M15.9989 6L9.33398 16.1855L15.9989 13.3932V6Z" fill="white"/>
<path d="M16 20.977V26.0006L22.6684 17.3496L16 20.977Z" fill="white" fill-opacity="0.602"/>
<path d="M15.9989 26.0006V20.9762L9.33398 17.3496L15.9989 26.0006Z" fill="white"/>
<path d="M16 19.8143L22.664 16.1861L16 13.3955V19.8143Z" fill="white" fill-opacity="0.2"/>
<path d="M9.33398 16.1854L15.9989 19.8136V13.3948L9.33398 16.1854Z" fill="white" fill-opacity="0.602"/>
</svg>
