<svg width="32" height="32" viewBox="0 0 32 32" fill="none" xmlns="http://www.w3.org/2000/svg">
<path d="M10.5469 3.35916C13.5437 2.75496 15.2974 4.76101 15.4434 4.93143C15.5232 5.02472 15.5916 5.12413 15.6486 5.22789C16.0202 5.9043 15.9078 6.76583 15.334 7.324L15.3311 7.32693C15.3224 7.33535 15.3135 7.34409 15.3047 7.35232C14.8317 7.7932 14.3658 8.22694 13.8994 8.65897C11.7431 10.6605 9.58435 12.6664 7.42383 14.6658C6.9198 15.1329 6.21872 15.7583 5.30078 16.156C5.17953 16.2085 5.0927 16.255 4.91797 16.3435C4.84466 16.3807 4.64697 16.4846 4.39648 16.5662C4.45907 16.658 4.52262 16.7486 4.58682 16.8378C5.20527 17.697 5.88427 18.4259 6.34961 18.8553L6.32507 18.8819L5.16309 20.1424C5.03269 20.0221 4.88962 19.8835 4.73784 19.7289C4.15714 19.1376 3.44896 18.3124 2.83496 17.3826C2.07635 16.2338 1.37511 14.796 1.375 13.3816H1.41504C1.414 12.3154 1.74048 11.2968 2.36035 10.3709C3.02696 9.37495 3.84536 8.5793 4.56152 7.90994C5.69518 6.85107 6.84095 5.79874 8.00293 4.76346C8.5509 4.2749 9.39364 3.59412 10.5449 3.36014L10.5469 3.35916ZM14.1133 6.0701C14.0644 6.013 12.9064 4.66937 10.8936 5.07498C10.2212 5.21163 9.67025 5.62141 9.16699 6.0701C8.01791 7.0939 6.88351 8.13689 5.75684 9.18924L5.23145 9.68924C4.71395 10.1972 4.22494 10.7327 3.81543 11.3445L3.7002 11.5252C3.15309 12.4334 3.01678 13.4129 3.32812 14.4588L3.37402 14.5945C3.60596 15.208 3.91121 14.8498 4.60449 14.5496C5.22575 14.2804 5.7394 13.8404 6.23438 13.3816C8.39411 11.3829 10.5523 9.37757 12.71 7.37479L14.1113 6.07205L14.1133 6.0701Z" fill="white"/>
<path d="M15.0263 28.7682C16.1404 28.8442 17.2053 28.526 18.1679 27.9323L16.8633 26.6571C15.5807 27.2865 14.3048 27.112 13.1347 26.1745C12.385 25.5748 11.6798 24.9037 11.0361 24.1901C9.50073 22.4887 7.98665 20.769 6.47227 19.0491L6.32507 18.8819L5.16309 20.1424C5.03269 20.0221 4.88962 19.8835 4.73784 19.7289C6.39106 21.6058 8.05262 23.4962 9.73626 25.362C10.4394 26.1415 11.2128 26.8782 12.0409 27.5407C12.909 28.236 13.9155 28.6924 15.0263 28.7682Z" fill="white"/>
<path d="M15.334 7.324L15.3311 7.32693C15.3224 7.33535 15.3135 7.34409 15.3047 7.35232C14.8317 7.7932 14.3658 8.22694 13.8994 8.65897C11.7431 10.6605 9.58435 12.6664 7.42383 14.6658C6.9198 15.1329 6.21872 15.7583 5.30078 16.156C5.17953 16.2085 5.0927 16.255 4.91797 16.3435C4.84466 16.3807 4.64697 16.4846 4.39648 16.5662C4.45907 16.658 4.52262 16.7486 4.58682 16.8378C5.79612 16.4809 6.70766 15.7111 7.59466 14.9C9.02099 13.5987 10.4461 12.2967 11.873 10.9967L16.1601 7.10512C16.6338 6.67687 17.1257 6.26231 17.6386 5.88051L18.1591 5.51039C19.0536 4.90272 20.0249 4.81505 20.9824 5.39418L21.2402 5.55629C21.4953 5.72594 21.7392 5.91712 21.9501 6.13442C22.926 7.14387 23.89 8.1694 24.829 9.21352C25.8275 10.323 26.81 11.4492 27.7656 12.5954L27.8857 12.7457L29.1093 11.4743C28.1373 10.3084 27.1412 9.16628 26.1308 8.0436C25.1748 6.98069 24.1963 5.93896 23.2089 4.91762L23.206 4.91567C22.8871 4.58713 22.5382 4.31738 22.207 4.09731L21.8837 3.89321C21.137 3.44271 20.3113 3.2133 19.4531 3.25942C18.6033 3.3051 17.8347 3.61454 17.1757 4.06215C16.6386 4.42683 16.1298 4.82199 15.6486 5.22789C16.0202 5.9043 15.9078 6.76583 15.334 7.324Z" fill="white"/>
<path d="M25.5468 29L25.5468 16.4778L23.4532 16.4778L23.4532 29L25.5468 29Z" fill="white"/>
<path d="M30 20.4893L24.5011 15L23.0207 16.4778L28.5196 21.9671L30 20.4893Z" fill="white"/>
<path d="M19 20.4893L24.4989 15L25.9793 16.4778L20.4804 21.9671L19 20.4893Z" fill="white"/>
</svg>
