<svg width="32" height="32" viewBox="0 0 32 32" fill="none" xmlns="http://www.w3.org/2000/svg">
<path d="M16 5.5C25.0103 5.5 30.9994 15.999 31 16L30.7246 16.4512C29.4548 18.4613 23.8841 26.5 16 26.5V24.5C19.7192 24.5 22.9854 22.3166 25.4648 19.8359C26.679 18.6211 27.6387 17.3992 28.2949 16.4795C28.4169 16.3085 28.5262 16.1468 28.626 16C28.5262 15.8532 28.4169 15.6915 28.2949 15.5205C27.6387 14.6008 26.679 13.3789 25.4648 12.1641C22.9854 9.6834 19.7192 7.5 16 7.5C12.2808 7.5 9.01455 9.6834 6.53516 12.1641C5.32098 13.3789 4.36128 14.6008 3.70508 15.5205C3.58297 15.6917 3.47291 15.8531 3.37305 16C3.47291 16.1469 3.58297 16.3083 3.70508 16.4795C4.36128 17.3992 5.32098 18.6211 6.53516 19.8359C9.01455 22.3166 12.2808 24.5 16 24.5V26.5L15.5801 26.4922C7.91838 26.2148 2.52254 18.4254 1.27539 16.4512L1 16C1 16 6.98926 5.5 16 5.5Z" fill="white"/>
<path d="M20 16C20 13.7909 18.2091 12 16 12C13.7909 12 12 13.7909 12 16C12 18.2091 13.7909 20 16 20V22C12.6863 22 10 19.3137 10 16C10 12.6863 12.6863 10 16 10C19.3137 10 22 12.6863 22 16C22 19.3137 19.3137 22 16 22V20C18.2091 20 20 18.2091 20 16Z" fill="white"/>
</svg>
