<svg width="229" height="160" viewBox="0 0 229 160" fill="none" xmlns="http://www.w3.org/2000/svg">
<rect width="229" height="138" fill="#F8F8F8"/>
<path d="M102.167 159.476C106.693 146.76 106.02 132.78 100.297 120.612C94.5736 108.444 84.2684 99.0848 71.6485 94.5933C59.0285 90.1017 45.1276 90.8458 33.0036 96.6617C20.8797 102.478 11.5259 112.889 7 125.605L102.167 159.476Z" fill="url(#paint0_linear_12270_20949)"/>
<path d="M52.2891 38.4434L34.5177 27.7884L47.5635 23.6238L52.2891 38.4434Z" fill="#DBFBAA"/>
<path d="M153.555 59.5933L152.934 59.2354L153.293 58.6148L153.913 58.9727L153.555 59.5933ZM152.122 62.0758L151.501 61.7178L152.218 60.4766L152.838 60.8346L152.122 62.0758ZM150.689 64.5582L150.068 64.2002L150.784 62.959L151.405 63.317L150.689 64.5582ZM149.255 67.0406L148.635 66.6827L149.351 65.4414L149.972 65.7994L149.255 67.0406ZM147.822 69.5231L147.201 69.1651L147.918 67.9239L148.539 68.2818L147.822 69.5231ZM146.389 72.0055L145.768 71.6475L146.485 70.4063L147.106 70.7643L146.389 72.0055ZM144.956 74.4879L144.335 74.13L145.051 72.8887L145.672 73.2467L144.956 74.4879ZM143.522 76.9703L142.902 76.6124L143.618 75.3712L144.239 75.7291L143.522 76.9703ZM142.089 79.4528L141.468 79.0948L142.185 77.8536L142.806 78.2116L142.089 79.4528ZM140.656 81.9352L140.035 81.5772L140.752 80.336L141.373 80.694L140.656 81.9352ZM139.223 84.4176L138.602 84.0597L139.319 82.8185L139.939 83.1764L139.223 84.4176ZM137.79 86.9001L137.169 86.5421L137.885 85.3009L138.506 85.6589L137.79 86.9001ZM136.356 89.3825L135.735 89.0245L136.452 87.7833L137.073 88.1413L136.356 89.3825ZM134.923 91.8649L134.302 91.507L135.019 90.2658L135.64 90.6237L134.923 91.8649ZM133.49 94.3474L132.869 93.9894L133.586 92.7482L134.206 93.1061L133.49 94.3474ZM132.057 96.8298L131.436 96.4718L132.152 95.2306L132.773 95.5886L132.057 96.8298ZM130.623 99.3122L130.003 98.9543L130.719 97.713L131.34 98.071L130.623 99.3122ZM129.19 101.795L128.569 101.437L129.286 100.195L129.907 100.553L129.19 101.795ZM127.757 104.277L127.136 103.919L127.853 102.678L128.474 103.036L127.757 104.277ZM126.324 106.76L125.703 106.402L126.419 105.16L127.04 105.518L126.324 106.76ZM125.249 108.621L124.628 108.263L124.986 107.643L125.607 108.001L125.249 108.621ZM156.038 61.0252L154.797 60.3093L155.155 59.6887L156.397 60.4046L156.038 61.0252ZM127.732 110.053L126.49 109.337L126.849 108.717L128.09 109.433L127.732 110.053ZM158.522 62.4571L157.28 61.7411L157.638 61.1205L158.88 61.8364L158.522 62.4571ZM130.215 111.485L128.974 110.769L129.332 110.149L130.573 110.864L130.215 111.485ZM161.005 63.8889L159.763 63.173L160.121 62.5524L161.363 63.2683L161.005 63.8889ZM132.698 112.917L131.457 112.201L131.815 111.58L133.057 112.296L132.698 112.917ZM163.488 65.3208L162.246 64.6048L162.605 63.9842L163.846 64.7002L163.488 65.3208ZM135.182 114.349L133.94 113.633L134.298 113.012L135.54 113.728L135.182 114.349ZM165.971 66.7526L164.73 66.0367L165.088 65.4161L166.329 66.132L165.971 66.7526ZM137.665 115.781L136.423 115.065L136.782 114.444L138.023 115.16L137.665 115.781ZM168.454 68.1845L167.213 67.4686L167.571 66.848L168.813 67.5639L168.454 68.1845ZM140.148 117.212L138.906 116.497L139.265 115.876L140.506 116.592L140.148 117.212ZM170.938 69.6164L169.696 68.9004L170.054 68.2798L171.296 68.9957L170.938 69.6164ZM142.631 118.644L141.39 117.928L141.748 117.308L142.99 118.024L142.631 118.644ZM173.421 71.0482L172.179 70.3323L172.538 69.7117L173.779 70.4276L173.421 71.0482ZM145.115 120.076L143.873 119.36L144.231 118.74L145.473 119.456L145.115 120.076ZM175.904 72.4801L174.662 71.7641L175.021 71.1435L176.262 71.8595L175.904 72.4801ZM147.598 121.508L146.356 120.792L146.714 120.172L147.956 120.887L147.598 121.508ZM178.387 73.9119L177.146 73.196L177.504 72.5754L178.746 73.2913L178.387 73.9119ZM150.081 122.94L148.839 122.224L149.198 121.603L150.439 122.319L150.081 122.94ZM180.871 75.3438L179.629 74.6279L179.987 74.0073L181.229 74.7232L180.871 75.3438ZM152.564 124.372L151.323 123.656L151.681 123.035L152.922 123.751L152.564 124.372ZM183.354 76.7756L182.112 76.0597L182.47 75.4391L183.712 76.155L183.354 76.7756ZM155.047 125.804L153.806 125.088L154.164 124.467L155.406 125.183L155.047 125.804ZM185.837 78.2075L184.595 77.4916L184.954 76.871L186.195 77.5869L185.837 78.2075ZM157.531 127.236L156.289 126.52L156.647 125.899L157.889 126.615L157.531 127.236ZM188.32 79.6394L187.079 78.9234L187.437 78.3028L188.679 79.0188L188.32 79.6394ZM160.014 128.667L158.772 127.951L159.131 127.331L160.372 128.047L160.014 128.667ZM190.803 81.0712L189.562 80.3553L189.92 79.7347L191.162 80.4506L190.803 81.0712ZM162.497 130.099L161.255 129.383L161.614 128.763L162.855 129.479L162.497 130.099ZM193.287 82.5031L192.045 81.7872L192.403 81.1666L193.645 81.8825L193.287 82.5031ZM164.98 131.531L163.739 130.815L164.097 130.195L165.339 130.91L164.98 131.531ZM195.77 83.9349L194.528 83.219L194.887 82.5984L196.128 83.3143L195.77 83.9349ZM167.464 132.963L166.222 132.247L166.58 131.626L167.822 132.342L167.464 132.963ZM198.253 85.3668L197.011 84.6509L197.37 84.0303L198.611 84.7462L198.253 85.3668ZM169.947 134.395L168.705 133.679L169.063 133.058L170.305 133.774L169.947 134.395ZM200.736 86.7987L199.495 86.0827L199.853 85.4621L201.095 86.1781L200.736 86.7987ZM172.43 135.827L171.188 135.111L171.547 134.49L172.788 135.206L172.43 135.827ZM202.599 87.8726L201.978 87.5146L202.336 86.894L202.957 87.252L202.599 87.8726ZM201.165 90.355L200.545 89.997L201.261 88.7558L201.882 89.1138L201.165 90.355ZM199.732 92.8374L199.111 92.4795L199.828 91.2382L200.449 91.5962L199.732 92.8374ZM198.299 95.3199L197.678 94.9619L198.395 93.7207L199.016 94.0786L198.299 95.3199ZM196.866 97.8023L196.245 97.4443L196.962 96.2031L197.582 96.5611L196.866 97.8023ZM195.433 100.285L194.812 99.9267L195.528 98.6855L196.149 99.0435L195.433 100.285ZM193.999 102.767L193.379 102.409L194.095 101.168L194.716 101.526L193.999 102.767ZM192.566 105.25L191.945 104.892L192.662 103.65L193.283 104.008L192.566 105.25ZM191.133 107.732L190.512 107.374L191.229 106.133L191.849 106.491L191.133 107.732ZM189.7 110.214L189.079 109.856L189.795 108.615L190.416 108.973L189.7 110.214ZM188.266 112.697L187.646 112.339L188.362 111.098L188.983 111.456L188.266 112.697ZM186.833 115.179L186.212 114.821L186.929 113.58L187.55 113.938L186.833 115.179ZM185.4 117.662L184.779 117.304L185.496 116.063L186.117 116.421L185.4 117.662ZM183.967 120.144L183.346 119.786L184.063 118.545L184.683 118.903L183.967 120.144ZM182.533 122.627L181.913 122.269L182.629 121.027L183.25 121.385L182.533 122.627ZM181.1 125.109L180.479 124.751L181.196 123.51L181.817 123.868L181.1 125.109ZM179.667 127.591L179.046 127.233L179.763 125.992L180.384 126.35L179.667 127.591ZM178.234 130.074L177.613 129.716L178.33 128.475L178.95 128.833L178.234 130.074ZM176.801 132.556L176.18 132.198L176.896 130.957L177.517 131.315L176.801 132.556ZM175.367 135.039L174.747 134.681L175.463 133.44L176.084 133.798L175.367 135.039ZM174.292 136.901L173.672 136.543L174.03 135.922L174.651 136.28L174.292 136.901Z" fill="#F8EE76"/>
<path d="M175.836 120.15H48.8359V124.15H175.836V120.15Z" fill="#F8F8F8"/>
<path d="M177.836 123.691H46.8164V126.492H177.836V123.691Z" fill="#EEEEEE"/>
<path d="M99.6146 81.375L62.7656 61.375V120.096H99.6146V81.375Z" fill="#EEEEEE"/>
<path d="M95.8281 120.17L157.557 119.972V18H95.8281V120.17Z" fill="#DBDBDC"/>
<path d="M142.293 35.375H112.293V42.375H142.293V35.375Z" fill="#F8F8F8"/>
<path d="M142.293 51.375H112.293V58.375H142.293V51.375Z" fill="#F8F8F8"/>
<path d="M142.293 67.375H112.293V74.375H142.293V67.375Z" fill="#F8F8F8"/>
<path d="M95.8359 71.9004H88.8359V120.9H95.8359V71.9004Z" fill="#F8F8F8"/>
<path d="M110.638 93.7251H112.146C114.134 93.7251 116.042 94.5115 117.448 95.9112C118.854 97.311 119.644 99.2094 119.644 101.189V120.094H102.68V101.641C102.68 99.5397 103.518 97.5247 105.01 96.0391C106.503 94.5534 108.527 93.7187 110.638 93.7188V93.7251Z" fill="#DBDBDC"/>
<path d="M101.325 67.7539H102.034C102.972 67.7539 103.871 68.1246 104.534 68.7845C105.197 69.4444 105.569 70.3394 105.569 71.2727V80.181H97.5664V71.489C97.5664 70.998 97.6637 70.5118 97.8526 70.0582C98.0416 69.6046 98.3185 69.1926 98.6676 68.8456C99.0167 68.4987 99.4311 68.2237 99.887 68.0364C100.343 67.8491 100.832 67.7531 101.325 67.7539Z" fill="#DBDBDC"/>
<path d="M197.386 38.5415C195.566 39.0331 193.668 39.1657 191.801 38.9317C189.933 38.6977 188.133 38.1017 186.504 37.1778C184.874 36.2538 183.446 35.0199 182.301 33.5466C181.157 32.0734 180.318 30.3895 179.834 28.5912L193.695 24.8477L197.386 38.5415Z" fill="#FFE5E5"/>
<circle cx="108.573" cy="92.5749" r="24.9265" fill="#0D0E0F"/>
<circle cx="101.926" cy="85.9265" r="24.9265" fill="#A1C6FF"/>
<circle cx="101.511" cy="86.1339" r="2.07721" fill="white"/>
<circle cx="112.312" cy="86.1339" r="2.07721" fill="white"/>
<circle cx="90.71" cy="86.1339" r="2.07721" fill="white"/>
<defs>
<linearGradient id="paint0_linear_12270_20949" x1="71.6485" y1="94.5933" x2="54.5836" y2="142.541" gradientUnits="userSpaceOnUse">
<stop stop-color="#EEEEEE"/>
<stop offset="1" stop-color="white" stop-opacity="0"/>
</linearGradient>
</defs>
</svg>
