<svg width="280" height="240" viewBox="0 0 280 240" fill="none" xmlns="http://www.w3.org/2000/svg">
<circle cx="139.999" cy="120" r="83.425" fill="#293155"/>
<path d="M174.074 60.4761H211.999C210.066 81.2416 204.101 109.251 193.951 130.499C184.285 153.803 157.453 181.222 140.053 190.274C123.136 180.74 95.7144 153.32 86.0479 130.499C75.898 109.251 69.9333 81.7245 68 60.4761H106.408C110.275 60.4761 114.625 59.0274 118.008 56.6128L140.053 41.7637L162.474 56.6128C165.858 59.0274 169.724 60.4761 174.074 60.4761Z" fill="#4779FF"/>
<path d="M174.074 60.4761H211.999C210.066 81.2415 204.101 109.251 193.951 130.499C184.285 153.803 157.453 181.222 140.053 190.274V41.7637L162.474 56.6128C165.858 59.0274 169.724 60.4761 174.074 60.4761Z" fill="#6B94FF"/>
<path d="M129.92 97.8018H140.054V168.507L129.92 159.08V97.8018Z" fill="#A9C4FF"/>
<circle cx="140.054" cy="94.5019" r="24.747" fill="white"/>
<circle cx="140.051" cy="84.8388" r="6.27928" fill="#13182A"/>
<path fill-rule="evenodd" clip-rule="evenodd" d="M140.051 97.8018H150.185V123.681L144.175 129.691L150.185 135.701V135.73L144.175 141.74L150.185 147.75V147.779L144.175 153.789L149.813 159.427L140.051 168.507V97.8018Z" fill="white"/>
</svg>
