<svg width="280" height="240" viewBox="0 0 280 240" fill="none" xmlns="http://www.w3.org/2000/svg">
<circle cx="139.999" cy="120" r="83.425" fill="#293155"/>
<path d="M240.234 105.868L240.234 137.568L39.6025 137.568L39.6025 105.868L240.234 105.868Z" fill="white"/>
<path d="M194.291 122.298C194.291 152.072 170.154 176.208 140.381 176.208C110.607 176.208 86.4707 152.072 86.4707 122.298V112.297H194.291V122.298Z" fill="#6B94FF"/>
<path d="M178.501 150.936C157.448 171.989 123.314 171.989 102.261 150.936C81.2075 129.882 81.2075 95.7485 102.261 74.6953C123.314 53.6422 157.448 53.6422 178.501 74.6953C199.554 95.7485 199.554 129.882 178.501 150.936Z" fill="#A9C4FF"/>
<path d="M149.358 132.418C147.323 134.025 144.203 135.119 140.381 135.119C134.024 135.119 129.323 131.794 128.153 127.987L128.143 127.952L119.842 130.459C121.997 137.585 128.59 142.148 136.044 143.411V150.169H144.718V143.432C148.469 142.829 151.921 141.433 154.724 139.217L154.723 139.216C158.617 136.15 161.107 131.503 161.107 126.123C161.107 120.083 157.81 115.947 153.796 113.575C151.883 112.439 149.822 111.596 147.82 110.864C145.703 110.091 143.902 109.523 141.939 108.768L141.938 108.767L140.372 108.182C138.802 107.61 137.242 107.075 135.925 106.592C134.076 105.912 132.556 105.283 131.384 104.589C130.142 103.85 129.452 103.251 129.031 102.599C128.632 101.98 128.328 101.087 128.328 99.4911C128.328 96.8118 129.412 94.7855 131.401 93.2151C133.44 91.6113 136.563 90.5117 140.381 90.5117C146.752 90.5117 151.463 93.8588 152.619 97.6803L160.917 95.1612C158.758 88.0407 152.168 83.4808 144.718 82.2127V75.4619H136.044V82.1903C132.293 82.7947 128.843 84.1971 126.043 86.4097C122.147 89.4748 119.656 94.1161 119.656 99.4989C119.656 105.54 122.952 109.674 126.962 112.054C128.877 113.19 130.939 114.034 132.942 114.767C135.052 115.539 136.864 116.114 138.819 116.87L138.825 116.871C140.895 117.666 143.081 118.402 144.837 119.047C146.685 119.726 148.204 120.354 149.376 121.048C150.62 121.787 151.31 122.386 151.732 123.039C152.131 123.657 152.434 124.548 152.434 126.139C152.434 128.816 151.352 130.837 149.358 132.418Z" fill="#4779FF"/>
<rect x="111" y="118" width="20.5" height="19.5684" fill="#A9C4FF"/>
<path d="M225.858 43.998L65.3906 204.466L56.9062 195.98L217.373 35.5137L225.858 43.998Z" fill="#E6B97A"/>
<path d="M228.898 93.7832L256.833 121.718L228.898 149.653V93.7832Z" fill="white"/>
</svg>
