<svg width="280" height="240" viewBox="0 0 280 240" fill="none" xmlns="http://www.w3.org/2000/svg">
<circle cx="139.999" cy="120" r="83.425" fill="#293155"/>
<path d="M169.766 77.0112H202.895C201.206 95.1507 195.996 119.618 187.13 138.179C178.685 158.536 155.246 182.489 140.047 190.396C125.269 182.067 101.315 158.114 92.8711 138.179C84.0047 119.618 78.7943 95.5726 77.1055 77.0112H110.657C114.034 77.0112 117.834 75.7457 120.79 73.6364L140.047 60.665L159.633 73.6364C162.589 75.7457 165.966 77.0112 169.766 77.0112Z" fill="#4779FF"/>
<path d="M169.766 77.0112H202.895C201.207 95.1507 195.996 119.618 187.13 138.179C178.686 158.536 155.246 182.489 140.047 190.396V60.665L159.633 73.6364C162.589 75.7457 165.966 77.0112 169.766 77.0112Z" fill="#6B94FF"/>
<path d="M131.195 109.617H140.048V171.382L131.195 163.147V109.617Z" fill="#A9C4FF"/>
<circle cx="140.047" cy="106.735" r="21.6176" fill="white"/>
<circle cx="140.044" cy="98.2938" r="5.48523" fill="#13182A"/>
<path fill-rule="evenodd" clip-rule="evenodd" d="M140.045 109.617H148.898V132.224L143.648 137.474L148.898 142.724V142.749L143.648 147.999L148.898 153.249V153.275L143.648 158.525L148.572 163.449L140.045 171.382V109.617Z" fill="white"/>
<path d="M210.397 56.6729L76.6738 190.396L69.6035 183.325L203.326 49.6025L210.397 56.6729Z" fill="#E6B97A"/>
</svg>
