<svg width="280" height="240" viewBox="0 0 280 240" fill="none" xmlns="http://www.w3.org/2000/svg">
<circle cx="139.999" cy="115" r="83.425" fill="#293155"/>
<path d="M105.518 95.1445L121.523 104.385L57.0522 216.052L49.6427 191.923L105.518 95.1445Z" fill="#6B94FF"/>
<circle cx="124.536" cy="99.1756" r="45.1297" transform="rotate(30 124.536 99.1756)" fill="#4779FF"/>
<path fill-rule="evenodd" clip-rule="evenodd" d="M121.523 104.385L137.529 113.626L113.932 154.497L98.9597 158.509L102.971 173.481L102.945 173.527L87.9732 177.538L91.9849 192.51L91.9584 192.556L76.9865 196.568L80.7494 210.611L57.0525 216.052L121.523 104.385Z" fill="#4779FF"/>
<path d="M132.02 96.4521H150.501V225.394L132.02 208.202V96.4521Z" fill="#A9C4FF"/>
<circle cx="150.501" cy="90.4344" r="45.1297" fill="white"/>
<circle cx="150.5" cy="72.8125" r="11.4512" fill="#13182A"/>
<path fill-rule="evenodd" clip-rule="evenodd" d="M150.5 96.4521H168.982V143.647L158.021 154.607L168.982 165.567V165.62L158.021 176.58L168.982 187.54V187.593L158.021 198.554L168.302 208.834L150.5 225.394V96.4521Z" fill="white"/>
<path d="M164.015 47.5999C163.036 53.565 160.285 58.9841 156.288 63.2524C158.309 64.5232 159.906 66.4082 160.815 68.6457C165.693 63.6665 169.159 57.3345 170.628 50.3231C168.514 49.2483 166.305 48.3352 164.015 47.5999Z" fill="#A9C4FF"/>
<path fill-rule="evenodd" clip-rule="evenodd" d="M164.335 40.5889C163.167 24.032 148.797 11.5571 132.24 12.7255C115.683 13.894 103.208 28.2635 104.377 44.8204C104.694 49.316 105.982 53.5032 108.02 57.1987C105.841 58.0358 103.724 59.0424 101.69 60.2125C99.2891 55.7384 97.7743 50.6972 97.3943 45.3132C95.9536 24.8999 111.334 7.18356 131.747 5.74289C152.161 4.30231 169.877 19.6828 171.318 40.0961C171.566 43.608 171.316 47.04 170.628 50.3231C168.514 49.2483 166.305 48.3352 164.015 47.5999C164.388 45.3308 164.504 42.9827 164.335 40.5889ZM160.815 68.6457C160.208 69.2647 159.58 69.8629 158.931 70.4389C153.898 74.905 147.62 78.0358 140.621 79.2277C139.438 77.4258 138.751 75.2702 138.751 72.954C138.751 72.7801 138.754 72.6071 138.762 72.4351C144.595 71.577 149.837 69.0652 154.039 65.418C154.826 64.7348 155.577 64.0119 156.288 63.2524C158.309 64.5232 159.906 66.4082 160.815 68.6457Z" fill="#A9C4FF"/>
</svg>
