<svg width="120" height="120" viewBox="0 0 120 120" fill="none" xmlns="http://www.w3.org/2000/svg">
<path d="M22.1772 46.8925C21.8301 47.2161 21.4889 47.5336 21.1477 47.8497C19.563 49.3206 17.9783 50.7931 16.392 52.2611C16.0284 52.5981 15.6513 52.9216 15.1949 53.1194C14.6517 53.3545 14.3404 53.2077 14.1654 52.6221C13.9214 51.8027 14.0516 51.0388 14.523 50.3347C14.9241 49.7356 15.4298 49.2368 15.9491 48.7514C16.7766 47.9785 17.6101 47.2131 18.4541 46.4611C18.8237 46.1316 19.2278 45.8305 19.7216 45.7301C21.2001 45.432 22.1428 46.8491 22.1788 46.891L22.1772 46.8925Z" fill="#4779FF"/>
<path d="M15.0645 54.374C15.9638 54.1148 16.6387 53.5441 17.2956 52.9435C19.3906 51.0321 21.4826 49.1193 23.5866 47.2184C24.0505 46.799 24.5383 46.3976 25.0546 46.0471C25.7116 45.6007 26.4254 45.5363 27.1287 45.9617C27.3831 46.1145 27.6329 46.2927 27.8394 46.5054C28.5562 47.2469 29.2641 48.0004 29.9539 48.7673C30.6872 49.5822 31.4084 50.409 32.1102 51.2508C32.3511 51.5399 32.5487 51.877 32.7119 52.2185C33.0156 52.8536 32.9378 53.4812 32.5681 54.0729C32.2374 54.6032 31.7945 55.0376 31.3382 55.4495C29.5513 57.0643 27.7646 58.679 25.957 60.2713C25.4721 60.6996 24.9379 61.0832 24.3871 61.4217C23.3501 62.0613 22.3102 61.9819 21.3644 61.224C20.8137 60.7835 20.296 60.2907 19.8231 59.7665C18.2997 58.0784 16.8048 56.3662 15.2994 54.6616C15.2231 54.5762 15.1542 54.4834 15.0645 54.3725V54.374Z" fill="#4779FF"/>
<path d="M46.0586 46.0103H48.3302V58.3261H46.0586V57.2881C45.3897 58.1449 44.438 58.5718 43.2064 58.5718C41.9749 58.5718 41.0082 58.1224 40.1687 57.2252C39.3292 56.3279 38.9102 55.2285 38.9102 53.9268C38.9102 52.6251 39.3292 51.5256 40.1687 50.6284C41.0082 49.7311 42.0198 49.2817 43.2064 49.2817C44.3931 49.2817 45.3897 49.7101 46.0586 50.5655V46.0088V46.0103ZM41.8761 55.7138C42.34 56.1767 42.9236 56.4088 43.6284 56.4088C44.3332 56.4088 44.9139 56.1767 45.3718 55.7138C45.8297 55.2509 46.0586 54.6548 46.0586 53.9283C46.0586 53.2018 45.8297 52.6056 45.3718 52.1428C44.9139 51.6799 44.3332 51.4477 43.6284 51.4477C42.9236 51.4477 42.34 51.6799 41.8761 52.1428C41.4122 52.6056 41.1803 53.2018 41.1803 53.9283C41.1803 54.6548 41.4122 55.2509 41.8761 55.7138Z" fill="black"/>
<path d="M55.9202 49.531H58.3505L55.1407 58.3433C54.6828 59.6001 54.0767 60.5123 53.3194 61.0815C52.5638 61.6507 51.6226 61.9068 50.4972 61.8469V59.7363C51.1078 59.7483 51.5911 59.6194 51.9503 59.3498C52.3079 59.0803 52.5937 58.6458 52.8047 58.0482L49.1953 49.5325H51.6779L53.9734 55.4448L55.9218 49.5325L55.9202 49.531Z" fill="black"/>
<path d="M64.1229 49.2827C65.085 49.2827 65.8811 49.6048 66.5082 50.2504C67.1367 50.896 67.4494 51.7873 67.4494 52.9242V58.3257H65.1779V53.2058C65.1779 52.6201 65.0192 52.1707 64.702 51.8592C64.3847 51.5491 63.9628 51.3933 63.4345 51.3933C62.8479 51.3933 62.378 51.5746 62.0264 51.9386C61.6747 52.3026 61.4981 52.8478 61.4981 53.5743V58.3242H59.2266V49.5269H61.4981V50.5125C62.0503 49.6917 62.9242 49.2812 64.1214 49.2812L64.1229 49.2827Z" fill="black"/>
<path d="M75.7188 49.5306H77.9904V58.3279H75.7188V57.2898C75.038 58.1466 74.0817 58.5735 72.8486 58.5735C71.6156 58.5735 70.6684 58.1242 69.8288 57.2269C68.9893 56.3296 68.5703 55.2302 68.5703 53.9285C68.5703 52.6268 68.9893 51.5273 69.8288 50.6301C70.6684 49.7328 71.6739 49.2834 72.8486 49.2834C74.0817 49.2834 75.038 49.7119 75.7188 50.5672V49.5291V49.5306ZM71.5272 55.7155C71.9852 56.1783 72.5658 56.4105 73.2707 56.4105C73.9755 56.4105 74.5591 56.1783 75.0229 55.7155C75.4868 55.2526 75.7188 54.6565 75.7188 53.93C75.7188 53.2035 75.4868 52.6073 75.0229 52.1445C74.5591 51.6816 73.9755 51.4494 73.2707 51.4494C72.5658 51.4494 71.9852 51.6816 71.5272 52.1445C71.0694 52.6073 70.8404 53.2035 70.8404 53.93C70.8404 54.6565 71.0694 55.2526 71.5272 55.7155Z" fill="black"/>
<path d="M89.1665 49.2834C90.1766 49.2834 90.9831 49.6115 91.5876 50.2691C92.1923 50.9267 92.4946 51.8059 92.4946 52.9084V58.3279H90.2229V53.0672C90.2229 52.5399 90.0943 52.1295 89.8354 51.8359C89.5765 51.5423 89.2128 51.3955 88.743 51.3955C88.2267 51.3955 87.8241 51.5663 87.5369 51.9063C87.2495 52.2463 87.1059 52.7391 87.1059 53.3847V58.3294H84.8343V53.0687C84.8343 52.5414 84.7057 52.131 84.4467 51.8374C84.1879 51.5438 83.8243 51.397 83.3543 51.397C82.85 51.397 82.4475 51.5678 82.1482 51.9078C81.8489 52.2478 81.6992 52.7406 81.6992 53.3863V58.3309H79.4277V49.5336H81.6992V50.4668C82.2275 49.6804 83.043 49.2879 84.1474 49.2879C85.2518 49.2879 86.0255 49.7104 86.5418 50.5552C87.1283 49.7104 88.0037 49.2879 89.165 49.2879L89.1665 49.2834Z" fill="black"/>
<path d="M95.0597 48.4732C94.6841 48.4732 94.3578 48.3354 94.0825 48.0597C93.8072 47.7841 93.668 47.4591 93.668 47.0831C93.668 46.7071 93.8057 46.3791 94.0825 46.0975C94.3578 45.8159 94.6841 45.675 95.0597 45.675C95.435 45.675 95.778 45.8159 96.0546 46.0975C96.3305 46.3791 96.468 46.7071 96.468 47.0831C96.468 47.4591 96.3305 47.7841 96.0546 48.0597C95.7796 48.3354 95.4472 48.4732 95.0597 48.4732ZM93.9329 58.3265V49.5292H96.2043V58.3265H93.9329Z" fill="black"/>
<path d="M101.97 58.5735C100.643 58.5735 99.5368 58.1287 98.6514 57.2359C97.7656 56.3446 97.3223 55.2422 97.3223 53.9285C97.3223 52.6148 97.7656 51.5123 98.6514 50.6211C99.5368 49.7298 100.644 49.2834 101.97 49.2834C102.828 49.2834 103.608 49.4887 104.312 49.8991C105.017 50.3095 105.551 50.8608 105.915 51.5528L103.96 52.6957C103.784 52.3317 103.518 52.0441 103.16 51.8329C102.803 51.6217 102.4 51.5168 101.954 51.5168C101.273 51.5168 100.709 51.743 100.263 52.1939C99.817 52.6463 99.5937 53.223 99.5937 53.927C99.5937 54.631 99.817 55.1912 100.263 55.6421C100.709 56.0945 101.273 56.3192 101.954 56.3192C102.412 56.3192 102.819 56.2173 103.178 56.0106C103.536 55.8054 103.803 55.5208 103.979 55.1568L105.951 56.2832C105.564 56.9752 105.017 57.5295 104.314 57.946C103.609 58.3623 102.83 58.5705 101.972 58.5705L101.97 58.5735Z" fill="black"/>
<path d="M69.872 65.9C68.0677 65.9 67.0526 67.0092 67.0526 68.9769C67.0526 70.9446 68.0677 72.0514 69.872 72.0514C71.2123 72.0514 72.2169 71.4795 72.534 70.2172C72.5595 70.1151 72.4808 70.0153 72.3778 70.0153H71.5769C71.5016 70.0153 71.4368 70.0663 71.4206 70.1394C71.3523 70.4318 71.0641 71.1465 69.872 71.1465C69.0005 71.1465 68.3778 70.5745 68.2065 69.5593C68.1903 69.4607 68.2667 69.3702 68.3662 69.3702H72.5305C72.6197 69.3702 72.6914 69.2983 72.6914 69.2089V69.0326C72.6914 67.0208 71.6764 65.9 69.872 65.9ZM71.3917 68.5349H68.3651C68.2655 68.5349 68.1892 68.4455 68.2054 68.3481C68.3662 67.3689 68.96 66.8178 69.8847 66.8178C70.8095 66.8178 71.3917 67.3689 71.5514 68.3481C71.5676 68.4467 71.4912 68.5349 71.3917 68.5349Z" fill="#4779FF"/>
<path d="M66.6986 66.0451H66.0897C65.5365 66.0451 65.0261 66.3409 64.7495 66.8212C64.6731 66.9558 64.4682 66.9001 64.4682 66.7458V66.1994C64.4682 66.11 64.3965 66.0381 64.3074 66.0381H63.422C63.3329 66.0381 63.2611 66.11 63.2611 66.1994V71.7544C63.2611 71.8438 63.3329 71.9157 63.422 71.9157H64.3074C64.3965 71.9157 64.4682 71.8438 64.4682 71.7544V68.2947C64.4682 67.6276 65.0076 67.0869 65.6719 67.0869H66.2715C66.3259 67.0869 66.3756 67.0568 66.4023 67.0103L66.8305 66.2725C66.8895 66.1715 66.8166 66.0462 66.6997 66.0462L66.6986 66.0451Z" fill="#4779FF"/>
<path d="M61.802 66.0358H60.9502C60.8614 66.0358 60.7893 66.108 60.7893 66.197V71.7544C60.7893 71.8435 60.8614 71.9157 60.9502 71.9157H61.802C61.8909 71.9157 61.9629 71.8435 61.9629 71.7544V66.197C61.9629 66.108 61.8909 66.0358 61.802 66.0358Z" fill="#4779FF"/>
<path d="M61.8401 64.0263H60.9096C60.8156 64.0263 60.7395 64.1027 60.7395 64.1968V65.1888C60.7395 65.283 60.8156 65.3594 60.9096 65.3594H61.8401C61.9341 65.3594 62.0103 65.283 62.0103 65.1888V64.1968C62.0103 64.1027 61.9341 64.0263 61.8401 64.0263Z" fill="#4779FF"/>
<path d="M59.6685 64.0263H54.5691C54.48 64.0263 54.4082 64.0982 54.4082 64.1876V71.7521C54.4082 71.8414 54.48 71.9134 54.5691 71.9134H55.4638C55.5529 71.9134 55.6246 71.8414 55.6246 71.7521V68.2843C55.6246 68.2007 55.6929 68.1334 55.7751 68.1334L58.6199 68.1288C58.6686 68.1288 58.7137 68.1079 58.7438 68.0696L59.157 67.3526C59.2438 67.247 59.1686 67.0881 59.0331 67.0881H56.5667C56.4429 67.0881 56.3248 67.1333 56.2311 67.2169C56.12 67.3166 55.973 67.4477 55.9047 67.5092C55.7959 67.6055 55.6258 67.5278 55.6258 67.3828V65.2828C55.6258 65.1935 55.6975 65.1215 55.7867 65.1215H59.2322C59.2866 65.1215 59.3364 65.0925 59.363 65.0461L59.797 64.285C59.878 64.1795 59.8028 64.0251 59.6685 64.0251V64.0263Z" fill="#4779FF"/>
<path d="M94.3495 69.8238H93.5058C93.432 69.8238 93.3693 69.8737 93.3508 69.9445C93.1726 70.6499 92.6472 71.0455 91.8996 71.0455C90.8392 71.0455 90.2062 70.31 90.2062 68.9757C90.2062 67.6415 90.8266 66.9059 91.8996 66.9059C92.9721 66.9059 93.2626 67.6635 93.3406 67.9629C93.3587 68.0325 93.4236 68.0824 93.4956 68.0824H94.3462C94.4479 68.0824 94.5244 67.9884 94.5059 67.8886C94.2548 66.6089 93.315 65.9 91.8541 65.9C90.0382 65.9 89.0348 67.008 89.0348 68.9746C89.0348 70.9411 90.0396 72.0491 91.8541 72.0491C93.3183 72.0491 94.2687 71.3182 94.5091 70.0141C94.5277 69.9143 94.4502 69.8227 94.3495 69.8227V69.8238Z" fill="#4779FF"/>
<path d="M97.9057 68.7669C97.8463 68.7008 97.851 68.5998 97.916 68.5407L100.39 66.2759C100.484 66.1912 100.424 66.0358 100.297 66.0358H99.2377C99.1982 66.0358 99.1592 66.0509 99.1291 66.0775L96.8903 68.1276C96.8152 68.1972 96.694 68.1427 96.694 68.0406V64.1864C96.694 64.0971 96.623 64.0263 96.5339 64.0263H95.68C95.5909 64.0263 95.5204 64.0971 95.5204 64.1864V71.7556C95.5204 71.8449 95.5909 71.9157 95.68 71.9157H96.5339C96.623 71.9157 96.694 71.8449 96.694 71.7556V69.3099C96.694 69.2008 96.8281 69.1498 96.8996 69.231L99.2298 71.8623C99.2599 71.896 99.3036 71.9169 99.349 71.9169H100.423C100.542 71.9169 100.605 71.7753 100.525 71.686L97.9043 68.7669H97.9057Z" fill="#4779FF"/>
<path d="M103.7 68.4467C102.481 68.2193 102.2 68.0603 102.2 67.5742C102.2 67.0881 102.707 66.7829 103.34 66.7829C104.451 66.7829 104.653 67.4338 104.688 67.7285C104.698 67.8097 104.768 67.8689 104.848 67.8689H105.664C105.759 67.8689 105.833 67.7877 105.825 67.6937C105.734 66.5671 104.854 65.9024 103.34 65.9024C101.986 65.9024 101.05 66.5579 101.05 67.6218C101.05 68.5256 101.525 69.1138 103.351 69.4201C104.615 69.6243 104.783 69.8378 104.783 70.3367C104.783 70.8912 104.298 71.1732 103.509 71.1732C102.31 71.1743 102.115 70.4562 102.089 70.1359C102.083 70.0512 102.013 69.9863 101.928 69.9863H101.104C101.01 69.9863 100.935 70.0663 100.943 70.1603C101.035 71.4841 102.068 72.0549 103.484 72.0549C104.901 72.0549 105.954 71.4214 105.954 70.2694C105.954 69.2751 105.458 68.7889 103.699 68.449L103.7 68.4467Z" fill="#4779FF"/>
<path d="M81.3587 64.0263H80.5069C80.418 64.0263 80.346 64.0985 80.346 64.1876V71.7533C80.346 71.8423 80.418 71.9145 80.5069 71.9145H81.3587C81.4476 71.9145 81.5196 71.8423 81.5196 71.7533V64.1876C81.5196 64.0985 81.4476 64.0263 81.3587 64.0263Z" fill="#4779FF"/>
<path d="M85.4234 65.9C83.6074 65.9 82.5241 67.2227 82.5241 68.9746C82.5241 70.7265 83.6074 72.0491 85.4234 72.0491C87.2393 72.0491 88.3225 70.7265 88.3225 68.9746C88.3225 67.2227 87.2393 65.9 85.4234 65.9ZM85.4234 71.0896C84.2614 71.0896 83.7197 70.1963 83.7197 68.9746C83.7197 67.7529 84.2602 66.8595 85.4234 66.8595C86.5868 66.8595 87.127 67.7529 87.127 68.9746C87.127 70.1963 86.5868 71.0896 85.4234 71.0896Z" fill="#4779FF"/>
<path d="M76.943 65.9105C76.1514 65.9116 75.5136 66.2121 75.1375 66.7365C75.0739 66.8236 74.9361 66.7771 74.9361 66.6704V64.1887C74.9361 64.0994 74.8644 64.0275 74.7752 64.0275H73.9246C73.8354 64.0275 73.7637 64.0994 73.7637 64.1887V71.7533C73.7637 71.8426 73.8354 71.9145 73.9246 71.9145H74.7301C74.8192 71.9145 74.891 71.8426 74.891 71.7533V71.1198C74.891 71.0142 75.0275 70.9782 75.0842 71.0664C75.4627 71.6639 76.1132 72.0398 76.921 72.0398C78.5229 72.0398 79.5032 70.9086 79.5032 68.9757C79.5032 67.0428 78.5113 65.9116 76.943 65.9116V65.9105ZM76.6166 71.0676C75.5669 71.0676 74.9465 70.2647 74.9465 68.9757C74.9465 67.6867 75.5669 66.8723 76.6166 66.8723C77.6664 66.8723 78.3099 67.6856 78.3099 68.9757C78.3099 70.2659 77.678 71.0676 76.6166 71.0676Z" fill="#4779FF"/>
<path d="M47.3987 72.056H46.6612L44.8457 66.1558H45.8669L47.5122 71.6816L49.2823 66.1558H50.3148L47.6143 74.3254H46.6725L47.3987 72.056Z" fill="black"/>
<path d="M38.9102 63.887H39.8746V67.2115C40.041 66.8182 40.2907 66.5232 40.6235 66.3265C40.9563 66.1223 41.3875 66.0201 41.917 66.0201C42.7264 66.0201 43.3581 66.2925 43.8119 66.8371C44.2734 67.3742 44.5041 68.1306 44.5041 69.1064C44.5041 70.0823 44.2734 70.8425 43.8119 71.3871C43.3581 71.9242 42.7264 72.1927 41.917 72.1927C41.3573 72.1927 40.9072 72.0868 40.5668 71.875C40.2339 71.6557 39.9881 71.3266 39.8292 70.8879V72.0566H38.9102V63.887ZM39.7839 69.1064C39.7839 69.8175 39.9427 70.3659 40.2604 70.7517C40.5857 71.1375 41.0471 71.3304 41.6447 71.3304C42.2423 71.3304 42.7 71.1375 43.0177 70.7517C43.3429 70.3659 43.5056 69.8175 43.5056 69.1064C43.5056 68.3954 43.3429 67.847 43.0177 67.4612C42.7 67.0754 42.2423 66.8825 41.6447 66.8825C41.0471 66.8825 40.5857 67.0754 40.2604 67.4612C39.9427 67.847 39.7839 68.3954 39.7839 69.1064Z" fill="black"/>
</svg>
