<svg width="120" height="120" viewBox="0 0 120 120" fill="none" xmlns="http://www.w3.org/2000/svg">
<path d="M21.4908 56.5855C22.0549 57.4015 22.4508 57.9846 22.6784 58.3349H22.7219C23.0359 57.8502 23.4288 57.2701 23.9006 56.5945L25.469 54.3467C25.5002 54.3025 25.5415 54.2666 25.5892 54.2419C25.637 54.2172 25.6899 54.2044 25.7435 54.2047H27.3852C27.4457 54.2033 27.5054 54.219 27.5576 54.25C27.6098 54.281 27.6525 54.3262 27.6808 54.3804C27.7091 54.4346 27.722 54.4957 27.718 54.5569C27.714 54.6181 27.6933 54.6769 27.6582 54.7269L24.0994 59.7097C24.0593 59.7655 24.0377 59.8328 24.0377 59.9018C24.0377 59.9709 24.0593 60.0382 24.0994 60.094L27.8272 65.2669C27.8624 65.3168 27.8833 65.3756 27.8874 65.4368C27.8916 65.498 27.8789 65.5591 27.8507 65.6135C27.8226 65.6678 27.7801 65.7131 27.7281 65.7444C27.676 65.7757 27.6164 65.7917 27.5559 65.7907H25.9505C25.897 65.7908 25.8443 65.7779 25.7967 65.7533C25.749 65.7286 25.7079 65.6927 25.6767 65.6487L23.9513 63.201C23.5031 62.5662 23.0898 61.966 22.7114 61.4003H22.6768C22.2806 61.9894 21.8673 62.5896 21.4369 63.201L19.7114 65.6487C19.6802 65.6927 19.6391 65.7286 19.5915 65.7533C19.5439 65.7779 19.4912 65.7908 19.4377 65.7907H17.833C17.7724 65.792 17.7126 65.7762 17.6604 65.7449C17.6082 65.7137 17.5655 65.6683 17.5374 65.6139C17.5092 65.5595 17.4965 65.4982 17.5008 65.4369C17.5051 65.3756 17.5262 65.3167 17.5617 65.2669L21.2895 60.094C21.3296 60.0382 21.3512 59.9709 21.3512 59.9018C21.3512 59.8328 21.3296 59.7655 21.2895 59.7097L17.7308 54.7269C17.6957 54.6769 17.6749 54.6181 17.6709 54.5569C17.6669 54.4957 17.6798 54.4346 17.7082 54.3804C17.7365 54.3262 17.7791 54.281 17.8313 54.25C17.8835 54.219 17.9432 54.2033 18.0037 54.2047H19.6454C19.699 54.2046 19.7519 54.2174 19.7996 54.242C19.8474 54.2667 19.8886 54.3026 19.92 54.3467L21.4908 56.5855Z" fill="#0D0E0F"/>
<path d="M41.9722 57.6854C41.9722 58.4937 41.7468 59.1794 41.2959 59.7424C40.845 60.3053 40.1473 60.7223 39.2026 60.9932V61.0274L42.2951 65.2653C42.3307 65.3151 42.3519 65.3741 42.3563 65.4354C42.3607 65.4968 42.3482 65.5582 42.3201 65.6128C42.292 65.6673 42.2495 65.7129 42.1973 65.7443C42.1451 65.7757 42.0853 65.7918 42.0246 65.7907H40.2855C40.2322 65.7908 40.1797 65.778 40.1322 65.7535C40.0848 65.7289 40.0438 65.6933 40.0125 65.6496L37.0335 61.446C37.0024 61.4022 36.9614 61.3665 36.9139 61.3419C36.8664 61.3174 36.8139 61.3047 36.7606 61.3048H35.8008C35.7132 61.304 35.6288 61.3384 35.5662 61.4005C35.5036 61.4626 35.4678 61.5473 35.4667 61.6361V65.4595C35.4657 65.5483 35.4299 65.633 35.3672 65.6951C35.3046 65.7572 35.2202 65.7916 35.1326 65.7907H33.6624C33.5748 65.7916 33.4904 65.7572 33.4277 65.6951C33.3651 65.633 33.3293 65.5483 33.3283 65.4595V54.5352C33.3288 54.4913 33.3379 54.4479 33.3549 54.4075C33.372 54.3671 33.3968 54.3305 33.4278 54.2998C33.4588 54.2691 33.4955 54.245 33.5358 54.2286C33.576 54.2123 33.619 54.2042 33.6624 54.2047H36.883C37.4317 54.2021 37.9801 54.2353 38.5246 54.3043C38.9678 54.3556 39.4041 54.4557 39.8257 54.6029C40.5123 54.8624 41.042 55.2478 41.4151 55.7591C41.7881 56.2704 41.9739 56.9125 41.9722 57.6854ZM36.5231 59.5302C36.9389 59.5341 37.3546 59.5123 37.7678 59.465C38.0607 59.4326 38.3491 59.3672 38.6277 59.2699C39.0571 59.1068 39.3555 58.8859 39.523 58.6074C39.6922 58.3151 39.7783 57.981 39.7718 57.6422C39.7776 57.3539 39.7099 57.0689 39.5753 56.8149C39.4438 56.5755 39.2211 56.3865 38.9071 56.2478C38.6616 56.1443 38.4031 56.0759 38.139 56.0446C37.7595 55.997 37.3772 55.9752 36.9949 55.9794H35.8008C35.7132 55.9785 35.6288 56.0129 35.5662 56.075C35.5036 56.1371 35.4678 56.2218 35.4667 56.3106V59.199C35.4678 59.2878 35.5036 59.3725 35.5662 59.4346C35.6288 59.4967 35.7132 59.5311 35.8008 59.5302H36.5231Z" fill="#0D0E0F"/>
<path d="M50.3003 64.0152H55.3783C55.4217 64.0146 55.4648 64.0228 55.5051 64.0392C55.5454 64.0555 55.5822 64.0798 55.6132 64.1106C55.6442 64.1413 55.669 64.178 55.686 64.2185C55.703 64.259 55.712 64.3024 55.7124 64.3464V65.4594C55.712 65.5034 55.703 65.5468 55.686 65.5873C55.669 65.6278 55.6442 65.6645 55.6132 65.6952C55.5822 65.726 55.5454 65.7503 55.5051 65.7666C55.4648 65.783 55.4217 65.7912 55.3783 65.7906H48.161C48.1177 65.7911 48.0747 65.7828 48.0345 65.7664C47.9943 65.75 47.9576 65.7257 47.9267 65.695C47.8957 65.6642 47.871 65.6276 47.8541 65.5871C47.8371 65.5467 47.8281 65.5033 47.8277 65.4594V54.5351C47.8281 54.4912 47.8371 54.4478 47.8541 54.4074C47.8711 54.367 47.8958 54.3304 47.9267 54.2998C47.9577 54.2691 47.9943 54.2449 48.0345 54.2285C48.0747 54.2122 48.1177 54.2041 48.161 54.2046H55.0643C55.1076 54.2041 55.1507 54.2122 55.1909 54.2285C55.2312 54.2448 55.2679 54.269 55.2989 54.2997C55.3299 54.3304 55.3547 54.367 55.3718 54.4074C55.3889 54.4477 55.3979 54.4911 55.3984 54.5351V55.648C55.398 55.692 55.389 55.7355 55.372 55.7759C55.355 55.8164 55.3302 55.8531 55.2992 55.8839C55.2682 55.9146 55.2314 55.9389 55.1911 55.9553C55.1508 55.9716 55.1077 55.9798 55.0643 55.9792H50.3003C50.2569 55.9788 50.2139 55.987 50.1737 56.0034C50.1335 56.0199 50.0969 56.0441 50.0659 56.0749C50.035 56.1057 50.0103 56.1423 49.9933 56.1827C49.9763 56.2231 49.9674 56.2666 49.967 56.3105V58.644C49.9673 58.688 49.9762 58.7314 49.9931 58.7719C50.0101 58.8124 50.0347 58.8491 50.0657 58.8798C50.0967 58.9106 50.1333 58.9349 50.1736 58.9513C50.2139 58.9677 50.2569 58.9758 50.3003 58.9753H54.2962C54.3396 58.9748 54.3826 58.9831 54.4228 58.9995C54.463 59.0159 54.4996 59.0402 54.5306 59.0709C54.5615 59.1017 54.5862 59.1383 54.6032 59.1788C54.6202 59.2192 54.6291 59.2626 54.6295 59.3065V60.4194C54.6291 60.4634 54.6202 60.5068 54.6032 60.5472C54.5862 60.5876 54.5615 60.6243 54.5306 60.655C54.4996 60.6858 54.463 60.7101 54.4228 60.7265C54.3826 60.7429 54.3396 60.7511 54.2962 60.7507H50.3003C50.2569 60.7503 50.2139 60.7585 50.1737 60.7749C50.1335 60.7913 50.0969 60.8156 50.0659 60.8464C50.035 60.8771 50.0103 60.9138 49.9933 60.9542C49.9763 60.9946 49.9674 61.038 49.967 61.082V63.6839C49.9674 63.7279 49.9763 63.7713 49.9933 63.8117C50.0103 63.8521 50.035 63.8888 50.0659 63.9195C50.0969 63.9503 50.1335 63.9746 50.1737 63.991C50.2139 64.0074 50.2569 64.0156 50.3003 64.0152Z" fill="#0D0E0F"/>
<path d="M64.4069 56.5855C64.971 57.4014 65.3669 57.9845 65.5945 58.3348H65.638C65.952 57.8502 66.3449 57.2701 66.8167 56.5945L68.3851 54.3466C68.4165 54.3026 68.4577 54.2667 68.5054 54.242C68.5532 54.2173 68.6061 54.2045 68.6597 54.2047H70.3013C70.3618 54.2033 70.4215 54.219 70.4737 54.25C70.526 54.281 70.5686 54.3262 70.5969 54.3804C70.6253 54.4346 70.6381 54.4957 70.6341 54.5569C70.6301 54.6181 70.6094 54.6769 70.5743 54.7269L67.0156 59.7097C66.9754 59.7655 66.9538 59.8328 66.9538 59.9018C66.9538 59.9709 66.9754 60.0381 67.0156 60.094L70.7434 65.2669C70.7789 65.3167 70.8 65.3756 70.8043 65.4369C70.8086 65.4982 70.7959 65.5595 70.7677 65.6139C70.7395 65.6683 70.6969 65.7137 70.6447 65.7449C70.5925 65.7762 70.5327 65.792 70.472 65.7907H68.8682C68.8147 65.7908 68.762 65.7779 68.7144 65.7532C68.6668 65.7286 68.6257 65.6927 68.5944 65.6487L66.869 63.201C66.4208 62.5662 66.0075 61.9659 65.6291 61.4002H65.5945C65.1984 61.9893 64.7851 62.5896 64.3546 63.201L62.6292 65.6487C62.598 65.6927 62.5568 65.7286 62.5092 65.7532C62.4616 65.7779 62.4089 65.7908 62.3554 65.7907H60.7508C60.6903 65.7917 60.6307 65.7757 60.5786 65.7444C60.5265 65.7131 60.4841 65.6677 60.456 65.6134C60.4278 65.5591 60.4151 65.498 60.4193 65.4368C60.4234 65.3756 60.4442 65.3168 60.4794 65.2669L64.2072 60.094C64.2474 60.0381 64.269 59.9709 64.269 59.9018C64.269 59.8328 64.2474 59.7655 64.2072 59.7097L60.6485 54.7269C60.6134 54.6769 60.5927 54.6181 60.5887 54.5569C60.5847 54.4957 60.5976 54.4346 60.6259 54.3804C60.6542 54.3262 60.6969 54.281 60.7491 54.25C60.8013 54.219 60.861 54.2033 60.9215 54.2047H62.5631C62.6167 54.2045 62.6696 54.2173 62.7174 54.242C62.7651 54.2667 62.8064 54.3026 62.8377 54.3466L64.4069 56.5855Z" fill="#0D0E0F"/>
<path d="M76.5684 54.1818C76.5684 53.3785 77.2134 52.7273 78.009 52.7273H100.34C101.135 52.7273 101.78 53.3785 101.78 54.1818V65.8182C101.78 66.6215 101.135 67.2727 100.34 67.2727H78.009C77.2134 67.2727 76.5684 66.6215 76.5684 65.8182V54.1818Z" fill="#0184FF"/>
<path d="M80.7441 62.9102L81.8748 56.0342H84.6881C85.198 56.0342 85.6225 56.1338 85.9617 56.333C86.3009 56.5322 86.5415 56.8109 86.6834 57.169C86.8252 57.5271 86.8574 57.9423 86.7798 58.4146C86.7044 58.8914 86.5348 59.3066 86.271 59.6602C86.0094 60.0139 85.6724 60.2881 85.2601 60.4828C84.8477 60.6775 84.3788 60.7749 83.8534 60.7749H82.1209L82.337 59.4655H83.767C84.0175 59.4655 84.2336 59.4218 84.4154 59.3345C84.5994 59.2472 84.7468 59.1253 84.8577 58.9686C84.9685 58.8119 85.0417 58.6272 85.0772 58.4146C85.1104 58.202 85.0971 58.0184 85.0373 57.864C84.9774 57.7073 84.8699 57.5864 84.7147 57.5014C84.5617 57.4163 84.3622 57.3738 84.1161 57.3738H83.3047L82.3902 62.9102H80.7441Z" fill="white"/>
<path d="M88.0875 62.9975C87.7638 62.9975 87.4845 62.9427 87.2495 62.833C87.0167 62.7211 86.846 62.5521 86.7374 62.326C86.631 62.1 86.6055 61.8179 86.6609 61.4799C86.7097 61.1934 86.7995 60.9528 86.9303 60.7581C87.0633 60.5611 87.2262 60.4011 87.4191 60.278C87.6142 60.1549 87.8315 60.0609 88.0709 59.996C88.3103 59.931 88.5608 59.8874 88.8224 59.865C89.1151 59.8382 89.3523 59.8091 89.5341 59.7777C89.7181 59.7464 89.8555 59.7027 89.9464 59.6468C90.0373 59.5886 90.0928 59.508 90.1127 59.405V59.3883C90.1393 59.2159 90.1027 59.0827 90.003 58.9887C89.9032 58.8947 89.7536 58.8477 89.554 58.8477C89.3412 58.8477 89.1594 58.8947 89.0087 58.9887C88.8579 59.0827 88.7526 59.2126 88.6927 59.3782L87.203 59.3245C87.2961 59.0111 87.4557 58.7313 87.6818 58.4851C87.9079 58.2367 88.195 58.0419 88.5431 57.9009C88.8934 57.7577 89.298 57.686 89.7569 57.686C90.0806 57.686 90.3732 57.7252 90.6348 57.8035C90.8964 57.8797 91.117 57.9916 91.2966 58.1393C91.4783 58.2848 91.608 58.4638 91.6856 58.6765C91.7632 58.8891 91.7799 59.132 91.7355 59.405L91.1536 62.9102H89.6239L89.7436 62.1917H89.7037C89.584 62.3663 89.4432 62.514 89.2813 62.6349C89.1217 62.7558 88.9422 62.8464 88.7426 62.9069C88.5431 62.9673 88.3247 62.9975 88.0875 62.9975ZM88.7726 61.9231C88.9433 61.9231 89.1051 61.8873 89.2581 61.8157C89.411 61.7441 89.5396 61.6456 89.6438 61.5202C89.7502 61.3927 89.8178 61.2449 89.8467 61.0771L89.9232 60.5869C89.8766 60.6115 89.8178 60.6339 89.7469 60.654C89.676 60.6742 89.6006 60.6932 89.5208 60.7111C89.441 60.7268 89.3589 60.7424 89.2747 60.7581C89.1927 60.7715 89.114 60.7838 89.0386 60.795C88.879 60.8196 88.7404 60.8577 88.6229 60.9092C88.5054 60.9607 88.4112 61.0278 88.3403 61.1106C88.2715 61.1912 88.2294 61.2875 88.2139 61.3994C88.1873 61.5672 88.2261 61.6971 88.3303 61.7888C88.4345 61.8784 88.5819 61.9231 88.7726 61.9231Z" fill="white"/>
<path d="M92.6467 64.8441C92.4516 64.8441 92.2698 64.8284 92.1013 64.7971C91.935 64.768 91.7932 64.7288 91.6757 64.6796L92.2343 63.4877C92.3829 63.5414 92.5192 63.5716 92.6434 63.5783C92.7697 63.5873 92.8828 63.566 92.9825 63.5146C93.0845 63.4653 93.1732 63.3769 93.2486 63.2493L93.3417 63.0915L92.4072 57.7532H94.05L94.3826 61.4363H94.4358L95.9987 57.7532H97.7712L94.9213 63.4038C94.7772 63.6858 94.6031 63.9354 94.3992 64.1525C94.1952 64.3696 93.9491 64.5386 93.6609 64.6594C93.3749 64.7825 93.0369 64.8441 92.6467 64.8441Z" fill="white"/>
</svg>
