<svg width="120" height="38" viewBox="0 0 120 38" fill="none" xmlns="http://www.w3.org/2000/svg">
<path d="M10.6183 1.58857C10.1651 2.01103 9.71957 2.42566 9.27409 2.83834C7.20492 4.75896 5.13577 6.68155 3.06464 8.59827C2.58985 9.03833 2.09747 9.46078 1.50153 9.71895C0.792275 10.026 0.385865 9.83435 0.157261 9.06962C-0.161223 7.99978 0.00876496 7.0023 0.624239 6.08306C1.14789 5.30072 1.80829 4.64945 2.48629 4.01576C3.56678 3.00655 4.65511 2.00711 5.75709 1.02528C6.2397 0.595001 6.76726 0.201883 7.41203 0.0708418C9.34248 -0.318368 10.5735 1.53184 10.6204 1.5866L10.6183 1.58857Z" fill="#4779FF"/>
<path d="M1.33203 11.3582C2.50631 11.0198 3.38752 10.2747 4.24528 9.49038C6.98071 6.99474 9.71225 4.49715 12.4594 2.0152C13.0652 1.46758 13.7021 0.943401 14.3761 0.485742C15.234 -0.0970967 16.166 -0.181198 17.0843 0.374259C17.4164 0.573757 17.7427 0.806495 18.0123 1.08423C18.9482 2.05236 19.8725 3.03615 20.7731 4.03753C21.7307 5.1015 22.6723 6.18113 23.5887 7.28029C23.9032 7.65777 24.1612 8.09782 24.3742 8.54376C24.7708 9.37304 24.6692 10.1925 24.1866 10.9651C23.7547 11.6574 23.1765 12.2247 22.5806 12.7625C20.2476 14.8709 17.9146 16.9793 15.5544 19.0583C14.9213 19.6176 14.2238 20.1184 13.5047 20.5604C12.1507 21.3956 10.7928 21.2919 9.55789 20.3023C8.83887 19.7271 8.16281 19.0837 7.54539 18.3992C5.55634 16.195 3.60439 13.9594 1.63879 11.7337C1.53914 11.6223 1.44926 11.501 1.33203 11.3562V11.3582Z" fill="#4779FF"/>
<path d="M41.8005 0.437869H44.7666V16.5186H41.8005V15.1633C40.9271 16.2821 39.6845 16.8394 38.0764 16.8394C36.4684 16.8394 35.2062 16.2527 34.11 15.0812C33.014 13.9096 32.4668 12.4741 32.4668 10.7744C32.4668 9.07482 33.014 7.63924 34.11 6.4677C35.2062 5.29616 36.5271 4.7094 38.0764 4.7094C39.6259 4.7094 40.9271 5.26877 41.8005 6.38555V0.435913V0.437869ZM36.3394 13.1077C36.9452 13.7121 37.7072 14.0152 38.6274 14.0152C39.5477 14.0152 40.3058 13.7121 40.9037 13.1077C41.5016 12.5034 41.8005 11.7249 41.8005 10.7764C41.8005 9.82782 41.5016 9.04939 40.9037 8.44504C40.3058 7.8407 39.5477 7.53753 38.6274 7.53753C37.7072 7.53753 36.9452 7.8407 36.3394 8.44504C35.7337 9.04939 35.4309 9.82782 35.4309 10.7764C35.4309 11.7249 35.7337 12.5034 36.3394 13.1077Z" fill="black"/>
<path d="M54.6772 5.03247H57.8505L53.6593 16.5386C53.0615 18.1796 52.2701 19.3707 51.2814 20.1139C50.2947 20.8572 49.0657 21.1915 47.5964 21.1134V18.3575C48.3936 18.3732 49.0247 18.2049 49.4936 17.8529C49.9606 17.5009 50.3337 16.9337 50.6093 16.1533L45.8965 5.03443H49.1379L52.1352 12.7541L54.6792 5.03443L54.6772 5.03247Z" fill="black"/>
<path d="M65.3872 4.7091C66.6435 4.7091 67.683 5.12961 68.5017 5.97257C69.3224 6.81555 69.7306 7.97926 69.7306 9.46373V16.5165H66.7648V9.83143C66.7648 9.06669 66.5576 8.47995 66.1434 8.07314C65.7292 7.66828 65.1782 7.46487 64.4885 7.46487C63.7225 7.46487 63.109 7.70154 62.6498 8.1768C62.1907 8.65207 61.9601 9.36399 61.9601 10.3126V16.5145H58.9941V5.02792H61.9601V6.31485C62.6811 5.24306 63.8222 4.70715 65.3854 4.70715L65.3872 4.7091Z" fill="black"/>
<path d="M80.5271 5.03268H83.4931V16.5193H80.5271V15.1639C79.6382 16.2826 78.3896 16.84 76.7795 16.84C75.1696 16.84 73.9328 16.2533 72.8366 15.0817C71.7404 13.9101 71.1934 12.4746 71.1934 10.775C71.1934 9.07537 71.7404 7.63979 72.8366 6.46824C73.9328 5.29671 75.2457 4.70996 76.7795 4.70996C78.3896 4.70996 79.6382 5.26933 80.5271 6.38611V5.03071V5.03268ZM75.0542 13.1083C75.6522 13.7126 76.4103 14.0157 77.3306 14.0157C78.2509 14.0157 79.0129 13.7126 79.6185 13.1083C80.2242 12.5039 80.5271 11.7256 80.5271 10.777C80.5271 9.82836 80.2242 9.04995 79.6185 8.44559C79.0129 7.84124 78.2509 7.53809 77.3306 7.53809C76.4103 7.53809 75.6522 7.84124 75.0542 8.44559C74.4564 9.04995 74.1575 9.82836 74.1575 10.777C74.1575 11.7256 74.4564 12.5039 75.0542 13.1083Z" fill="black"/>
<path d="M98.0889 4.70996C99.4078 4.70996 100.461 5.13828 101.25 5.9969C102.04 6.85551 102.434 8.00357 102.434 9.44306V16.5193H99.4683V9.6504C99.4683 8.96193 99.3003 8.42604 98.9623 8.0427C98.6243 7.65935 98.1494 7.46768 97.536 7.46768C96.8619 7.46768 96.3362 7.69065 95.9612 8.13462C95.586 8.5786 95.3984 9.22206 95.3984 10.065V16.5212H92.4325V9.65235C92.4325 8.9639 92.2644 8.42799 91.9263 8.04465C91.5884 7.6613 91.1136 7.46964 90.5 7.46964C89.8415 7.46964 89.316 7.6926 88.9252 8.13658C88.5343 8.58055 88.3389 9.22402 88.3389 10.067V16.5232H85.373V5.03658H88.3389V6.25506C89.0287 5.22825 90.0935 4.71583 91.5356 4.71583C92.9775 4.71583 93.9877 5.26737 94.6618 6.37046C95.4277 5.26737 96.5707 4.71583 98.0869 4.71583L98.0889 4.70996Z" fill="black"/>
<path d="M105.782 3.65349C105.292 3.65349 104.866 3.47356 104.506 3.11368C104.147 2.75381 103.965 2.32939 103.965 1.83848C103.965 1.34757 104.145 0.919235 104.506 0.551545C104.866 0.183848 105.292 0 105.782 0C106.272 0 106.72 0.183848 107.081 0.551545C107.441 0.919235 107.621 1.34757 107.621 1.83848C107.621 2.32939 107.441 2.75381 107.081 3.11368C106.722 3.47356 106.288 3.65349 105.782 3.65349ZM104.311 16.5189V5.03235H107.277V16.5189H104.311Z" fill="black"/>
<path d="M114.803 16.84C113.07 16.84 111.626 16.2592 110.47 15.0935C109.313 13.9298 108.734 12.4902 108.734 10.775C108.734 9.05973 109.313 7.62023 110.47 6.45651C111.626 5.2928 113.072 4.70996 114.803 4.70996C115.923 4.70996 116.941 4.9779 117.861 5.51381C118.781 6.0497 119.479 6.76945 119.954 7.67305L117.402 9.16534C117.171 8.69007 116.824 8.31455 116.357 8.03879C115.89 7.76301 115.364 7.6261 114.782 7.6261C113.893 7.6261 113.156 7.92144 112.574 8.51014C111.992 9.10081 111.7 9.85379 111.7 10.7731C111.7 11.6923 111.992 12.4237 112.574 13.0125C113.156 13.6032 113.893 13.8965 114.782 13.8965C115.38 13.8965 115.911 13.7635 116.38 13.4936C116.847 13.2256 117.196 12.854 117.426 12.3788L120.001 13.8495C119.495 14.7531 118.781 15.4769 117.863 16.0206C116.944 16.5643 115.926 16.8361 114.805 16.8361L114.803 16.84Z" fill="black"/>
<path d="M72.8942 26.409C70.5383 26.409 69.2129 27.8572 69.2129 30.4264C69.2129 32.9957 70.5383 34.4409 72.8942 34.4409C74.6442 34.4409 75.9559 33.694 76.37 32.0458C76.4032 31.9125 76.3005 31.7822 76.166 31.7822H75.1202C75.022 31.7822 74.9374 31.8489 74.9162 31.9443C74.8271 32.3261 74.4508 33.2593 72.8942 33.2593C71.7563 33.2593 70.9432 32.5124 70.7196 31.1869C70.6984 31.0581 70.7982 30.94 70.9281 30.94H76.3655C76.4818 30.94 76.5755 30.8461 76.5755 30.7294V30.4991C76.5755 27.8723 75.2502 26.409 72.8942 26.409ZM74.8785 29.8493H70.9266C70.7966 29.8493 70.6969 29.7326 70.7181 29.6054C70.9281 28.3268 71.7034 27.6072 72.9108 27.6072C74.1183 27.6072 74.8785 28.3268 75.087 29.6054C75.1081 29.7341 75.0084 29.8493 74.8785 29.8493Z" fill="#4779FF"/>
<path d="M68.7507 26.5983H67.9557C67.2333 26.5983 66.5669 26.9846 66.2058 27.6118C66.106 27.7875 65.8385 27.7148 65.8385 27.5133V26.7998C65.8385 26.6832 65.7448 26.5892 65.6285 26.5892H64.4724C64.3561 26.5892 64.2624 26.6832 64.2624 26.7998V34.0531C64.2624 34.1697 64.3561 34.2636 64.4724 34.2636H65.6285C65.7448 34.2636 65.8385 34.1697 65.8385 34.0531V29.5357C65.8385 28.6646 66.5427 27.9587 67.4102 27.9587H68.193C68.264 27.9587 68.329 27.9193 68.3638 27.8587L68.9229 26.8953C69 26.7635 68.9047 26.5998 68.7521 26.5998L68.7507 26.5983Z" fill="#4779FF"/>
<path d="M62.3573 26.5862H61.245C61.129 26.5862 61.035 26.6805 61.035 26.7968V34.0531C61.035 34.1693 61.129 34.2636 61.245 34.2636H62.3573C62.4732 34.2636 62.5673 34.1693 62.5673 34.0531V26.7968C62.5673 26.6805 62.4732 26.5862 62.3573 26.5862Z" fill="#4779FF"/>
<path d="M62.407 23.9624H61.192C61.0693 23.9624 60.9699 24.0621 60.9699 24.1851V25.4803C60.9699 25.6033 61.0693 25.703 61.192 25.703H62.407C62.5297 25.703 62.6292 25.6033 62.6292 25.4803V24.1851C62.6292 24.0621 62.5297 23.9624 62.407 23.9624Z" fill="#4779FF"/>
<path d="M59.5715 23.9625H52.9131C52.7968 23.9625 52.7031 24.0564 52.7031 24.173V34.05C52.7031 34.1667 52.7968 34.2606 52.9131 34.2606H54.0814C54.1977 34.2606 54.2914 34.1667 54.2914 34.05V29.522C54.2914 29.413 54.3806 29.3251 54.4878 29.3251L58.2024 29.3191C58.2659 29.3191 58.3248 29.2918 58.3641 29.2418L58.9036 28.3056C59.017 28.1677 58.9187 27.9602 58.7419 27.9602H55.5215C55.3598 27.9602 55.2056 28.0193 55.0832 28.1284C54.9382 28.2586 54.7463 28.4298 54.6571 28.5101C54.515 28.6358 54.2929 28.5343 54.2929 28.345V25.6031C54.2929 25.4864 54.3866 25.3925 54.503 25.3925H59.0018C59.0728 25.3925 59.1378 25.3546 59.1726 25.294L59.7393 24.3003C59.8451 24.1624 59.7468 23.9609 59.5715 23.9609V23.9625Z" fill="#4779FF"/>
<path d="M104.854 31.5323H103.753C103.656 31.5323 103.575 31.5974 103.55 31.6898C103.318 32.6109 102.632 33.1275 101.656 33.1275C100.271 33.1275 99.4445 32.167 99.4445 30.4249C99.4445 28.6828 100.255 27.7224 101.656 27.7224C103.056 27.7224 103.435 28.7116 103.537 29.1024C103.561 29.1933 103.646 29.2585 103.739 29.2585H104.85C104.983 29.2585 105.083 29.1358 105.059 29.0055C104.731 27.3346 103.504 26.409 101.596 26.409C99.2252 26.409 97.9151 27.8557 97.9151 30.4234C97.9151 32.9911 99.227 34.4378 101.596 34.4378C103.508 34.4378 104.749 33.4835 105.063 31.7807C105.087 31.6505 104.986 31.5308 104.854 31.5308V31.5323Z" fill="#4779FF"/>
<path d="M109.498 30.1522C109.42 30.0659 109.426 29.9341 109.511 29.8568L112.742 26.8998C112.865 26.7892 112.786 26.5862 112.62 26.5862H111.237C111.185 26.5862 111.135 26.6059 111.095 26.6407L108.172 29.3175C108.074 29.4084 107.916 29.3372 107.916 29.2039V24.1715C107.916 24.0548 107.823 23.9624 107.707 23.9624H106.592C106.475 23.9624 106.383 24.0548 106.383 24.1715V34.0546C106.383 34.1712 106.475 34.2636 106.592 34.2636H107.707C107.823 34.2636 107.916 34.1712 107.916 34.0546V30.8612C107.916 30.7188 108.091 30.6521 108.184 30.7582L111.227 34.1939C111.266 34.2379 111.323 34.2651 111.382 34.2651H112.785C112.94 34.2651 113.022 34.0803 112.917 33.9637L109.496 30.1522H109.498Z" fill="#4779FF"/>
<path d="M117.063 29.7341C115.472 29.4372 115.105 29.2297 115.105 28.5949C115.105 27.9602 115.766 27.5618 116.594 27.5618C118.044 27.5618 118.308 28.4116 118.354 28.7964C118.366 28.9025 118.458 28.9797 118.562 28.9797H119.628C119.752 28.9797 119.848 28.8737 119.838 28.751C119.72 27.28 118.57 26.412 116.594 26.412C114.825 26.412 113.604 27.2679 113.604 28.6571C113.604 29.8371 114.224 30.6052 116.608 31.0051C118.259 31.2717 118.477 31.5505 118.477 32.2019C118.477 32.926 117.844 33.2941 116.814 33.2941C115.248 33.2956 114.994 32.3579 114.96 31.9398C114.952 31.8292 114.861 31.7444 114.75 31.7444H113.673C113.551 31.7444 113.453 31.8489 113.464 31.9716C113.583 33.7001 114.933 34.4454 116.782 34.4454C118.632 34.4454 120.007 33.6183 120.007 32.114C120.007 30.8158 119.358 30.181 117.062 29.7372L117.063 29.7341Z" fill="#4779FF"/>
<path d="M87.8924 23.9624H86.7802C86.6641 23.9624 86.5701 24.0567 86.5701 24.173V34.0515C86.5701 34.1678 86.6641 34.2621 86.7802 34.2621H87.8924C88.0084 34.2621 88.1025 34.1678 88.1025 34.0515V24.173C88.1025 24.0567 88.0084 23.9624 87.8924 23.9624Z" fill="#4779FF"/>
<path d="M93.1996 26.409C90.8285 26.409 89.4141 28.1359 89.4141 30.4234C89.4141 32.7109 90.8285 34.4378 93.1996 34.4378C95.5707 34.4378 96.985 32.7109 96.985 30.4234C96.985 28.1359 95.5707 26.409 93.1996 26.409ZM93.1996 33.185C91.6824 33.185 90.9751 32.0186 90.9751 30.4234C90.9751 28.8282 91.6809 27.6618 93.1996 27.6618C94.7187 27.6618 95.424 28.8282 95.424 30.4234C95.424 32.0186 94.7187 33.185 93.1996 33.185Z" fill="#4779FF"/>
<path d="M82.1268 26.4226C81.0932 26.4241 80.2605 26.8165 79.7693 27.5012C79.6863 27.6148 79.5064 27.5542 79.5064 27.4148V24.1745C79.5064 24.0579 79.4127 23.964 79.2963 23.964H78.1856C78.0692 23.964 77.9755 24.0579 77.9755 24.1745V34.0515C77.9755 34.1682 78.0692 34.2621 78.1856 34.2621H79.2374C79.3538 34.2621 79.4474 34.1682 79.4474 34.0515V33.2244C79.4474 33.0866 79.6258 33.0396 79.6998 33.1547C80.194 33.9349 81.0433 34.4257 82.0981 34.4257C84.1896 34.4257 85.4696 32.9487 85.4696 30.4249C85.4696 27.9011 84.1745 26.4241 82.1268 26.4241V26.4226ZM81.7007 33.1562C80.33 33.1562 79.52 32.1079 79.52 30.4249C79.52 28.7419 80.33 27.6784 81.7007 27.6784C83.0713 27.6784 83.9116 28.7404 83.9116 30.4249C83.9116 32.1095 83.0864 33.1562 81.7007 33.1562Z" fill="#4779FF"/>
<path d="M43.5522 34.4462H42.5892L40.2188 26.7422H41.5521L43.7004 33.9573L46.0116 26.7422H47.3598L43.8337 37.4093H42.604L43.5522 34.4462Z" fill="black"/>
<path d="M32.4688 23.7793H33.7281V28.1202C33.9453 27.6066 34.2713 27.2214 34.7059 26.9646C35.1405 26.6979 35.7034 26.5646 36.3948 26.5646C37.4517 26.5646 38.2764 26.9202 38.869 27.6313C39.4715 28.3326 39.7727 29.3202 39.7727 30.5944C39.7727 31.8685 39.4715 32.8611 38.869 33.5723C38.2764 34.2735 37.4517 34.6242 36.3948 34.6242C35.6639 34.6242 35.0763 34.4859 34.6318 34.2093C34.1972 33.9229 33.8762 33.4932 33.6688 32.9204V34.4464H32.4688V23.7793ZM33.6095 30.5944C33.6095 31.5228 33.8169 32.2389 34.2318 32.7426C34.6565 33.2463 35.259 33.4982 36.0393 33.4982C36.8195 33.4982 37.4171 33.2463 37.8319 32.7426C38.2566 32.2389 38.469 31.5228 38.469 30.5944C38.469 29.6659 38.2566 28.9499 37.8319 28.4461C37.4171 27.9424 36.8195 27.6906 36.0393 27.6906C35.259 27.6906 34.6565 27.9424 34.2318 28.4461C33.8169 28.9499 33.6095 29.6659 33.6095 30.5944Z" fill="black"/>
</svg>
