<svg width="36" height="36" viewBox="0 0 36 36" fill="none" xmlns="http://www.w3.org/2000/svg">
<path d="M29.8491 17.9995C29.8489 11.0962 24.2515 5.5 17.3481 5.5C10.445 5.50025 4.84888 11.0963 4.84863 17.9995C4.84863 24.9029 10.4448 30.5002 17.3481 30.5005V32.7505L16.5894 32.7314C8.796 32.3363 2.59863 25.8911 2.59863 17.9995C2.59888 9.85369 9.20232 3.25025 17.3481 3.25C25.4942 3.25 32.0989 9.85354 32.0991 17.9995L32.0889 18.5342C31.9942 21.1941 31.195 23.6751 29.8726 25.7954L32.0991 32.7505L25.144 30.5239C22.8824 31.9345 20.21 32.7505 17.3481 32.7505V30.5005C19.7769 30.5005 22.0383 29.8095 23.9531 28.6152L24.8364 28.0645L25.8296 28.3809L28.623 29.2744L27.7295 26.481L27.4131 25.4878L27.9639 24.6045C29.1582 22.6896 29.8491 20.4283 29.8491 17.9995Z" fill="#73A2F5"/>
<path d="M20.9444 16.9237C20.9443 19.043 19.2741 20.8161 17.1477 20.8161C16.6194 20.8158 16.1907 20.3874 16.1907 19.8591C16.1907 19.3307 16.6194 18.9023 17.1477 18.902C18.1572 18.902 19.0302 18.0467 19.0304 16.9237C19.0304 15.8005 18.1573 14.9453 17.1477 14.9453H11.6283C10.6187 14.9453 9.74562 15.8005 9.74562 16.9237C9.74573 17.7664 10.2437 18.4694 10.921 18.7585C11.4068 18.966 11.6321 19.5271 11.4249 20.0131C11.2175 20.499 10.6563 20.7255 10.1703 20.5185C8.78569 19.9276 7.83167 18.5308 7.83155 16.9237C7.83155 14.8042 9.50179 13.0312 11.6283 13.0312L17.1477 13.0312C19.2742 13.0312 20.9444 14.8042 20.9444 16.9237Z" fill="#73A2F5"/>
<path d="M12.8524 19.8588C12.8526 17.7394 14.5228 15.9663 16.6492 15.9663C17.1775 15.9666 17.6062 16.395 17.6062 16.9234C17.6062 17.4518 17.1775 17.8801 16.6492 17.8804C15.6397 17.8804 14.7666 18.7357 14.7665 19.8588C14.7665 20.982 15.6396 21.8372 16.6492 21.8372H22.3061C23.3157 21.8372 24.1888 20.982 24.1888 19.8588C24.1887 19.0161 23.6907 18.313 23.0134 18.024C22.5277 17.8166 22.3012 17.2553 22.508 16.7694C22.7154 16.2834 23.2781 16.0568 23.7641 16.2639C25.1487 16.8548 26.1028 18.2517 26.1029 19.8588C26.1029 21.9783 24.4326 23.7512 22.3061 23.7512H16.6492C14.5227 23.7512 12.8524 21.9783 12.8524 19.8588Z" fill="#73A2F5"/>
</svg>
