<svg width="25" height="25" viewBox="0 0 25 25" fill="none" xmlns="http://www.w3.org/2000/svg">
<path d="M21.875 20.1516C22.2633 20.1516 22.5781 20.4664 22.5781 20.8547C22.5781 21.2431 22.2633 21.5579 21.875 21.5579L3.125 21.5579C2.73667 21.5579 2.42188 21.2431 2.42188 20.8547C2.42188 20.4664 2.73667 20.1516 3.125 20.1516L21.875 20.1516Z" fill="#797A7B"/>
<path d="M20.484 20.7376H19.0778L19.0778 4.84766L11.196 4.84766L11.196 20.8529H9.78974L9.78974 4.61328C9.78974 3.96607 10.3144 3.44141 10.9616 3.44141L19.3121 3.44141C19.9592 3.44158 20.484 3.96618 20.484 4.61328L20.484 20.7376Z" fill="#797A7B"/>
<path d="M4.5163 11.4825C4.51657 10.761 5.29766 10.3105 5.92255 10.6713L10.4956 13.3108L9.79248 14.5294L5.92255 12.2946L5.92255 20.8502H4.5163L4.5163 11.4825Z" fill="#797A7B"/>
<path d="M16.9684 7.13922L16.9666 8.54547L13.3447 8.54273L13.3466 7.13648L16.9684 7.13922Z" fill="#797A7B"/>
<path d="M16.9684 10.8892L16.9666 12.2955L13.3447 12.2927L13.3466 10.8865L16.9684 10.8892Z" fill="#797A7B"/>
<path d="M16.9684 14.6392L16.9666 16.0455L13.3447 16.0427L13.3466 14.6365L16.9684 14.6392Z" fill="#797A7B"/>
</svg>
