<svg width="85" height="36" viewBox="0 0 85 36" fill="none" xmlns="http://www.w3.org/2000/svg">
<path d="M4.52 25.0231V22.1831H7.14C7.64667 22.1831 8.08 22.0831 8.44 21.8831C8.81333 21.6831 9.1 21.4031 9.3 21.0431C9.5 20.6698 9.6 20.2431 9.6 19.7631C9.6 19.2565 9.5 18.8231 9.3 18.4631C9.1 18.0898 8.81333 17.8098 8.44 17.6231C8.08 17.4231 7.64667 17.3231 7.14 17.3231H4.52V14.4831H6.98C8.22 14.4831 9.28 14.6898 10.16 15.1031C11.0533 15.5165 11.7333 16.1031 12.2 16.8631C12.68 17.6231 12.92 18.5365 12.92 19.6031V19.9231C12.92 20.9631 12.68 21.8698 12.2 22.6431C11.7333 23.4031 11.0533 23.9898 10.16 24.4031C9.28 24.8165 8.22 25.0231 6.98 25.0231H4.52ZM1.64 29.2031V14.4831H4.92V29.2031H1.64ZM21.2831 29.2031V25.9631H20.7431V22.4431C20.7431 21.8831 20.6098 21.4631 20.3431 21.1831C20.0765 20.9031 19.6498 20.7631 19.0631 20.7631C18.7698 20.7631 18.3831 20.7698 17.9031 20.7831C17.4231 20.7965 16.9298 20.8165 16.4231 20.8431C15.9165 20.8698 15.4565 20.8965 15.0431 20.9231V18.2231C15.3498 18.1965 15.7098 18.1698 16.1231 18.1431C16.5365 18.1165 16.9631 18.0965 17.4031 18.0831C17.8431 18.0698 18.2565 18.0631 18.6431 18.0631C19.7631 18.0631 20.7031 18.2231 21.4631 18.5431C22.2365 18.8631 22.8231 19.3498 23.2231 20.0031C23.6231 20.6431 23.8231 21.4698 23.8231 22.4831V29.2031H21.2831ZM17.7831 29.4831C16.9965 29.4831 16.3031 29.3431 15.7031 29.0631C15.1165 28.7831 14.6565 28.3831 14.3231 27.8631C13.9898 27.3298 13.8231 26.6965 13.8231 25.9631C13.8231 25.1631 14.0298 24.5098 14.4431 24.0031C14.8565 23.4831 15.4365 23.1031 16.1831 22.8631C16.9298 22.6098 17.7898 22.4831 18.7631 22.4831H21.1031V24.2631H18.7431C18.1831 24.2631 17.7498 24.4031 17.4431 24.6831C17.1498 24.9498 17.0031 25.3165 17.0031 25.7831C17.0031 26.2231 17.1498 26.5831 17.4431 26.8631C17.7498 27.1298 18.1831 27.2631 18.7431 27.2631C19.1031 27.2631 19.4231 27.2031 19.7031 27.0831C19.9965 26.9498 20.2365 26.7298 20.4231 26.4231C20.6098 26.1165 20.7165 25.6898 20.7431 25.1431L21.5031 25.9431C21.4365 26.7031 21.2498 27.3431 20.9431 27.8631C20.6498 28.3831 20.2365 28.7831 19.7031 29.0631C19.1831 29.3431 18.5431 29.4831 17.7831 29.4831ZM26.2423 33.5431V30.8231H28.5223C28.869 30.8231 29.1623 30.7765 29.4023 30.6831C29.6423 30.6031 29.8357 30.4631 29.9823 30.2631C30.129 30.0631 30.249 29.7898 30.3423 29.4431L33.0423 18.2431H36.0823L33.0223 30.0831C32.809 30.9365 32.509 31.6165 32.1223 32.1231C31.749 32.6298 31.2423 32.9898 30.6023 33.2031C29.9757 33.4298 29.1757 33.5431 28.2023 33.5431H26.2423ZM29.6823 28.9631V26.4631H32.0023V28.9631H29.6823ZM28.3623 28.9631L25.0023 18.2431H28.2223L31.4023 28.9631H28.3623ZM37.9486 29.2031V14.6031H41.2286V29.2031H37.9486ZM40.8286 29.2031V26.3231H46.9486V29.2031H40.8286ZM48.2931 33.5431V30.8231H50.5731C50.9198 30.8231 51.2131 30.7765 51.4531 30.6831C51.6931 30.6031 51.8865 30.4631 52.0331 30.2631C52.1798 30.0631 52.2998 29.7898 52.3931 29.4431L55.0931 18.2431H58.1331L55.0731 30.0831C54.8598 30.9365 54.5598 31.6165 54.1731 32.1231C53.7998 32.6298 53.2931 32.9898 52.6531 33.2031C52.0265 33.4298 51.2265 33.5431 50.2531 33.5431H48.2931ZM51.7331 28.9631V26.4631H54.0531V28.9631H51.7331ZM50.4131 28.9631L47.0531 18.2431H50.2731L53.4531 28.9631H50.4131ZM59.8194 29.2031V18.2431H62.3594V22.9431H62.1794C62.1794 21.8231 62.3194 20.8898 62.5994 20.1431C62.8927 19.3965 63.3327 18.8365 63.9194 18.4631C64.506 18.0898 65.2194 17.9031 66.0594 17.9031H66.1994C67.4794 17.9031 68.4527 18.3231 69.1194 19.1631C69.7994 19.9898 70.1394 21.2498 70.1394 22.9431V29.2031H66.9394V22.7631C66.9394 22.1765 66.766 21.6965 66.4194 21.3231C66.0727 20.9498 65.606 20.7631 65.0194 20.7631C64.4194 20.7631 63.9327 20.9565 63.5594 21.3431C63.1994 21.7165 63.0194 22.2098 63.0194 22.8231V29.2031H59.8194ZM80.5863 29.2031L77.1263 24.0831H75.5863L80.0463 18.2431H83.4063L79.2063 23.6831L79.2463 22.1231L84.1863 29.2031H80.5863ZM72.8663 29.2031V14.6031H76.0663V29.2031H72.8663Z" fill="#2D2F2F"/>
<path d="M2.317 2.6387C2.64453 3.10789 2.87436 3.44321 3.00649 3.64465H3.03174C3.21404 3.36595 3.44216 3.03235 3.71609 2.64386L4.62668 1.35123C4.64483 1.32583 4.66877 1.30517 4.6965 1.29096C4.72423 1.27676 4.75495 1.26943 4.78609 1.26959H5.73922C5.77435 1.26879 5.80901 1.27781 5.83932 1.29565C5.86962 1.3135 5.89439 1.33945 5.91083 1.37062C5.92728 1.40178 5.93476 1.43693 5.93244 1.47212C5.93012 1.50731 5.91809 1.54116 5.89769 1.56987L3.83155 4.43524C3.80825 4.46733 3.79571 4.50602 3.79571 4.54573C3.79571 4.58544 3.80825 4.62413 3.83155 4.65623L5.99585 7.63091C6.01628 7.65961 6.02838 7.69343 6.03078 7.72862C6.03319 7.76381 6.02582 7.79897 6.00948 7.8302C5.99315 7.86143 5.9685 7.8875 5.93828 7.9055C5.90806 7.92349 5.87346 7.93271 5.83832 7.93213H4.90622C4.87517 7.93218 4.84456 7.9248 4.81692 7.9106C4.78928 7.8964 4.76541 7.8758 4.74729 7.85049L3.74554 6.44291C3.48532 6.07788 3.24536 5.73271 3.02566 5.40741H3.00556C2.77557 5.74616 2.53561 6.09133 2.28568 6.44291L1.28393 7.85049C1.26581 7.8758 1.24194 7.8964 1.2143 7.9106C1.18666 7.9248 1.15604 7.93218 1.125 7.93213H0.193363C0.15816 7.93289 0.123444 7.92378 0.0931181 7.90582C0.0627917 7.88786 0.0380567 7.86177 0.0216913 7.83047C0.00532595 7.79918 -0.00202089 7.76393 0.000477061 7.72867C0.00297501 7.69342 0.0152183 7.65956 0.0358313 7.63091L2.20014 4.65623C2.22343 4.62413 2.23598 4.58544 2.23598 4.54573C2.23598 4.50602 2.22343 4.46733 2.20014 4.43524L0.133997 1.56987C0.1136 1.54116 0.101567 1.50731 0.0992451 1.47212C0.0969237 1.43693 0.104405 1.40178 0.120852 1.37062C0.137298 1.33945 0.162062 1.3135 0.19237 1.29565C0.222678 1.27781 0.257336 1.26879 0.292463 1.26959H1.2456C1.27672 1.26951 1.30741 1.27687 1.33513 1.29107C1.36285 1.30527 1.3868 1.32589 1.405 1.35123L2.317 2.6387Z" fill="#2D2F2F"/>
<path d="M14.2082 3.2712C14.2082 3.73601 14.0774 4.13029 13.8156 4.45403C13.5538 4.77777 13.1487 5.01753 12.6002 5.1733V5.19301L14.3957 7.63C14.4164 7.65866 14.4287 7.69254 14.4312 7.72783C14.4338 7.76313 14.4265 7.79844 14.4102 7.82981C14.3939 7.86118 14.3692 7.88738 14.3389 7.90546C14.3086 7.92353 14.2739 7.93278 14.2386 7.93216H13.2289C13.198 7.93218 13.1675 7.92484 13.14 7.91073C13.1124 7.89662 13.0886 7.87614 13.0705 7.85099L11.3409 5.43371C11.3228 5.4085 11.299 5.38798 11.2714 5.37386C11.2439 5.35975 11.2134 5.35243 11.1824 5.35254H10.6252C10.5743 5.35203 10.5253 5.37181 10.489 5.40752C10.4526 5.44323 10.4318 5.49196 10.4312 5.54303V7.74167C10.4306 7.79273 10.4098 7.84146 10.3735 7.87717C10.3371 7.91289 10.2881 7.93266 10.2372 7.93216H9.38366C9.33279 7.93266 9.28379 7.91289 9.24742 7.87717C9.21105 7.84146 9.19029 7.79273 9.18967 7.74167V1.45964C9.18997 1.43438 9.19523 1.40942 9.20515 1.3862C9.21506 1.36298 9.22944 1.34194 9.24745 1.3243C9.26547 1.30665 9.28677 1.29274 9.31014 1.28336C9.33351 1.27398 9.35849 1.26931 9.38366 1.26962H11.2535C11.5721 1.26807 11.8905 1.28719 12.2066 1.32686C12.4639 1.35634 12.7172 1.41392 12.962 1.49858C13.3606 1.64779 13.6682 1.8694 13.8848 2.16343C14.1013 2.45746 14.2092 2.82671 14.2082 3.2712ZM11.0445 4.33204C11.2859 4.33429 11.5273 4.32176 11.7672 4.29451C11.9373 4.27591 12.1047 4.2383 12.2664 4.18237C12.5157 4.08853 12.689 3.96153 12.7862 3.80138C12.8845 3.63328 12.9345 3.44118 12.9307 3.24633C12.934 3.08054 12.8948 2.91668 12.8166 2.77057C12.7403 2.63294 12.611 2.52424 12.4286 2.44448C12.2861 2.38494 12.136 2.34562 11.9827 2.32765C11.7624 2.30024 11.5405 2.2877 11.3184 2.29011H10.6252C10.5743 2.28961 10.5253 2.30939 10.489 2.3451C10.4526 2.38081 10.4318 2.42954 10.4312 2.48061V4.14155C10.4318 4.19261 10.4526 4.24134 10.489 4.27706C10.5253 4.31277 10.5743 4.33254 10.6252 4.33204H11.0445Z" fill="#2D2F2F"/>
<path d="M19.0434 6.91112H21.9916C22.0168 6.91081 22.0418 6.9155 22.0652 6.92491C22.0886 6.93432 22.11 6.94827 22.128 6.96597C22.146 6.98366 22.1604 7.00475 22.1703 7.02803C22.1801 7.05131 22.1854 7.07631 22.1856 7.10161V7.74159C22.1854 7.7669 22.1801 7.7919 22.1703 7.81518C22.1604 7.83845 22.146 7.85954 22.128 7.87724C22.11 7.89493 22.0886 7.90889 22.0652 7.9183C22.0418 7.92771 22.0168 7.93239 21.9916 7.93208H17.8014C17.7762 7.93233 17.7512 7.9276 17.7279 7.91816C17.7045 7.90872 17.6833 7.89476 17.6653 7.87707C17.6473 7.85938 17.633 7.83831 17.6231 7.81507C17.6133 7.79182 17.6081 7.76686 17.6078 7.74159V1.45957C17.6081 1.43433 17.6133 1.40938 17.6232 1.38616C17.633 1.36294 17.6473 1.34191 17.6653 1.32425C17.6833 1.3066 17.7046 1.29268 17.7279 1.2833C17.7513 1.27391 17.7762 1.26924 17.8014 1.26955H21.8093C21.8345 1.26924 21.8595 1.27391 21.8828 1.28329C21.9062 1.29267 21.9275 1.30658 21.9455 1.32423C21.9635 1.34187 21.9779 1.36291 21.9878 1.38613C21.9977 1.40935 22.003 1.43431 22.0033 1.45957V2.09955C22.0031 2.12485 21.9978 2.14986 21.988 2.17313C21.9781 2.19641 21.9637 2.2175 21.9457 2.23519C21.9277 2.25289 21.9063 2.26684 21.8829 2.27625C21.8595 2.28566 21.8345 2.29035 21.8093 2.29004H19.0434C19.0182 2.28979 18.9932 2.29452 18.9699 2.30396C18.9466 2.3134 18.9253 2.32736 18.9073 2.34505C18.8893 2.36274 18.875 2.38381 18.8652 2.40706C18.8553 2.4303 18.8501 2.45527 18.8499 2.48053V3.82242C18.85 3.84771 18.8552 3.8727 18.865 3.89597C18.8749 3.91925 18.8892 3.94034 18.9072 3.95804C18.9252 3.97574 18.9465 3.9897 18.9698 3.99912C18.9932 4.00854 19.0182 4.01323 19.0434 4.01292H21.3634C21.3885 4.01267 21.4135 4.0174 21.4368 4.02684C21.4602 4.03628 21.4815 4.05024 21.4994 4.06793C21.5174 4.08562 21.5317 4.10669 21.5416 4.12993C21.5514 4.15318 21.5566 4.17815 21.5569 4.20341V4.84339C21.5566 4.86865 21.5514 4.89362 21.5416 4.91686C21.5317 4.94011 21.5174 4.96118 21.4994 4.97887C21.4815 4.99655 21.4602 5.01052 21.4368 5.01996C21.4135 5.0294 21.3885 5.03413 21.3634 5.03388H19.0434C19.0182 5.03363 18.9932 5.03836 18.9699 5.0478C18.9466 5.05724 18.9253 5.07121 18.9073 5.08889C18.8893 5.10658 18.875 5.12765 18.8652 5.1509C18.8553 5.17414 18.8501 5.19911 18.8499 5.22437V6.72063C18.8501 6.74589 18.8553 6.77086 18.8652 6.7941C18.875 6.81735 18.8893 6.83842 18.9073 6.85611C18.9253 6.8738 18.9466 6.88776 18.9699 6.8972C18.9932 6.90664 19.0182 6.91137 19.0434 6.91112Z" fill="#2D2F2F"/>
<path d="M27.2335 2.63869C27.561 3.10788 27.7909 3.4432 27.923 3.64464H27.9482C28.1305 3.36594 28.3587 3.03234 28.6326 2.64385L29.5432 1.35122C29.5614 1.32588 29.5853 1.30526 29.613 1.29106C29.6408 1.27686 29.6715 1.2695 29.7026 1.26958H30.6557C30.6908 1.26878 30.7255 1.2778 30.7558 1.29564C30.7861 1.31349 30.8109 1.33944 30.8273 1.37061C30.8438 1.40177 30.8513 1.43692 30.8489 1.47211C30.8466 1.5073 30.8346 1.54115 30.8142 1.56986L28.748 4.43523C28.7248 4.46733 28.7122 4.50601 28.7122 4.54572C28.7122 4.58543 28.7248 4.62412 28.748 4.65622L30.9124 7.6309C30.933 7.65955 30.9452 7.69341 30.9477 7.72866C30.9502 7.76392 30.9429 7.79917 30.9265 7.83046C30.9101 7.86176 30.8854 7.88785 30.8551 7.90581C30.8247 7.92377 30.79 7.93288 30.7548 7.93213H29.8237C29.7926 7.93217 29.762 7.92479 29.7344 7.91059C29.7067 7.89639 29.6828 7.87579 29.6647 7.85049L28.663 6.44291C28.4028 6.07787 28.1628 5.7327 27.9431 5.4074H27.923C27.693 5.74615 27.453 6.09132 27.2031 6.44291L26.2014 7.85049C26.1832 7.87579 26.1594 7.89639 26.1317 7.91059C26.1041 7.92479 26.0735 7.93217 26.0424 7.93213H25.1108C25.0757 7.9327 25.041 7.92348 25.0108 7.90549C24.9806 7.88749 24.956 7.86142 24.9396 7.83019C24.9233 7.79897 24.9159 7.7638 24.9183 7.72861C24.9207 7.69342 24.9328 7.6596 24.9533 7.6309L27.1176 4.65622C27.1409 4.62412 27.1534 4.58543 27.1534 4.54572C27.1534 4.50601 27.1409 4.46733 27.1176 4.43523L25.0514 1.56986C25.031 1.54115 25.019 1.5073 25.0167 1.47211C25.0144 1.43692 25.0218 1.40177 25.0383 1.37061C25.0547 1.33944 25.0795 1.31349 25.1098 1.29564C25.1401 1.2778 25.1748 1.26878 25.2099 1.26958H26.163C26.1941 1.2695 26.2248 1.27686 26.2526 1.29106C26.2803 1.30526 26.3042 1.32588 26.3224 1.35122L27.2335 2.63869Z" fill="#2D2F2F"/>
<path d="M34.293 1.25441C34.293 0.792455 34.6675 0.417969 35.1294 0.417969H48.0942C48.5561 0.417969 48.9306 0.792455 48.9306 1.25441V7.9459C48.9306 8.40786 48.5561 8.78234 48.0942 8.78234H35.1294C34.6675 8.78234 34.293 8.40786 34.293 7.9459V1.25441Z" fill="#0184FF"/>
<path d="M36.7188 6.27438L37.3752 2.32031H39.0086C39.3046 2.32031 39.5511 2.37759 39.748 2.49214C39.9449 2.6067 40.0846 2.76695 40.167 2.97289C40.2494 3.17883 40.268 3.41759 40.223 3.68918C40.1792 3.96334 40.0807 4.2021 39.9276 4.40547C39.7757 4.60883 39.58 4.76651 39.3406 4.87849C39.1012 4.99047 38.829 5.04646 38.524 5.04646H37.5181L37.6436 4.29348H38.4738C38.6192 4.29348 38.7447 4.26839 38.8502 4.21819C38.9571 4.16799 39.0427 4.09784 39.107 4.00774C39.1714 3.91764 39.2139 3.81145 39.2344 3.68918C39.2538 3.5669 39.246 3.46135 39.2113 3.37254C39.1765 3.28244 39.1141 3.21294 39.024 3.16403C38.9352 3.11512 38.8193 3.09066 38.6765 3.09066H38.2054L37.6744 6.27438H36.7188Z" fill="white"/>
<path d="M40.9822 6.32458C40.7943 6.32458 40.6321 6.29304 40.4957 6.22997C40.3605 6.16562 40.2614 6.06844 40.1983 5.93844C40.1366 5.80844 40.1218 5.64626 40.1539 5.4519C40.1823 5.28715 40.2344 5.14878 40.3103 5.0368C40.3876 4.92354 40.4822 4.83151 40.5941 4.76071C40.7074 4.68992 40.8335 4.63586 40.9726 4.59853C41.1116 4.56121 41.257 4.53611 41.4089 4.52324C41.5788 4.50779 41.7165 4.49106 41.8221 4.47304C41.9289 4.45502 42.0087 4.42992 42.0615 4.39774C42.1142 4.36428 42.1464 4.31794 42.158 4.25873V4.24908C42.1735 4.14997 42.1522 4.07339 42.0943 4.01933C42.0364 3.96527 41.9495 3.93824 41.8336 3.93824C41.7101 3.93824 41.6045 3.96527 41.517 4.01933C41.4295 4.07339 41.3684 4.14804 41.3336 4.24329L40.4686 4.2124C40.5227 4.0322 40.6154 3.87131 40.7467 3.72972C40.878 3.58685 41.0446 3.47487 41.2467 3.39378C41.4501 3.3114 41.685 3.27022 41.9514 3.27022C42.1393 3.27022 42.3092 3.29274 42.4611 3.33779C42.613 3.38155 42.7411 3.44591 42.8453 3.53086C42.9509 3.61452 43.0262 3.71749 43.0712 3.83977C43.1163 3.96205 43.1259 4.1017 43.1002 4.25873L42.7623 6.27438H41.8742L41.9437 5.86121H41.9205C41.851 5.96161 41.7693 6.04656 41.6753 6.11606C41.5827 6.18557 41.4784 6.2377 41.3626 6.27245C41.2467 6.3072 41.1199 6.32458 40.9822 6.32458ZM41.3799 5.70675C41.479 5.70675 41.573 5.68616 41.6618 5.64497C41.7506 5.60378 41.8253 5.54715 41.8858 5.47507C41.9476 5.4017 41.9868 5.31675 42.0036 5.22022L42.048 4.93834C42.0209 4.9525 41.9868 4.96537 41.9456 4.97695C41.9044 4.98854 41.8607 4.99948 41.8143 5.00977C41.768 5.01878 41.7204 5.02779 41.6715 5.0368C41.6238 5.04453 41.5782 5.0516 41.5344 5.05804C41.4417 5.0722 41.3613 5.09408 41.2931 5.12368C41.2248 5.15329 41.1701 5.1919 41.1289 5.23953C41.089 5.28586 41.0646 5.34121 41.0556 5.40557C41.0401 5.5021 41.0627 5.57675 41.1232 5.62953C41.1836 5.68101 41.2692 5.70675 41.3799 5.70675Z" fill="white"/>
<path d="M43.6292 7.38646C43.5159 7.38646 43.4104 7.37745 43.3126 7.35943C43.216 7.3427 43.1337 7.32017 43.0654 7.29186L43.3898 6.60646C43.476 6.63735 43.5552 6.65473 43.6273 6.65859C43.7006 6.66374 43.7663 6.65151 43.8242 6.62191C43.8834 6.59359 43.9349 6.54275 43.9787 6.46938L44.0327 6.37864L43.4902 3.30883H44.444L44.637 5.4268H44.6679L45.5753 3.30883H46.6044L44.9498 6.55819C44.8661 6.72037 44.7651 6.86389 44.6467 6.98874C44.5283 7.11359 44.3854 7.21077 44.2181 7.28027C44.052 7.35107 43.8557 7.38646 43.6292 7.38646Z" fill="white"/>
</svg>
