<svg width="16" height="20" viewBox="0 0 16 20" fill="none" xmlns="http://www.w3.org/2000/svg">
<circle cx="8.0013" cy="10.0013" r="6.66667" transform="rotate(180 8.0013 10.0013)" fill="white"/>
<path fill-rule="evenodd" clip-rule="evenodd" d="M7.9987 16.6654C11.6806 16.6654 14.6654 13.6806 14.6654 9.9987C14.6654 6.3168 11.6806 3.33203 7.9987 3.33203C4.3168 3.33203 1.33203 6.3168 1.33203 9.9987C1.33203 13.6806 4.3168 16.6654 7.9987 16.6654ZM7.99751 5.95809C8.54698 5.95809 8.99241 6.40352 8.99241 6.95299V10.3617C8.99241 10.9111 8.54698 11.3566 7.99751 11.3566C7.44804 11.3566 7.0026 10.9111 7.0026 10.3617L7.0026 6.95299C7.0026 6.40352 7.44804 5.95809 7.99751 5.95809ZM8.90122 13.1328C8.90122 13.6349 8.49421 14.0419 7.99213 14.0419C7.49005 14.0419 7.08304 13.6349 7.08304 13.1328C7.08304 12.6307 7.49005 12.2237 7.99213 12.2237C8.49421 12.2237 8.90122 12.6307 8.90122 13.1328Z" fill="#FF926E"/>
</svg>
