<svg width="28" height="28" viewBox="0 0 28 28" fill="none" xmlns="http://www.w3.org/2000/svg">
<path d="M11.8252 15.168C12.2465 15.168 12.5873 15.5227 12.5874 15.9621V20.6755L13.868 19.339C14.1641 19.0285 14.6468 19.0303 14.9447 19.339C15.2425 19.6479 15.2425 20.1517 14.9447 20.4624L12.3641 23.1535C12.2152 23.3088 12.0198 23.387 11.8252 23.387C11.6307 23.387 11.4363 23.3088 11.2874 23.1535L8.70687 20.4624C8.40901 20.1535 8.40901 19.6497 8.70687 19.339C9.00296 19.0289 9.48464 19.0288 9.78239 19.339L11.0641 20.6743V15.9621C11.0643 15.5227 11.404 15.1681 11.8252 15.168Z" fill="#336AFF"/>
<path d="M18.668 4.66797C19.9566 4.66797 21.0013 5.71264 21.0013 7.0013H19.2513C19.2513 6.67914 18.9901 6.41797 18.668 6.41797H7.0013C6.67914 6.41797 6.41797 6.67914 6.41797 7.0013V8.2443C6.60462 8.1962 6.79963 8.16797 7.0013 8.16797H22.168C23.4566 8.16797 24.5013 9.21264 24.5013 10.5013V21.0013C24.5013 22.29 23.4566 23.3346 22.168 23.3346H13.9819L15.7217 21.5846H22.168C22.4901 21.5846 22.7513 21.3235 22.7513 21.0013V10.5013C22.7513 10.1791 22.4901 9.91797 22.168 9.91797H7.0013C6.67914 9.91797 6.41797 10.1791 6.41797 10.5013V20.8851C6.41822 21.2713 6.73128 21.5844 7.11751 21.5846H7.92871L9.66846 23.3346H6.76774C5.60812 23.3345 4.66809 22.3945 4.66797 21.2349V7.0013C4.66797 5.71264 5.71264 4.66797 7.0013 4.66797H18.668Z" fill="#336AFF"/>
<path d="M19.8346 14.5846C20.479 14.5846 21.0013 15.107 21.0013 15.7513C21.0013 16.3956 20.479 16.918 19.8346 16.918C19.1903 16.918 18.668 16.3956 18.668 15.7513C18.668 15.107 19.1903 14.5846 19.8346 14.5846Z" fill="#336AFF"/>
</svg>
