<svg width="200" height="200" viewBox="0 0 200 200" fill="none" xmlns="http://www.w3.org/2000/svg">
<rect x="3.5" y="3.5" width="193" height="193" rx="12.5" fill="white"/>
<rect x="3.5" y="3.5" width="193" height="193" rx="12.5" stroke="black" stroke-width="7"/>
<path d="M76.6641 20.0013C76.6641 18.1346 78.1307 16.668 79.9974 16.668C81.8641 16.668 83.3307 18.1346 83.3307 20.0013C83.3307 21.868 81.8641 23.3346 79.9974 23.3346C78.1307 23.3346 76.6641 21.868 76.6641 20.0013Z" fill="black"/>
<path d="M96.6641 20.0013C96.6641 18.1346 98.1307 16.668 99.9974 16.668C101.864 16.668 103.331 18.1346 103.331 20.0013C103.331 21.868 101.864 23.3346 99.9974 23.3346C98.1307 23.3346 96.6641 21.868 96.6641 20.0013Z" fill="black"/>
<path d="M109.997 20.0013C109.997 18.1346 111.464 16.668 113.331 16.668C115.197 16.668 116.664 18.1346 116.664 20.0013C116.664 21.868 115.197 23.3346 113.331 23.3346C111.464 23.3346 109.997 21.868 109.997 20.0013Z" fill="black"/>
<path d="M116.664 20.0013C116.664 18.1346 118.131 16.668 119.997 16.668C121.864 16.668 123.331 18.1346 123.331 20.0013C123.331 21.868 121.864 23.3346 119.997 23.3346C118.131 23.3346 116.664 21.868 116.664 20.0013Z" fill="black"/>
<path d="M83.3307 26.668C83.3307 24.8013 84.7974 23.3346 86.6641 23.3346C88.5307 23.3346 89.9974 24.8013 89.9974 26.668C89.9974 28.5346 88.5307 30.0013 86.6641 30.0013C84.7974 30.0013 83.3307 28.5346 83.3307 26.668Z" fill="black"/>
<path d="M89.9974 26.668C89.9974 24.8013 91.4641 23.3346 93.3307 23.3346C95.1974 23.3346 96.6641 24.8013 96.6641 26.668C96.6641 28.5346 95.1974 30.0013 93.3307 30.0013C91.4641 30.0013 89.9974 28.5346 89.9974 26.668Z" fill="black"/>
<path d="M96.6641 26.668C96.6641 24.8013 98.1307 23.3346 99.9974 23.3346C101.864 23.3346 103.331 24.8013 103.331 26.668C103.331 28.5346 101.864 30.0013 99.9974 30.0013C98.1307 30.0013 96.6641 28.5346 96.6641 26.668Z" fill="black"/>
<path d="M103.331 26.668C103.331 24.8013 104.797 23.3346 106.664 23.3346C108.531 23.3346 109.997 24.8013 109.997 26.668C109.997 28.5346 108.531 30.0013 106.664 30.0013C104.797 30.0013 103.331 28.5346 103.331 26.668Z" fill="black"/>
<path d="M116.664 26.668C116.664 24.8013 118.131 23.3346 119.997 23.3346C121.864 23.3346 123.331 24.8013 123.331 26.668C123.331 28.5346 121.864 30.0013 119.997 30.0013C118.131 30.0013 116.664 28.5346 116.664 26.668Z" fill="black"/>
<path d="M69.9974 33.3346C69.9974 31.468 71.4641 30.0013 73.3307 30.0013C75.1974 30.0013 76.6641 31.468 76.6641 33.3346C76.6641 35.2013 75.1974 36.668 73.3307 36.668C71.4641 36.668 69.9974 35.2013 69.9974 33.3346Z" fill="black"/>
<path d="M76.6641 33.3346C76.6641 31.468 78.1307 30.0013 79.9974 30.0013C81.8641 30.0013 83.3307 31.468 83.3307 33.3346C83.3307 35.2013 81.8641 36.668 79.9974 36.668C78.1307 36.668 76.6641 35.2013 76.6641 33.3346Z" fill="black"/>
<path d="M83.3307 33.3346C83.3307 31.468 84.7974 30.0013 86.6641 30.0013C88.5307 30.0013 89.9974 31.468 89.9974 33.3346C89.9974 35.2013 88.5307 36.668 86.6641 36.668C84.7974 36.668 83.3307 35.2013 83.3307 33.3346Z" fill="black"/>
<path d="M96.6641 33.3346C96.6641 31.468 98.1307 30.0013 99.9974 30.0013C101.864 30.0013 103.331 31.468 103.331 33.3346C103.331 35.2013 101.864 36.668 99.9974 36.668C98.1307 36.668 96.6641 35.2013 96.6641 33.3346Z" fill="black"/>
<path d="M123.331 33.3346C123.331 31.468 124.797 30.0013 126.664 30.0013C128.531 30.0013 129.997 31.468 129.997 33.3346C129.997 35.2013 128.531 36.668 126.664 36.668C124.797 36.668 123.331 35.2013 123.331 33.3346Z" fill="black"/>
<path d="M76.6641 40.0013C76.6641 38.1346 78.1307 36.668 79.9974 36.668C81.8641 36.668 83.3307 38.1346 83.3307 40.0013C83.3307 41.868 81.8641 43.3346 79.9974 43.3346C78.1307 43.3346 76.6641 41.868 76.6641 40.0013Z" fill="black"/>
<path d="M83.3307 40.0013C83.3307 38.1346 84.7974 36.668 86.6641 36.668C88.5307 36.668 89.9974 38.1346 89.9974 40.0013C89.9974 41.868 88.5307 43.3346 86.6641 43.3346C84.7974 43.3346 83.3307 41.868 83.3307 40.0013Z" fill="black"/>
<path d="M89.9974 40.0013C89.9974 38.1346 91.4641 36.668 93.3307 36.668C95.1974 36.668 96.6641 38.1346 96.6641 40.0013C96.6641 41.868 95.1974 43.3346 93.3307 43.3346C91.4641 43.3346 89.9974 41.868 89.9974 40.0013Z" fill="black"/>
<path d="M109.997 40.0013C109.997 38.1346 111.464 36.668 113.331 36.668C115.197 36.668 116.664 38.1346 116.664 40.0013C116.664 41.868 115.197 43.3346 113.331 43.3346C111.464 43.3346 109.997 41.868 109.997 40.0013Z" fill="black"/>
<path d="M83.3307 46.668C83.3307 44.8013 84.7974 43.3346 86.6641 43.3346C88.5307 43.3346 89.9974 44.8013 89.9974 46.668C89.9974 48.5346 88.5307 50.0013 86.6641 50.0013C84.7974 50.0013 83.3307 48.5346 83.3307 46.668Z" fill="black"/>
<path d="M103.331 46.668C103.331 44.8013 104.797 43.3346 106.664 43.3346C108.531 43.3346 109.997 44.8013 109.997 46.668C109.997 48.5346 108.531 50.0013 106.664 50.0013C104.797 50.0013 103.331 48.5346 103.331 46.668Z" fill="black"/>
<path d="M109.997 46.668C109.997 44.8013 111.464 43.3346 113.331 43.3346C115.197 43.3346 116.664 44.8013 116.664 46.668C116.664 48.5346 115.197 50.0013 113.331 50.0013C111.464 50.0013 109.997 48.5346 109.997 46.668Z" fill="black"/>
<path d="M116.664 46.668C116.664 44.8013 118.131 43.3346 119.997 43.3346C121.864 43.3346 123.331 44.8013 123.331 46.668C123.331 48.5346 121.864 50.0013 119.997 50.0013C118.131 50.0013 116.664 48.5346 116.664 46.668Z" fill="black"/>
<path d="M76.6641 53.3346C76.6641 51.468 78.1307 50.0013 79.9974 50.0013C81.8641 50.0013 83.3307 51.468 83.3307 53.3346C83.3307 55.2013 81.8641 56.668 79.9974 56.668C78.1307 56.668 76.6641 55.2013 76.6641 53.3346Z" fill="black"/>
<path d="M109.997 53.3346C109.997 51.468 111.464 50.0013 113.331 50.0013C115.197 50.0013 116.664 51.468 116.664 53.3346C116.664 55.2013 115.197 56.668 113.331 56.668C111.464 56.668 109.997 55.2013 109.997 53.3346Z" fill="black"/>
<path d="M116.664 53.3346C116.664 51.468 118.131 50.0013 119.997 50.0013C121.864 50.0013 123.331 51.468 123.331 53.3346C123.331 55.2013 121.864 56.668 119.997 56.668C118.131 56.668 116.664 55.2013 116.664 53.3346Z" fill="black"/>
<path d="M123.331 53.3346C123.331 51.468 124.797 50.0013 126.664 50.0013C128.531 50.0013 129.997 51.468 129.997 53.3346C129.997 55.2013 128.531 56.668 126.664 56.668C124.797 56.668 123.331 55.2013 123.331 53.3346Z" fill="black"/>
<path d="M69.9974 60.0013C69.9974 58.1346 71.4641 56.668 73.3307 56.668C75.1974 56.668 76.6641 58.1346 76.6641 60.0013C76.6641 61.868 75.1974 63.3346 73.3307 63.3346C71.4641 63.3346 69.9974 61.868 69.9974 60.0013Z" fill="black"/>
<path d="M83.3307 60.0013C83.3307 58.1346 84.7974 56.668 86.6641 56.668C88.5307 56.668 89.9974 58.1346 89.9974 60.0013C89.9974 61.868 88.5307 63.3346 86.6641 63.3346C84.7974 63.3346 83.3307 61.868 83.3307 60.0013Z" fill="black"/>
<path d="M96.6641 60.0013C96.6641 58.1346 98.1307 56.668 99.9974 56.668C101.864 56.668 103.331 58.1346 103.331 60.0013C103.331 61.868 101.864 63.3346 99.9974 63.3346C98.1307 63.3346 96.6641 61.868 96.6641 60.0013Z" fill="black"/>
<path d="M109.997 60.0013C109.997 58.1346 111.464 56.668 113.331 56.668C115.197 56.668 116.664 58.1346 116.664 60.0013C116.664 61.868 115.197 63.3346 113.331 63.3346C111.464 63.3346 109.997 61.868 109.997 60.0013Z" fill="black"/>
<path d="M123.331 60.0013C123.331 58.1346 124.797 56.668 126.664 56.668C128.531 56.668 129.997 58.1346 129.997 60.0013C129.997 61.868 128.531 63.3346 126.664 63.3346C124.797 63.3346 123.331 61.868 123.331 60.0013Z" fill="black"/>
<path d="M69.9974 66.668C69.9974 64.8013 71.4641 63.3346 73.3307 63.3346C75.1974 63.3346 76.6641 64.8013 76.6641 66.668C76.6641 68.5346 75.1974 70.0013 73.3307 70.0013C71.4641 70.0013 69.9974 68.5346 69.9974 66.668Z" fill="black"/>
<path d="M76.6641 66.668C76.6641 64.8013 78.1307 63.3346 79.9974 63.3346C81.8641 63.3346 83.3307 64.8013 83.3307 66.668C83.3307 68.5346 81.8641 70.0013 79.9974 70.0013C78.1307 70.0013 76.6641 68.5346 76.6641 66.668Z" fill="black"/>
<path d="M83.3307 66.668C83.3307 64.8013 84.7974 63.3346 86.6641 63.3346C88.5307 63.3346 89.9974 64.8013 89.9974 66.668C89.9974 68.5346 88.5307 70.0013 86.6641 70.0013C84.7974 70.0013 83.3307 68.5346 83.3307 66.668Z" fill="black"/>
<path d="M96.6641 66.668C96.6641 64.8013 98.1307 63.3346 99.9974 63.3346C101.864 63.3346 103.331 64.8013 103.331 66.668C103.331 68.5346 101.864 70.0013 99.9974 70.0013C98.1307 70.0013 96.6641 68.5346 96.6641 66.668Z" fill="black"/>
<path d="M103.331 66.668C103.331 64.8013 104.797 63.3346 106.664 63.3346C108.531 63.3346 109.997 64.8013 109.997 66.668C109.997 68.5346 108.531 70.0013 106.664 70.0013C104.797 70.0013 103.331 68.5346 103.331 66.668Z" fill="black"/>
<path d="M16.6641 73.3346C16.6641 71.468 18.1307 70.0013 19.9974 70.0013C21.8641 70.0013 23.3307 71.468 23.3307 73.3346C23.3307 75.2013 21.8641 76.668 19.9974 76.668C18.1307 76.668 16.6641 75.2013 16.6641 73.3346Z" fill="black"/>
<path d="M23.3307 73.3346C23.3307 71.468 24.7974 70.0013 26.6641 70.0013C28.5307 70.0013 29.9974 71.468 29.9974 73.3346C29.9974 75.2013 28.5307 76.668 26.6641 76.668C24.7974 76.668 23.3307 75.2013 23.3307 73.3346Z" fill="black"/>
<path d="M29.9974 73.3346C29.9974 71.468 31.4641 70.0013 33.3307 70.0013C35.1974 70.0013 36.6641 71.468 36.6641 73.3346C36.6641 75.2013 35.1974 76.668 33.3307 76.668C31.4641 76.668 29.9974 75.2013 29.9974 73.3346Z" fill="black"/>
<path d="M43.3307 73.3346C43.3307 71.468 44.7974 70.0013 46.6641 70.0013C48.5307 70.0013 49.9974 71.468 49.9974 73.3346C49.9974 75.2013 48.5307 76.668 46.6641 76.668C44.7974 76.668 43.3307 75.2013 43.3307 73.3346Z" fill="black"/>
<path d="M49.9974 73.3346C49.9974 71.468 51.4641 70.0013 53.3307 70.0013C55.1974 70.0013 56.6641 71.468 56.6641 73.3346C56.6641 75.2013 55.1974 76.668 53.3307 76.668C51.4641 76.668 49.9974 75.2013 49.9974 73.3346Z" fill="black"/>
<path d="M56.6641 73.3346C56.6641 71.468 58.1307 70.0013 59.9974 70.0013C61.8641 70.0013 63.3307 71.468 63.3307 73.3346C63.3307 75.2013 61.8641 76.668 59.9974 76.668C58.1307 76.668 56.6641 75.2013 56.6641 73.3346Z" fill="black"/>
<path d="M63.3307 73.3346C63.3307 71.468 64.7974 70.0013 66.6641 70.0013C68.5307 70.0013 69.9974 71.468 69.9974 73.3346C69.9974 75.2013 68.5307 76.668 66.6641 76.668C64.7974 76.668 63.3307 75.2013 63.3307 73.3346Z" fill="black"/>
<path d="M123.331 73.3346C123.331 71.468 124.797 70.0013 126.664 70.0013C128.531 70.0013 129.997 71.468 129.997 73.3346C129.997 75.2013 128.531 76.668 126.664 76.668C124.797 76.668 123.331 75.2013 123.331 73.3346Z" fill="black"/>
<path d="M129.997 73.3346C129.997 71.468 131.464 70.0013 133.331 70.0013C135.197 70.0013 136.664 71.468 136.664 73.3346C136.664 75.2013 135.197 76.668 133.331 76.668C131.464 76.668 129.997 75.2013 129.997 73.3346Z" fill="black"/>
<path d="M136.664 73.3346C136.664 71.468 138.131 70.0013 139.997 70.0013C141.864 70.0013 143.331 71.468 143.331 73.3346C143.331 75.2013 141.864 76.668 139.997 76.668C138.131 76.668 136.664 75.2013 136.664 73.3346Z" fill="black"/>
<path d="M163.331 73.3346C163.331 71.468 164.797 70.0013 166.664 70.0013C168.531 70.0013 169.997 71.468 169.997 73.3346C169.997 75.2013 168.531 76.668 166.664 76.668C164.797 76.668 163.331 75.2013 163.331 73.3346Z" fill="black"/>
<path d="M29.9974 80.0013C29.9974 78.1346 31.4641 76.668 33.3307 76.668C35.1974 76.668 36.6641 78.1346 36.6641 80.0013C36.6641 81.868 35.1974 83.3346 33.3307 83.3346C31.4641 83.3346 29.9974 81.868 29.9974 80.0013Z" fill="black"/>
<path d="M36.6641 80.0013C36.6641 78.1346 38.1307 76.668 39.9974 76.668C41.8641 76.668 43.3307 78.1346 43.3307 80.0013C43.3307 81.868 41.8641 83.3346 39.9974 83.3346C38.1307 83.3346 36.6641 81.868 36.6641 80.0013Z" fill="black"/>
<path d="M43.3307 80.0013C43.3307 78.1346 44.7974 76.668 46.6641 76.668C48.5307 76.668 49.9974 78.1346 49.9974 80.0013C49.9974 81.868 48.5307 83.3346 46.6641 83.3346C44.7974 83.3346 43.3307 81.868 43.3307 80.0013Z" fill="black"/>
<path d="M136.664 80.0013C136.664 78.1346 138.131 76.668 139.997 76.668C141.864 76.668 143.331 78.1346 143.331 80.0013C143.331 81.868 141.864 83.3346 139.997 83.3346C138.131 83.3346 136.664 81.868 136.664 80.0013Z" fill="black"/>
<path d="M176.664 80.0013C176.664 78.1346 178.131 76.668 179.997 76.668C181.864 76.668 183.331 78.1346 183.331 80.0013C183.331 81.868 181.864 83.3346 179.997 83.3346C178.131 83.3346 176.664 81.868 176.664 80.0013Z" fill="black"/>
<path d="M16.6641 86.668C16.6641 84.8013 18.1307 83.3346 19.9974 83.3346C21.8641 83.3346 23.3307 84.8013 23.3307 86.668C23.3307 88.5346 21.8641 90.0013 19.9974 90.0013C18.1307 90.0013 16.6641 88.5346 16.6641 86.668Z" fill="black"/>
<path d="M23.3307 86.668C23.3307 84.8013 24.7974 83.3346 26.6641 83.3346C28.5307 83.3346 29.9974 84.8013 29.9974 86.668C29.9974 88.5346 28.5307 90.0013 26.6641 90.0013C24.7974 90.0013 23.3307 88.5346 23.3307 86.668Z" fill="black"/>
<path d="M43.3307 86.668C43.3307 84.8013 44.7974 83.3346 46.6641 83.3346C48.5307 83.3346 49.9974 84.8013 49.9974 86.668C49.9974 88.5346 48.5307 90.0013 46.6641 90.0013C44.7974 90.0013 43.3307 88.5346 43.3307 86.668Z" fill="black"/>
<path d="M49.9974 86.668C49.9974 84.8013 51.4641 83.3346 53.3307 83.3346C55.1974 83.3346 56.6641 84.8013 56.6641 86.668C56.6641 88.5346 55.1974 90.0013 53.3307 90.0013C51.4641 90.0013 49.9974 88.5346 49.9974 86.668Z" fill="black"/>
<path d="M56.6641 86.668C56.6641 84.8013 58.1307 83.3346 59.9974 83.3346C61.8641 83.3346 63.3307 84.8013 63.3307 86.668C63.3307 88.5346 61.8641 90.0013 59.9974 90.0013C58.1307 90.0013 56.6641 88.5346 56.6641 86.668Z" fill="black"/>
<path d="M136.664 86.668C136.664 84.8013 138.131 83.3346 139.997 83.3346C141.864 83.3346 143.331 84.8013 143.331 86.668C143.331 88.5346 141.864 90.0013 139.997 90.0013C138.131 90.0013 136.664 88.5346 136.664 86.668Z" fill="black"/>
<path d="M149.997 86.668C149.997 84.8013 151.464 83.3346 153.331 83.3346C155.197 83.3346 156.664 84.8013 156.664 86.668C156.664 88.5346 155.197 90.0013 153.331 90.0013C151.464 90.0013 149.997 88.5346 149.997 86.668Z" fill="black"/>
<path d="M163.331 86.668C163.331 84.8013 164.797 83.3346 166.664 83.3346C168.531 83.3346 169.997 84.8013 169.997 86.668C169.997 88.5346 168.531 90.0013 166.664 90.0013C164.797 90.0013 163.331 88.5346 163.331 86.668Z" fill="black"/>
<path d="M169.997 86.668C169.997 84.8013 171.464 83.3346 173.331 83.3346C175.197 83.3346 176.664 84.8013 176.664 86.668C176.664 88.5346 175.197 90.0013 173.331 90.0013C171.464 90.0013 169.997 88.5346 169.997 86.668Z" fill="black"/>
<path d="M176.664 86.668C176.664 84.8013 178.131 83.3346 179.997 83.3346C181.864 83.3346 183.331 84.8013 183.331 86.668C183.331 88.5346 181.864 90.0013 179.997 90.0013C178.131 90.0013 176.664 88.5346 176.664 86.668Z" fill="black"/>
<path d="M29.9974 93.3346C29.9974 91.468 31.4641 90.0013 33.3307 90.0013C35.1974 90.0013 36.6641 91.468 36.6641 93.3346C36.6641 95.2013 35.1974 96.668 33.3307 96.668C31.4641 96.668 29.9974 95.2013 29.9974 93.3346Z" fill="black"/>
<path d="M43.3307 93.3346C43.3307 91.468 44.7974 90.0013 46.6641 90.0013C48.5307 90.0013 49.9974 91.468 49.9974 93.3346C49.9974 95.2013 48.5307 96.668 46.6641 96.668C44.7974 96.668 43.3307 95.2013 43.3307 93.3346Z" fill="black"/>
<path d="M49.9974 93.3346C49.9974 91.468 51.4641 90.0013 53.3307 90.0013C55.1974 90.0013 56.6641 91.468 56.6641 93.3346C56.6641 95.2013 55.1974 96.668 53.3307 96.668C51.4641 96.668 49.9974 95.2013 49.9974 93.3346Z" fill="black"/>
<path d="M63.3307 93.3346C63.3307 91.468 64.7974 90.0013 66.6641 90.0013C68.5307 90.0013 69.9974 91.468 69.9974 93.3346C69.9974 95.2013 68.5307 96.668 66.6641 96.668C64.7974 96.668 63.3307 95.2013 63.3307 93.3346Z" fill="black"/>
<path d="M129.997 93.3346C129.997 91.468 131.464 90.0013 133.331 90.0013C135.197 90.0013 136.664 91.468 136.664 93.3346C136.664 95.2013 135.197 96.668 133.331 96.668C131.464 96.668 129.997 95.2013 129.997 93.3346Z" fill="black"/>
<path d="M136.664 93.3346C136.664 91.468 138.131 90.0013 139.997 90.0013C141.864 90.0013 143.331 91.468 143.331 93.3346C143.331 95.2013 141.864 96.668 139.997 96.668C138.131 96.668 136.664 95.2013 136.664 93.3346Z" fill="black"/>
<path d="M143.331 93.3346C143.331 91.468 144.797 90.0013 146.664 90.0013C148.531 90.0013 149.997 91.468 149.997 93.3346C149.997 95.2013 148.531 96.668 146.664 96.668C144.797 96.668 143.331 95.2013 143.331 93.3346Z" fill="black"/>
<path d="M149.997 93.3346C149.997 91.468 151.464 90.0013 153.331 90.0013C155.197 90.0013 156.664 91.468 156.664 93.3346C156.664 95.2013 155.197 96.668 153.331 96.668C151.464 96.668 149.997 95.2013 149.997 93.3346Z" fill="black"/>
<path d="M169.997 93.3346C169.997 91.468 171.464 90.0013 173.331 90.0013C175.197 90.0013 176.664 91.468 176.664 93.3346C176.664 95.2013 175.197 96.668 173.331 96.668C171.464 96.668 169.997 95.2013 169.997 93.3346Z" fill="black"/>
<path d="M29.9974 100.001C29.9974 98.1346 31.4641 96.668 33.3307 96.668C35.1974 96.668 36.6641 98.1346 36.6641 100.001C36.6641 101.868 35.1974 103.335 33.3307 103.335C31.4641 103.335 29.9974 101.868 29.9974 100.001Z" fill="black"/>
<path d="M36.6641 100.001C36.6641 98.1346 38.1307 96.668 39.9974 96.668C41.8641 96.668 43.3307 98.1346 43.3307 100.001C43.3307 101.868 41.8641 103.335 39.9974 103.335C38.1307 103.335 36.6641 101.868 36.6641 100.001Z" fill="black"/>
<path d="M56.6641 100.001C56.6641 98.1346 58.1307 96.668 59.9974 96.668C61.8641 96.668 63.3307 98.1346 63.3307 100.001C63.3307 101.868 61.8641 103.335 59.9974 103.335C58.1307 103.335 56.6641 101.868 56.6641 100.001Z" fill="black"/>
<path d="M129.997 100.001C129.997 98.1346 131.464 96.668 133.331 96.668C135.197 96.668 136.664 98.1346 136.664 100.001C136.664 101.868 135.197 103.335 133.331 103.335C131.464 103.335 129.997 101.868 129.997 100.001Z" fill="black"/>
<path d="M136.664 100.001C136.664 98.1346 138.131 96.668 139.997 96.668C141.864 96.668 143.331 98.1346 143.331 100.001C143.331 101.868 141.864 103.335 139.997 103.335C138.131 103.335 136.664 101.868 136.664 100.001Z" fill="black"/>
<path d="M143.331 100.001C143.331 98.1346 144.797 96.668 146.664 96.668C148.531 96.668 149.997 98.1346 149.997 100.001C149.997 101.868 148.531 103.335 146.664 103.335C144.797 103.335 143.331 101.868 143.331 100.001Z" fill="black"/>
<path d="M156.664 100.001C156.664 98.1346 158.131 96.668 159.997 96.668C161.864 96.668 163.331 98.1346 163.331 100.001C163.331 101.868 161.864 103.335 159.997 103.335C158.131 103.335 156.664 101.868 156.664 100.001Z" fill="black"/>
<path d="M169.997 100.001C169.997 98.1346 171.464 96.668 173.331 96.668C175.197 96.668 176.664 98.1346 176.664 100.001C176.664 101.868 175.197 103.335 173.331 103.335C171.464 103.335 169.997 101.868 169.997 100.001Z" fill="black"/>
<path d="M176.664 100.001C176.664 98.1346 178.131 96.668 179.997 96.668C181.864 96.668 183.331 98.1346 183.331 100.001C183.331 101.868 181.864 103.335 179.997 103.335C178.131 103.335 176.664 101.868 176.664 100.001Z" fill="black"/>
<path d="M23.3307 106.668C23.3307 104.801 24.7974 103.335 26.6641 103.335C28.5307 103.335 29.9974 104.801 29.9974 106.668C29.9974 108.535 28.5307 110.001 26.6641 110.001C24.7974 110.001 23.3307 108.535 23.3307 106.668Z" fill="black"/>
<path d="M36.6641 106.668C36.6641 104.801 38.1307 103.335 39.9974 103.335C41.8641 103.335 43.3307 104.801 43.3307 106.668C43.3307 108.535 41.8641 110.001 39.9974 110.001C38.1307 110.001 36.6641 108.535 36.6641 106.668Z" fill="black"/>
<path d="M43.3307 106.668C43.3307 104.801 44.7974 103.335 46.6641 103.335C48.5307 103.335 49.9974 104.801 49.9974 106.668C49.9974 108.535 48.5307 110.001 46.6641 110.001C44.7974 110.001 43.3307 108.535 43.3307 106.668Z" fill="black"/>
<path d="M129.997 106.668C129.997 104.801 131.464 103.335 133.331 103.335C135.197 103.335 136.664 104.801 136.664 106.668C136.664 108.535 135.197 110.001 133.331 110.001C131.464 110.001 129.997 108.535 129.997 106.668Z" fill="black"/>
<path d="M136.664 106.668C136.664 104.801 138.131 103.335 139.997 103.335C141.864 103.335 143.331 104.801 143.331 106.668C143.331 108.535 141.864 110.001 139.997 110.001C138.131 110.001 136.664 108.535 136.664 106.668Z" fill="black"/>
<path d="M156.664 106.668C156.664 104.801 158.131 103.335 159.997 103.335C161.864 103.335 163.331 104.801 163.331 106.668C163.331 108.535 161.864 110.001 159.997 110.001C158.131 110.001 156.664 108.535 156.664 106.668Z" fill="black"/>
<path d="M176.664 106.668C176.664 104.801 178.131 103.335 179.997 103.335C181.864 103.335 183.331 104.801 183.331 106.668C183.331 108.535 181.864 110.001 179.997 110.001C178.131 110.001 176.664 108.535 176.664 106.668Z" fill="black"/>
<path d="M16.6641 113.335C16.6641 111.468 18.1307 110.001 19.9974 110.001C21.8641 110.001 23.3307 111.468 23.3307 113.335C23.3307 115.201 21.8641 116.668 19.9974 116.668C18.1307 116.668 16.6641 115.201 16.6641 113.335Z" fill="black"/>
<path d="M49.9974 113.335C49.9974 111.468 51.4641 110.001 53.3307 110.001C55.1974 110.001 56.6641 111.468 56.6641 113.335C56.6641 115.201 55.1974 116.668 53.3307 116.668C51.4641 116.668 49.9974 115.201 49.9974 113.335Z" fill="black"/>
<path d="M56.6641 113.335C56.6641 111.468 58.1307 110.001 59.9974 110.001C61.8641 110.001 63.3307 111.468 63.3307 113.335C63.3307 115.201 61.8641 116.668 59.9974 116.668C58.1307 116.668 56.6641 115.201 56.6641 113.335Z" fill="black"/>
<path d="M129.997 113.335C129.997 111.468 131.464 110.001 133.331 110.001C135.197 110.001 136.664 111.468 136.664 113.335C136.664 115.201 135.197 116.668 133.331 116.668C131.464 116.668 129.997 115.201 129.997 113.335Z" fill="black"/>
<path d="M136.664 113.335C136.664 111.468 138.131 110.001 139.997 110.001C141.864 110.001 143.331 111.468 143.331 113.335C143.331 115.201 141.864 116.668 139.997 116.668C138.131 116.668 136.664 115.201 136.664 113.335Z" fill="black"/>
<path d="M143.331 113.335C143.331 111.468 144.797 110.001 146.664 110.001C148.531 110.001 149.997 111.468 149.997 113.335C149.997 115.201 148.531 116.668 146.664 116.668C144.797 116.668 143.331 115.201 143.331 113.335Z" fill="black"/>
<path d="M163.331 113.335C163.331 111.468 164.797 110.001 166.664 110.001C168.531 110.001 169.997 111.468 169.997 113.335C169.997 115.201 168.531 116.668 166.664 116.668C164.797 116.668 163.331 115.201 163.331 113.335Z" fill="black"/>
<path d="M169.997 113.335C169.997 111.468 171.464 110.001 173.331 110.001C175.197 110.001 176.664 111.468 176.664 113.335C176.664 115.201 175.197 116.668 173.331 116.668C171.464 116.668 169.997 115.201 169.997 113.335Z" fill="black"/>
<path d="M176.664 113.335C176.664 111.468 178.131 110.001 179.997 110.001C181.864 110.001 183.331 111.468 183.331 113.335C183.331 115.201 181.864 116.668 179.997 116.668C178.131 116.668 176.664 115.201 176.664 113.335Z" fill="black"/>
<path d="M23.3307 120.001C23.3307 118.135 24.7974 116.668 26.6641 116.668C28.5307 116.668 29.9974 118.135 29.9974 120.001C29.9974 121.868 28.5307 123.335 26.6641 123.335C24.7974 123.335 23.3307 121.868 23.3307 120.001Z" fill="black"/>
<path d="M29.9974 120.001C29.9974 118.135 31.4641 116.668 33.3307 116.668C35.1974 116.668 36.6641 118.135 36.6641 120.001C36.6641 121.868 35.1974 123.335 33.3307 123.335C31.4641 123.335 29.9974 121.868 29.9974 120.001Z" fill="black"/>
<path d="M36.6641 120.001C36.6641 118.135 38.1307 116.668 39.9974 116.668C41.8641 116.668 43.3307 118.135 43.3307 120.001C43.3307 121.868 41.8641 123.335 39.9974 123.335C38.1307 123.335 36.6641 121.868 36.6641 120.001Z" fill="black"/>
<path d="M49.9974 120.001C49.9974 118.135 51.4641 116.668 53.3307 116.668C55.1974 116.668 56.6641 118.135 56.6641 120.001C56.6641 121.868 55.1974 123.335 53.3307 123.335C51.4641 123.335 49.9974 121.868 49.9974 120.001Z" fill="black"/>
<path d="M63.3307 120.001C63.3307 118.135 64.7974 116.668 66.6641 116.668C68.5307 116.668 69.9974 118.135 69.9974 120.001C69.9974 121.868 68.5307 123.335 66.6641 123.335C64.7974 123.335 63.3307 121.868 63.3307 120.001Z" fill="black"/>
<path d="M123.331 120.001C123.331 118.135 124.797 116.668 126.664 116.668C128.531 116.668 129.997 118.135 129.997 120.001C129.997 121.868 128.531 123.335 126.664 123.335C124.797 123.335 123.331 121.868 123.331 120.001Z" fill="black"/>
<path d="M149.997 120.001C149.997 118.135 151.464 116.668 153.331 116.668C155.197 116.668 156.664 118.135 156.664 120.001C156.664 121.868 155.197 123.335 153.331 123.335C151.464 123.335 149.997 121.868 149.997 120.001Z" fill="black"/>
<path d="M169.997 120.001C169.997 118.135 171.464 116.668 173.331 116.668C175.197 116.668 176.664 118.135 176.664 120.001C176.664 121.868 175.197 123.335 173.331 123.335C171.464 123.335 169.997 121.868 169.997 120.001Z" fill="black"/>
<path d="M16.6641 126.668C16.6641 124.801 18.1307 123.335 19.9974 123.335C21.8641 123.335 23.3307 124.801 23.3307 126.668C23.3307 128.535 21.8641 130.001 19.9974 130.001C18.1307 130.001 16.6641 128.535 16.6641 126.668Z" fill="black"/>
<path d="M29.9974 126.668C29.9974 124.801 31.4641 123.335 33.3307 123.335C35.1974 123.335 36.6641 124.801 36.6641 126.668C36.6641 128.535 35.1974 130.001 33.3307 130.001C31.4641 130.001 29.9974 128.535 29.9974 126.668Z" fill="black"/>
<path d="M49.9974 126.668C49.9974 124.801 51.4641 123.335 53.3307 123.335C55.1974 123.335 56.6641 124.801 56.6641 126.668C56.6641 128.535 55.1974 130.001 53.3307 130.001C51.4641 130.001 49.9974 128.535 49.9974 126.668Z" fill="black"/>
<path d="M56.6641 126.668C56.6641 124.801 58.1307 123.335 59.9974 123.335C61.8641 123.335 63.3307 124.801 63.3307 126.668C63.3307 128.535 61.8641 130.001 59.9974 130.001C58.1307 130.001 56.6641 128.535 56.6641 126.668Z" fill="black"/>
<path d="M63.3307 126.668C63.3307 124.801 64.7974 123.335 66.6641 123.335C68.5307 123.335 69.9974 124.801 69.9974 126.668C69.9974 128.535 68.5307 130.001 66.6641 130.001C64.7974 130.001 63.3307 128.535 63.3307 126.668Z" fill="black"/>
<path d="M69.9974 126.668C69.9974 124.801 71.4641 123.335 73.3307 123.335C75.1974 123.335 76.6641 124.801 76.6641 126.668C76.6641 128.535 75.1974 130.001 73.3307 130.001C71.4641 130.001 69.9974 128.535 69.9974 126.668Z" fill="black"/>
<path d="M123.331 126.668C123.331 124.801 124.797 123.335 126.664 123.335C128.531 123.335 129.997 124.801 129.997 126.668C129.997 128.535 128.531 130.001 126.664 130.001C124.797 130.001 123.331 128.535 123.331 126.668Z" fill="black"/>
<path d="M129.997 126.668C129.997 124.801 131.464 123.335 133.331 123.335C135.197 123.335 136.664 124.801 136.664 126.668C136.664 128.535 135.197 130.001 133.331 130.001C131.464 130.001 129.997 128.535 129.997 126.668Z" fill="black"/>
<path d="M136.664 126.668C136.664 124.801 138.131 123.335 139.997 123.335C141.864 123.335 143.331 124.801 143.331 126.668C143.331 128.535 141.864 130.001 139.997 130.001C138.131 130.001 136.664 128.535 136.664 126.668Z" fill="black"/>
<path d="M143.331 126.668C143.331 124.801 144.797 123.335 146.664 123.335C148.531 123.335 149.997 124.801 149.997 126.668C149.997 128.535 148.531 130.001 146.664 130.001C144.797 130.001 143.331 128.535 143.331 126.668Z" fill="black"/>
<path d="M149.997 126.668C149.997 124.801 151.464 123.335 153.331 123.335C155.197 123.335 156.664 124.801 156.664 126.668C156.664 128.535 155.197 130.001 153.331 130.001C151.464 130.001 149.997 128.535 149.997 126.668Z" fill="black"/>
<path d="M156.664 126.668C156.664 124.801 158.131 123.335 159.997 123.335C161.864 123.335 163.331 124.801 163.331 126.668C163.331 128.535 161.864 130.001 159.997 130.001C158.131 130.001 156.664 128.535 156.664 126.668Z" fill="black"/>
<path d="M69.9974 133.335C69.9974 131.468 71.4641 130.001 73.3307 130.001C75.1974 130.001 76.6641 131.468 76.6641 133.335C76.6641 135.201 75.1974 136.668 73.3307 136.668C71.4641 136.668 69.9974 135.201 69.9974 133.335Z" fill="black"/>
<path d="M76.6641 133.335C76.6641 131.468 78.1307 130.001 79.9974 130.001C81.8641 130.001 83.3307 131.468 83.3307 133.335C83.3307 135.201 81.8641 136.668 79.9974 136.668C78.1307 136.668 76.6641 135.201 76.6641 133.335Z" fill="black"/>
<path d="M89.9974 133.335C89.9974 131.468 91.4641 130.001 93.3307 130.001C95.1974 130.001 96.6641 131.468 96.6641 133.335C96.6641 135.201 95.1974 136.668 93.3307 136.668C91.4641 136.668 89.9974 135.201 89.9974 133.335Z" fill="black"/>
<path d="M116.664 133.335C116.664 131.468 118.131 130.001 119.997 130.001C121.864 130.001 123.331 131.468 123.331 133.335C123.331 135.201 121.864 136.668 119.997 136.668C118.131 136.668 116.664 135.201 116.664 133.335Z" fill="black"/>
<path d="M123.331 133.335C123.331 131.468 124.797 130.001 126.664 130.001C128.531 130.001 129.997 131.468 129.997 133.335C129.997 135.201 128.531 136.668 126.664 136.668C124.797 136.668 123.331 135.201 123.331 133.335Z" fill="black"/>
<path d="M149.997 133.335C149.997 131.468 151.464 130.001 153.331 130.001C155.197 130.001 156.664 131.468 156.664 133.335C156.664 135.201 155.197 136.668 153.331 136.668C151.464 136.668 149.997 135.201 149.997 133.335Z" fill="black"/>
<path d="M156.664 133.335C156.664 131.468 158.131 130.001 159.997 130.001C161.864 130.001 163.331 131.468 163.331 133.335C163.331 135.201 161.864 136.668 159.997 136.668C158.131 136.668 156.664 135.201 156.664 133.335Z" fill="black"/>
<path d="M169.997 133.335C169.997 131.468 171.464 130.001 173.331 130.001C175.197 130.001 176.664 131.468 176.664 133.335C176.664 135.201 175.197 136.668 173.331 136.668C171.464 136.668 169.997 135.201 169.997 133.335Z" fill="black"/>
<path d="M176.664 133.335C176.664 131.468 178.131 130.001 179.997 130.001C181.864 130.001 183.331 131.468 183.331 133.335C183.331 135.201 181.864 136.668 179.997 136.668C178.131 136.668 176.664 135.201 176.664 133.335Z" fill="black"/>
<path d="M69.9974 140.001C69.9974 138.135 71.4641 136.668 73.3307 136.668C75.1974 136.668 76.6641 138.135 76.6641 140.001C76.6641 141.868 75.1974 143.335 73.3307 143.335C71.4641 143.335 69.9974 141.868 69.9974 140.001Z" fill="black"/>
<path d="M83.3307 140.001C83.3307 138.135 84.7974 136.668 86.6641 136.668C88.5307 136.668 89.9974 138.135 89.9974 140.001C89.9974 141.868 88.5307 143.335 86.6641 143.335C84.7974 143.335 83.3307 141.868 83.3307 140.001Z" fill="black"/>
<path d="M96.6641 140.001C96.6641 138.135 98.1307 136.668 99.9974 136.668C101.864 136.668 103.331 138.135 103.331 140.001C103.331 141.868 101.864 143.335 99.9974 143.335C98.1307 143.335 96.6641 141.868 96.6641 140.001Z" fill="black"/>
<path d="M103.331 140.001C103.331 138.135 104.797 136.668 106.664 136.668C108.531 136.668 109.997 138.135 109.997 140.001C109.997 141.868 108.531 143.335 106.664 143.335C104.797 143.335 103.331 141.868 103.331 140.001Z" fill="black"/>
<path d="M116.664 140.001C116.664 138.135 118.131 136.668 119.997 136.668C121.864 136.668 123.331 138.135 123.331 140.001C123.331 141.868 121.864 143.335 119.997 143.335C118.131 143.335 116.664 141.868 116.664 140.001Z" fill="black"/>
<path d="M123.331 140.001C123.331 138.135 124.797 136.668 126.664 136.668C128.531 136.668 129.997 138.135 129.997 140.001C129.997 141.868 128.531 143.335 126.664 143.335C124.797 143.335 123.331 141.868 123.331 140.001Z" fill="black"/>
<path d="M136.664 140.001C136.664 138.135 138.131 136.668 139.997 136.668C141.864 136.668 143.331 138.135 143.331 140.001C143.331 141.868 141.864 143.335 139.997 143.335C138.131 143.335 136.664 141.868 136.664 140.001Z" fill="black"/>
<path d="M149.997 140.001C149.997 138.135 151.464 136.668 153.331 136.668C155.197 136.668 156.664 138.135 156.664 140.001C156.664 141.868 155.197 143.335 153.331 143.335C151.464 143.335 149.997 141.868 149.997 140.001Z" fill="black"/>
<path d="M156.664 140.001C156.664 138.135 158.131 136.668 159.997 136.668C161.864 136.668 163.331 138.135 163.331 140.001C163.331 141.868 161.864 143.335 159.997 143.335C158.131 143.335 156.664 141.868 156.664 140.001Z" fill="black"/>
<path d="M169.997 140.001C169.997 138.135 171.464 136.668 173.331 136.668C175.197 136.668 176.664 138.135 176.664 140.001C176.664 141.868 175.197 143.335 173.331 143.335C171.464 143.335 169.997 141.868 169.997 140.001Z" fill="black"/>
<path d="M176.664 140.001C176.664 138.135 178.131 136.668 179.997 136.668C181.864 136.668 183.331 138.135 183.331 140.001C183.331 141.868 181.864 143.335 179.997 143.335C178.131 143.335 176.664 141.868 176.664 140.001Z" fill="black"/>
<path d="M69.9974 146.668C69.9974 144.801 71.4641 143.335 73.3307 143.335C75.1974 143.335 76.6641 144.801 76.6641 146.668C76.6641 148.535 75.1974 150.001 73.3307 150.001C71.4641 150.001 69.9974 148.535 69.9974 146.668Z" fill="black"/>
<path d="M76.6641 146.668C76.6641 144.801 78.1307 143.335 79.9974 143.335C81.8641 143.335 83.3307 144.801 83.3307 146.668C83.3307 148.535 81.8641 150.001 79.9974 150.001C78.1307 150.001 76.6641 148.535 76.6641 146.668Z" fill="black"/>
<path d="M89.9974 146.668C89.9974 144.801 91.4641 143.335 93.3307 143.335C95.1974 143.335 96.6641 144.801 96.6641 146.668C96.6641 148.535 95.1974 150.001 93.3307 150.001C91.4641 150.001 89.9974 148.535 89.9974 146.668Z" fill="black"/>
<path d="M103.331 146.668C103.331 144.801 104.797 143.335 106.664 143.335C108.531 143.335 109.997 144.801 109.997 146.668C109.997 148.535 108.531 150.001 106.664 150.001C104.797 150.001 103.331 148.535 103.331 146.668Z" fill="black"/>
<path d="M109.997 146.668C109.997 144.801 111.464 143.335 113.331 143.335C115.197 143.335 116.664 144.801 116.664 146.668C116.664 148.535 115.197 150.001 113.331 150.001C111.464 150.001 109.997 148.535 109.997 146.668Z" fill="black"/>
<path d="M123.331 146.668C123.331 144.801 124.797 143.335 126.664 143.335C128.531 143.335 129.997 144.801 129.997 146.668C129.997 148.535 128.531 150.001 126.664 150.001C124.797 150.001 123.331 148.535 123.331 146.668Z" fill="black"/>
<path d="M149.997 146.668C149.997 144.801 151.464 143.335 153.331 143.335C155.197 143.335 156.664 144.801 156.664 146.668C156.664 148.535 155.197 150.001 153.331 150.001C151.464 150.001 149.997 148.535 149.997 146.668Z" fill="black"/>
<path d="M156.664 146.668C156.664 144.801 158.131 143.335 159.997 143.335C161.864 143.335 163.331 144.801 163.331 146.668C163.331 148.535 161.864 150.001 159.997 150.001C158.131 150.001 156.664 148.535 156.664 146.668Z" fill="black"/>
<path d="M69.9974 153.335C69.9974 151.468 71.4641 150.001 73.3307 150.001C75.1974 150.001 76.6641 151.468 76.6641 153.335C76.6641 155.201 75.1974 156.668 73.3307 156.668C71.4641 156.668 69.9974 155.201 69.9974 153.335Z" fill="black"/>
<path d="M103.331 153.335C103.331 151.468 104.797 150.001 106.664 150.001C108.531 150.001 109.997 151.468 109.997 153.335C109.997 155.201 108.531 156.668 106.664 156.668C104.797 156.668 103.331 155.201 103.331 153.335Z" fill="black"/>
<path d="M123.331 153.335C123.331 151.468 124.797 150.001 126.664 150.001C128.531 150.001 129.997 151.468 129.997 153.335C129.997 155.201 128.531 156.668 126.664 156.668C124.797 156.668 123.331 155.201 123.331 153.335Z" fill="black"/>
<path d="M129.997 153.335C129.997 151.468 131.464 150.001 133.331 150.001C135.197 150.001 136.664 151.468 136.664 153.335C136.664 155.201 135.197 156.668 133.331 156.668C131.464 156.668 129.997 155.201 129.997 153.335Z" fill="black"/>
<path d="M136.664 153.335C136.664 151.468 138.131 150.001 139.997 150.001C141.864 150.001 143.331 151.468 143.331 153.335C143.331 155.201 141.864 156.668 139.997 156.668C138.131 156.668 136.664 155.201 136.664 153.335Z" fill="black"/>
<path d="M143.331 153.335C143.331 151.468 144.797 150.001 146.664 150.001C148.531 150.001 149.997 151.468 149.997 153.335C149.997 155.201 148.531 156.668 146.664 156.668C144.797 156.668 143.331 155.201 143.331 153.335Z" fill="black"/>
<path d="M149.997 153.335C149.997 151.468 151.464 150.001 153.331 150.001C155.197 150.001 156.664 151.468 156.664 153.335C156.664 155.201 155.197 156.668 153.331 156.668C151.464 156.668 149.997 155.201 149.997 153.335Z" fill="black"/>
<path d="M156.664 153.335C156.664 151.468 158.131 150.001 159.997 150.001C161.864 150.001 163.331 151.468 163.331 153.335C163.331 155.201 161.864 156.668 159.997 156.668C158.131 156.668 156.664 155.201 156.664 153.335Z" fill="black"/>
<path d="M76.6641 160.001C76.6641 158.135 78.1307 156.668 79.9974 156.668C81.8641 156.668 83.3307 158.135 83.3307 160.001C83.3307 161.868 81.8641 163.335 79.9974 163.335C78.1307 163.335 76.6641 161.868 76.6641 160.001Z" fill="black"/>
<path d="M83.3307 160.001C83.3307 158.135 84.7974 156.668 86.6641 156.668C88.5307 156.668 89.9974 158.135 89.9974 160.001C89.9974 161.868 88.5307 163.335 86.6641 163.335C84.7974 163.335 83.3307 161.868 83.3307 160.001Z" fill="black"/>
<path d="M96.6641 160.001C96.6641 158.135 98.1307 156.668 99.9974 156.668C101.864 156.668 103.331 158.135 103.331 160.001C103.331 161.868 101.864 163.335 99.9974 163.335C98.1307 163.335 96.6641 161.868 96.6641 160.001Z" fill="black"/>
<path d="M103.331 160.001C103.331 158.135 104.797 156.668 106.664 156.668C108.531 156.668 109.997 158.135 109.997 160.001C109.997 161.868 108.531 163.335 106.664 163.335C104.797 163.335 103.331 161.868 103.331 160.001Z" fill="black"/>
<path d="M116.664 160.001C116.664 158.135 118.131 156.668 119.997 156.668C121.864 156.668 123.331 158.135 123.331 160.001C123.331 161.868 121.864 163.335 119.997 163.335C118.131 163.335 116.664 161.868 116.664 160.001Z" fill="black"/>
<path d="M123.331 160.001C123.331 158.135 124.797 156.668 126.664 156.668C128.531 156.668 129.997 158.135 129.997 160.001C129.997 161.868 128.531 163.335 126.664 163.335C124.797 163.335 123.331 161.868 123.331 160.001Z" fill="black"/>
<path d="M143.331 160.001C143.331 158.135 144.797 156.668 146.664 156.668C148.531 156.668 149.997 158.135 149.997 160.001C149.997 161.868 148.531 163.335 146.664 163.335C144.797 163.335 143.331 161.868 143.331 160.001Z" fill="black"/>
<path d="M149.997 160.001C149.997 158.135 151.464 156.668 153.331 156.668C155.197 156.668 156.664 158.135 156.664 160.001C156.664 161.868 155.197 163.335 153.331 163.335C151.464 163.335 149.997 161.868 149.997 160.001Z" fill="black"/>
<path d="M156.664 160.001C156.664 158.135 158.131 156.668 159.997 156.668C161.864 156.668 163.331 158.135 163.331 160.001C163.331 161.868 161.864 163.335 159.997 163.335C158.131 163.335 156.664 161.868 156.664 160.001Z" fill="black"/>
<path d="M163.331 160.001C163.331 158.135 164.797 156.668 166.664 156.668C168.531 156.668 169.997 158.135 169.997 160.001C169.997 161.868 168.531 163.335 166.664 163.335C164.797 163.335 163.331 161.868 163.331 160.001Z" fill="black"/>
<path d="M69.9974 166.668C69.9974 164.801 71.4641 163.335 73.3307 163.335C75.1974 163.335 76.6641 164.801 76.6641 166.668C76.6641 168.535 75.1974 170.001 73.3307 170.001C71.4641 170.001 69.9974 168.535 69.9974 166.668Z" fill="black"/>
<path d="M76.6641 166.668C76.6641 164.801 78.1307 163.335 79.9974 163.335C81.8641 163.335 83.3307 164.801 83.3307 166.668C83.3307 168.535 81.8641 170.001 79.9974 170.001C78.1307 170.001 76.6641 168.535 76.6641 166.668Z" fill="black"/>
<path d="M96.6641 166.668C96.6641 164.801 98.1307 163.335 99.9974 163.335C101.864 163.335 103.331 164.801 103.331 166.668C103.331 168.535 101.864 170.001 99.9974 170.001C98.1307 170.001 96.6641 168.535 96.6641 166.668Z" fill="black"/>
<path d="M109.997 166.668C109.997 164.801 111.464 163.335 113.331 163.335C115.197 163.335 116.664 164.801 116.664 166.668C116.664 168.535 115.197 170.001 113.331 170.001C111.464 170.001 109.997 168.535 109.997 166.668Z" fill="black"/>
<path d="M116.664 166.668C116.664 164.801 118.131 163.335 119.997 163.335C121.864 163.335 123.331 164.801 123.331 166.668C123.331 168.535 121.864 170.001 119.997 170.001C118.131 170.001 116.664 168.535 116.664 166.668Z" fill="black"/>
<path d="M129.997 166.668C129.997 164.801 131.464 163.335 133.331 163.335C135.197 163.335 136.664 164.801 136.664 166.668C136.664 168.535 135.197 170.001 133.331 170.001C131.464 170.001 129.997 168.535 129.997 166.668Z" fill="black"/>
<path d="M149.997 166.668C149.997 164.801 151.464 163.335 153.331 163.335C155.197 163.335 156.664 164.801 156.664 166.668C156.664 168.535 155.197 170.001 153.331 170.001C151.464 170.001 149.997 168.535 149.997 166.668Z" fill="black"/>
<path d="M176.664 166.668C176.664 164.801 178.131 163.335 179.997 163.335C181.864 163.335 183.331 164.801 183.331 166.668C183.331 168.535 181.864 170.001 179.997 170.001C178.131 170.001 176.664 168.535 176.664 166.668Z" fill="black"/>
<path d="M69.9974 173.335C69.9974 171.468 71.4641 170.001 73.3307 170.001C75.1974 170.001 76.6641 171.468 76.6641 173.335C76.6641 175.201 75.1974 176.668 73.3307 176.668C71.4641 176.668 69.9974 175.201 69.9974 173.335Z" fill="black"/>
<path d="M76.6641 173.335C76.6641 171.468 78.1307 170.001 79.9974 170.001C81.8641 170.001 83.3307 171.468 83.3307 173.335C83.3307 175.201 81.8641 176.668 79.9974 176.668C78.1307 176.668 76.6641 175.201 76.6641 173.335Z" fill="black"/>
<path d="M83.3307 173.335C83.3307 171.468 84.7974 170.001 86.6641 170.001C88.5307 170.001 89.9974 171.468 89.9974 173.335C89.9974 175.201 88.5307 176.668 86.6641 176.668C84.7974 176.668 83.3307 175.201 83.3307 173.335Z" fill="black"/>
<path d="M89.9974 173.335C89.9974 171.468 91.4641 170.001 93.3307 170.001C95.1974 170.001 96.6641 171.468 96.6641 173.335C96.6641 175.201 95.1974 176.668 93.3307 176.668C91.4641 176.668 89.9974 175.201 89.9974 173.335Z" fill="black"/>
<path d="M103.331 173.335C103.331 171.468 104.797 170.001 106.664 170.001C108.531 170.001 109.997 171.468 109.997 173.335C109.997 175.201 108.531 176.668 106.664 176.668C104.797 176.668 103.331 175.201 103.331 173.335Z" fill="black"/>
<path d="M109.997 173.335C109.997 171.468 111.464 170.001 113.331 170.001C115.197 170.001 116.664 171.468 116.664 173.335C116.664 175.201 115.197 176.668 113.331 176.668C111.464 176.668 109.997 175.201 109.997 173.335Z" fill="black"/>
<path d="M116.664 173.335C116.664 171.468 118.131 170.001 119.997 170.001C121.864 170.001 123.331 171.468 123.331 173.335C123.331 175.201 121.864 176.668 119.997 176.668C118.131 176.668 116.664 175.201 116.664 173.335Z" fill="black"/>
<path d="M123.331 173.335C123.331 171.468 124.797 170.001 126.664 170.001C128.531 170.001 129.997 171.468 129.997 173.335C129.997 175.201 128.531 176.668 126.664 176.668C124.797 176.668 123.331 175.201 123.331 173.335Z" fill="black"/>
<path d="M129.997 173.335C129.997 171.468 131.464 170.001 133.331 170.001C135.197 170.001 136.664 171.468 136.664 173.335C136.664 175.201 135.197 176.668 133.331 176.668C131.464 176.668 129.997 175.201 129.997 173.335Z" fill="black"/>
<path d="M136.664 173.335C136.664 171.468 138.131 170.001 139.997 170.001C141.864 170.001 143.331 171.468 143.331 173.335C143.331 175.201 141.864 176.668 139.997 176.668C138.131 176.668 136.664 175.201 136.664 173.335Z" fill="black"/>
<path d="M149.997 173.335C149.997 171.468 151.464 170.001 153.331 170.001C155.197 170.001 156.664 171.468 156.664 173.335C156.664 175.201 155.197 176.668 153.331 176.668C151.464 176.668 149.997 175.201 149.997 173.335Z" fill="black"/>
<path d="M156.664 173.335C156.664 171.468 158.131 170.001 159.997 170.001C161.864 170.001 163.331 171.468 163.331 173.335C163.331 175.201 161.864 176.668 159.997 176.668C158.131 176.668 156.664 175.201 156.664 173.335Z" fill="black"/>
<path d="M169.997 173.335C169.997 171.468 171.464 170.001 173.331 170.001C175.197 170.001 176.664 171.468 176.664 173.335C176.664 175.201 175.197 176.668 173.331 176.668C171.464 176.668 169.997 175.201 169.997 173.335Z" fill="black"/>
<path d="M69.9974 180.001C69.9974 178.135 71.4641 176.668 73.3307 176.668C75.1974 176.668 76.6641 178.135 76.6641 180.001C76.6641 181.868 75.1974 183.335 73.3307 183.335C71.4641 183.335 69.9974 181.868 69.9974 180.001Z" fill="black"/>
<path d="M76.6641 180.001C76.6641 178.135 78.1307 176.668 79.9974 176.668C81.8641 176.668 83.3307 178.135 83.3307 180.001C83.3307 181.868 81.8641 183.335 79.9974 183.335C78.1307 183.335 76.6641 181.868 76.6641 180.001Z" fill="black"/>
<path d="M83.3307 180.001C83.3307 178.135 84.7974 176.668 86.6641 176.668C88.5307 176.668 89.9974 178.135 89.9974 180.001C89.9974 181.868 88.5307 183.335 86.6641 183.335C84.7974 183.335 83.3307 181.868 83.3307 180.001Z" fill="black"/>
<path d="M103.331 180.001C103.331 178.135 104.797 176.668 106.664 176.668C108.531 176.668 109.997 178.135 109.997 180.001C109.997 181.868 108.531 183.335 106.664 183.335C104.797 183.335 103.331 181.868 103.331 180.001Z" fill="black"/>
<path d="M123.331 180.001C123.331 178.135 124.797 176.668 126.664 176.668C128.531 176.668 129.997 178.135 129.997 180.001C129.997 181.868 128.531 183.335 126.664 183.335C124.797 183.335 123.331 181.868 123.331 180.001Z" fill="black"/>
<path d="M136.664 180.001C136.664 178.135 138.131 176.668 139.997 176.668C141.864 176.668 143.331 178.135 143.331 180.001C143.331 181.868 141.864 183.335 139.997 183.335C138.131 183.335 136.664 181.868 136.664 180.001Z" fill="black"/>
<path d="M143.331 180.001C143.331 178.135 144.797 176.668 146.664 176.668C148.531 176.668 149.997 178.135 149.997 180.001C149.997 181.868 148.531 183.335 146.664 183.335C144.797 183.335 143.331 181.868 143.331 180.001Z" fill="black"/>
<path d="M169.997 180.001C169.997 178.135 171.464 176.668 173.331 176.668C175.197 176.668 176.664 178.135 176.664 180.001C176.664 181.868 175.197 183.335 173.331 183.335C171.464 183.335 169.997 181.868 169.997 180.001Z" fill="black"/>
<path d="M176.664 180.001C176.664 178.135 178.131 176.668 179.997 176.668C181.864 176.668 183.331 178.135 183.331 180.001C183.331 181.868 181.864 183.335 179.997 183.335C178.131 183.335 176.664 181.868 176.664 180.001Z" fill="black"/>
<path d="M29.9974 30.0013H49.9974V50.0013H29.9974V30.0013Z" fill="black"/>
<path d="M49.9974 58.668V63.3346H29.9974V58.668H49.9974ZM58.6641 50.0013V30.0013C58.6641 25.2013 54.7974 21.3346 49.9974 21.3346H29.9974C25.1974 21.3346 21.3307 25.2013 21.3307 30.0013V50.0013C21.3307 54.8013 25.1974 58.668 29.9974 58.668V63.3346H29.6641C22.5974 63.1346 16.8641 57.468 16.6641 50.3346V30.0013C16.6641 22.668 22.6641 16.668 29.9974 16.668H49.9974C57.3307 16.668 63.3307 22.668 63.3307 30.0013V50.0013C63.3307 57.268 57.5307 63.1346 50.3307 63.3346H49.9974V58.668C54.7974 58.668 58.6641 54.8013 58.6641 50.0013Z" fill="black"/>
<path d="M149.997 30.0013H169.997V50.0013H149.997V30.0013Z" fill="black"/>
<path d="M169.997 58.668V63.3346H149.997V58.668H169.997ZM178.664 50.0013V30.0013C178.664 25.2013 174.797 21.3346 169.997 21.3346H149.997C145.197 21.3346 141.331 25.2013 141.331 30.0013V50.0013C141.331 54.8013 145.197 58.668 149.997 58.668V63.3346H149.664C142.597 63.1346 136.864 57.468 136.664 50.3346V30.0013C136.664 22.668 142.664 16.668 149.997 16.668H169.997C177.331 16.668 183.331 22.668 183.331 30.0013V50.0013C183.331 57.268 177.531 63.1346 170.331 63.3346H169.997V58.668C174.797 58.668 178.664 54.8013 178.664 50.0013Z" fill="black"/>
<path d="M29.9974 150.001H49.9974V170.001H29.9974V150.001Z" fill="black"/>
<path d="M49.9974 178.668V183.335H29.9974V178.668H49.9974ZM58.6641 170.001V150.001C58.6641 145.201 54.7974 141.335 49.9974 141.335H29.9974C25.1974 141.335 21.3307 145.201 21.3307 150.001V170.001C21.3307 174.801 25.1974 178.668 29.9974 178.668V183.335H29.6641C22.5974 183.135 16.8641 177.468 16.6641 170.335V150.001C16.6641 142.668 22.6641 136.668 29.9974 136.668H49.9974C57.3307 136.668 63.3307 142.668 63.3307 150.001V170.001C63.3307 177.268 57.5307 183.135 50.3307 183.335H49.9974V178.668C54.7974 178.668 58.6641 174.801 58.6641 170.001Z" fill="black"/>
<path fill-rule="evenodd" clip-rule="evenodd" d="M99.7318 79.1641C88.2262 79.1641 78.8984 88.4918 78.8984 99.9974C78.8984 111.503 88.2262 120.831 99.7318 120.831C111.237 120.831 120.565 111.503 120.565 99.9974C120.565 88.4918 111.237 79.1641 99.7318 79.1641Z" fill="#009393"/>
<path fill-rule="evenodd" clip-rule="evenodd" d="M102.204 102.515C102.065 102.525 101.352 102.565 99.7603 102.565C98.4943 102.565 97.5954 102.529 97.2801 102.515C92.3877 102.315 88.7359 101.523 88.7359 100.574C88.7359 99.6249 92.3877 98.8335 97.2801 98.63V101.726C97.6 101.748 98.5161 101.798 99.7821 101.798C101.301 101.798 102.062 101.739 102.199 101.727V98.6321C107.081 98.8345 110.725 99.627 110.725 100.574C110.725 101.52 107.082 102.313 102.199 102.514L102.204 102.515ZM102.204 98.3119V95.5413H109.017V91.3164H90.4668V95.5413H97.2789V98.3108C91.742 98.5475 87.5781 99.5681 87.5781 100.791C87.5781 102.014 91.742 103.034 97.2789 103.272V112.15H102.202V103.268C107.727 103.032 111.884 102.012 111.884 100.79C111.884 99.5681 107.73 98.5486 102.202 98.3108L102.204 98.3119Z" fill="white"/>
</svg>
